COMMENT @(#)50	1.2  src/bos/usr/lpp/tls/fonts/Chtp212.bdf, cmdtw, bos411, 9428A410j 2/24/94 13:27:05
COMMENT
COMMENT   COMPONENT_NAME: cmdtw
COMMENT
COMMENT   FUNCTIONS: none
COMMENT
COMMENT   ORIGINS: 27
COMMENT
COMMENT   IBM CONFIDENTIAL -- (IBM Confidential Restricted when
COMMENT   combined with the aggregated modules for this product)
COMMENT                    SOURCE MATERIALS
COMMENT
COMMENT   (C) COPYRIGHT International Business Machines Corp. 1992
COMMENT   All Rights Reserved
COMMENT   US Government Users Restricted Rights - Use, duplication or
COMMENT   disclosure restricted by GSA ADP Schedule Contract with IBM Corp.
COMMENT
STARTFONT 2.1
FONT  -IBM_AIX-Sung-Medium-R-Normal--19-120-100-100-M-180-CNS11643.1986-2
SIZE 19 100 100
FONTBOUNDINGBOX 18 19 0 -1
STARTPROPERTIES 20
FONTNAME_REGISTRY "_"
FOUNDRY "IBM_AIX "
FAMILY_NAME "Sung"
WEIGHT_NAME "Medium "
SLANT "R"
SETWIDTH_NAME "Normal"
ADD_STYLE_NAME ""
PIXEL_SIZE 19
POINT_SIZE 120
RESOLUTION_X 100
RESOLUTION_Y 100
SPACING "M"
AVERAGE_WIDTH 180
CHARSET_REGISTRY "CNS11643.1986"
CHARSET_ENCODING "2"
FONT_ASCENT 18
FONT_DESCENT 1
DEFAULT_CHAR 0
CAP_HEIGHT 19
COPYRIGHT "Copyright, 1992 by IBM."
ENDPROPERTIES
CHARS 7650
STARTCHAR 2121
ENCODING 8481
SWIDTH 954 0
DWIDTH 18 0
BBX 18 19 0 -1
BITMAP
000000
000400
000400
200400
200400
100800
080800
041000
021000
012000
00c000
00c000
012000
021000
040800
080400
700300
000000
000000
ENDCHAR
STARTCHAR 2122
ENCODING 8482
SWIDTH 954 0
DWIDTH 18 0
BBX 18 19 0 -1
BITMAP
000000
000000
100000
100000
100600
103a00
11c200
1e0200
700400
100400
100000
100000
100000
100100
100100
100100
1fff00
000000
000000
ENDCHAR
STARTCHAR 2123
ENCODING 8483
SWIDTH 954 0
DWIDTH 18 0
BBX 18 19 0 -1
BITMAP
000000
400200
400200
400200
400200
400200
400200
400200
400200
400200
400200
400200
400200
400200
400200
400200
7ffe00
000000
000000
ENDCHAR
STARTCHAR 2124
ENCODING 8484
SWIDTH 954 0
DWIDTH 18 0
BBX 18 19 0 -1
BITMAP
000000
000000
7fff00
400000
400000
400000
400000
400000
400000
400000
400000
400000
400000
400000
400000
400000
7fff00
000000
000000
ENDCHAR
STARTCHAR 2125
ENCODING 8485
SWIDTH 954 0
DWIDTH 18 0
BBX 18 19 0 -1
BITMAP
000000
000000
3fff00
200000
200000
200000
200000
200000
200000
200000
200000
200000
200000
200000
200000
400000
000000
000000
000000
ENDCHAR
STARTCHAR 2126
ENCODING 8486
SWIDTH 954 0
DWIDTH 18 0
BBX 18 19 0 -1
BITMAP
000000
000000
7fff00
020000
020000
020000
03fc00
040400
040400
040400
040400
080400
080400
100400
204400
402800
001000
000000
000000
ENDCHAR
STARTCHAR 2127
ENCODING 8487
SWIDTH 954 0
DWIDTH 18 0
BBX 18 19 0 -1
BITMAP
000000
7fff00
041000
041000
041000
041000
041000
041000
041000
041000
041000
041000
081000
101000
201000
401000
001000
000000
000000
ENDCHAR
STARTCHAR 2128
ENCODING 8488
SWIDTH 954 0
DWIDTH 18 0
BBX 18 19 0 -1
BITMAP
000000
00e000
030000
1e0000
620000
020000
020000
020000
7fff00
020000
020000
020000
020000
020200
020200
020200
03fe00
000000
000000
ENDCHAR
STARTCHAR 2129
ENCODING 8489
SWIDTH 954 0
DWIDTH 18 0
BBX 18 19 0 -1
BITMAP
000000
000000
3ffc00
000000
000000
000000
000000
000000
7fff00
008000
008000
008000
008000
008000
008000
028000
018000
000000
000000
ENDCHAR
STARTCHAR 212a
ENCODING 8490
SWIDTH 954 0
DWIDTH 18 0
BBX 18 19 0 -1
BITMAP
000000
000000
7ffe00
400200
400200
400200
400200
400200
400200
400200
400200
400200
400200
400200
400200
400200
7ffe00
000000
000000
ENDCHAR
STARTCHAR 212b
ENCODING 8491
SWIDTH 954 0
DWIDTH 18 0
BBX 18 19 0 -1
BITMAP
000000
010000
410200
410200
410200
410200
410200
410200
410200
7ffe00
010000
010000
010000
010000
010000
010000
010000
000000
000000
ENDCHAR
STARTCHAR 212c
ENCODING 8492
SWIDTH 954 0
DWIDTH 18 0
BBX 18 19 0 -1
BITMAP
000000
008000
010400
020800
041000
082000
104000
008000
018000
028000
048000
088000
108000
008000
008000
008000
008000
000000
000000
ENDCHAR
STARTCHAR 212d
ENCODING 8493
SWIDTH 954 0
DWIDTH 18 0
BBX 18 19 0 -1
BITMAP
000000
7fff00
010000
010000
010000
41fe00
410200
410200
410200
7ffe00
000200
000200
000200
000200
004400
002800
001000
000000
000000
ENDCHAR
STARTCHAR 212e
ENCODING 8494
SWIDTH 954 0
DWIDTH 18 0
BBX 18 19 0 -1
BITMAP
000000
010000
010000
7fff00
020000
040000
0ff800
180800
280800
480800
080800
080800
080800
080800
084800
082800
081800
000000
000000
ENDCHAR
STARTCHAR 212f
ENCODING 8495
SWIDTH 954 0
DWIDTH 18 0
BBX 18 19 0 -1
BITMAP
000000
100000
100000
1ffe00
200000
200000
3ffc00
000400
000400
000400
7ff400
000400
000400
000400
004400
002800
001000
000000
000000
ENDCHAR
STARTCHAR 2130
ENCODING 8496
SWIDTH 954 0
DWIDTH 18 0
BBX 18 19 0 -1
BITMAP
000000
7ffc00
010400
010400
010400
1ff400
010400
010400
010400
010400
3ffc00
010400
010400
010500
010500
010300
010100
000000
000000
ENDCHAR
STARTCHAR 2131
ENCODING 8497
SWIDTH 954 0
DWIDTH 18 0
BBX 18 19 0 -1
BITMAP
000000
3ffc00
000000
000000
000000
000000
7fff00
042000
042000
042000
042000
042000
042000
042000
082000
082000
302000
000000
000000
ENDCHAR
STARTCHAR 2132
ENCODING 8498
SWIDTH 954 0
DWIDTH 18 0
BBX 18 19 0 -1
BITMAP
000000
044000
084000
104000
304000
57ff00
104100
104100
104100
104100
104100
108100
108100
110100
111100
120a00
140400
000000
000000
ENDCHAR
STARTCHAR 2133
ENCODING 8499
SWIDTH 954 0
DWIDTH 18 0
BBX 18 19 0 -1
BITMAP
000000
040000
080000
11f800
310800
510800
110800
110800
110800
110800
110800
110800
110800
110900
120900
140900
180f00
000000
000000
ENDCHAR
STARTCHAR 2134
ENCODING 8500
SWIDTH 954 0
DWIDTH 18 0
BBX 18 19 0 -1
BITMAP
000000
040000
082000
102000
302000
512000
111000
111000
111000
111000
110800
120800
120400
120400
140200
140200
180100
000000
000000
ENDCHAR
STARTCHAR 2135
ENCODING 8501
SWIDTH 954 0
DWIDTH 18 0
BBX 18 19 0 -1
BITMAP
000000
008000
008000
008000
3fff00
408100
008200
00c000
014000
014000
014000
024000
024000
044100
084100
104100
607f00
000000
000000
ENDCHAR
STARTCHAR 2136
ENCODING 8502
SWIDTH 954 0
DWIDTH 18 0
BBX 18 19 0 -1
BITMAP
000000
080000
080000
0fff00
100100
220100
420100
1fc100
024100
024100
024900
044900
087900
000100
001100
000a00
000400
000000
000000
ENDCHAR
STARTCHAR 2137
ENCODING 8503
SWIDTH 954 0
DWIDTH 18 0
BBX 18 19 0 -1
BITMAP
000000
060000
787f00
404100
404100
404100
404100
404100
404100
404100
444100
484900
704500
404300
004000
004000
004000
000000
000000
ENDCHAR
STARTCHAR 2138
ENCODING 8504
SWIDTH 954 0
DWIDTH 18 0
BBX 18 19 0 -1
BITMAP
000000
020000
020000
7ff000
041000
041100
081100
101100
601f00
010000
010000
020000
042000
081000
100800
207c00
7f8200
000000
000000
ENDCHAR
STARTCHAR 2139
ENCODING 8505
SWIDTH 954 0
DWIDTH 18 0
BBX 18 19 0 -1
BITMAP
000000
104000
104000
104000
104000
7e4000
104000
104000
104000
124000
144000
184000
104000
204100
404100
004100
007f00
000000
000000
ENDCHAR
STARTCHAR 213a
ENCODING 8506
SWIDTH 954 0
DWIDTH 18 0
BBX 18 19 0 -1
BITMAP
000000
7ff000
101000
101000
102000
202000
203f00
3f8100
508100
090100
060100
060100
090100
30c100
001100
000a00
000400
000000
000000
ENDCHAR
STARTCHAR 213b
ENCODING 8507
SWIDTH 954 0
DWIDTH 18 0
BBX 18 19 0 -1
BITMAP
000000
010000
010000
010000
3ff800
010800
010800
010800
010800
010800
7fff00
028000
044000
082000
101000
200800
400700
000000
000000
ENDCHAR
STARTCHAR 213c
ENCODING 8508
SWIDTH 954 0
DWIDTH 18 0
BBX 18 19 0 -1
BITMAP
000000
008000
008000
008000
089000
108800
208400
608200
108100
088000
048000
020000
010000
008000
004000
002000
001c00
000000
000000
ENDCHAR
STARTCHAR 213d
ENCODING 8509
SWIDTH 954 0
DWIDTH 18 0
BBX 18 19 0 -1
BITMAP
000000
010000
010000
7fff00
010000
010000
010000
7ffe00
410200
410200
410200
410200
410200
411200
410e00
010000
010000
000000
000000
ENDCHAR
STARTCHAR 213e
ENCODING 8510
SWIDTH 954 0
DWIDTH 18 0
BBX 18 19 0 -1
BITMAP
000000
000000
3ffc00
104000
104000
104000
104000
104000
3fff00
004000
00a000
012000
022000
042000
082100
102100
603f00
000000
000000
ENDCHAR
STARTCHAR 213f
ENCODING 8511
SWIDTH 954 0
DWIDTH 18 0
BBX 18 19 0 -1
BITMAP
000000
000000
07f000
041000
041000
041000
081000
701f00
000000
000000
1ff800
041000
022000
014000
008000
014000
7e3e00
000000
000000
ENDCHAR
STARTCHAR 2140
ENCODING 8512
SWIDTH 954 0
DWIDTH 18 0
BBX 18 19 0 -1
BITMAP
000000
1ffe00
104200
104200
104200
104200
104200
7fff00
208400
208400
208400
208400
208400
208400
3fff00
020800
043800
000000
000000
ENDCHAR
STARTCHAR 2141
ENCODING 8513
SWIDTH 954 0
DWIDTH 18 0
BBX 18 19 0 -1
BITMAP
000000
100000
100000
1ffc00
200000
200000
5ff000
000000
000000
7ff800
000800
000800
000800
000900
000900
000500
000300
000000
000000
ENDCHAR
STARTCHAR 2142
ENCODING 8514
SWIDTH 954 0
DWIDTH 18 0
BBX 18 19 0 -1
BITMAP
000000
000800
080800
080800
080800
080800
0ff800
000800
000800
0ff800
080800
080800
080800
080800
100800
200800
400800
000000
000000
ENDCHAR
STARTCHAR 2143
ENCODING 8515
SWIDTH 954 0
DWIDTH 18 0
BBX 18 19 0 -1
BITMAP
000000
022000
022000
422100
422100
422100
422100
422100
422100
422100
7e3f00
022000
042000
082000
102000
202000
402000
000000
000000
ENDCHAR
STARTCHAR 2144
ENCODING 8516
SWIDTH 954 0
DWIDTH 18 0
BBX 18 19 0 -1
BITMAP
000000
081000
081000
081000
7ffe00
081000
0a1000
091000
089000
085000
081000
7fff00
081000
081000
101000
201000
401000
000000
000000
ENDCHAR
STARTCHAR 2145
ENCODING 8517
SWIDTH 954 0
DWIDTH 18 0
BBX 18 19 0 -1
BITMAP
000000
040000
080000
13fe00
300000
500000
100000
100000
100000
11fc00
100000
100000
100000
100000
100000
1fff00
100000
000000
000000
ENDCHAR
STARTCHAR 2146
ENCODING 8518
SWIDTH 954 0
DWIDTH 18 0
BBX 18 19 0 -1
BITMAP
000000
080000
080000
13fe00
302000
502000
102000
102000
102000
102000
102000
102000
102000
102000
102000
17ff00
100000
000000
000000
ENDCHAR
STARTCHAR 2147
ENCODING 8519
SWIDTH 954 0
DWIDTH 18 0
BBX 18 19 0 -1
BITMAP
000000
042000
082000
102000
302000
502000
102000
103f00
102000
102000
102000
102000
102000
102000
102000
102000
1fff00
000000
000000
ENDCHAR
STARTCHAR 2148
ENCODING 8520
SWIDTH 954 0
DWIDTH 18 0
BBX 18 19 0 -1
BITMAP
000000
050000
090000
11fe00
320000
540000
11fc00
100800
101000
102000
104000
108000
110000
120100
120100
120100
13ff00
000000
000000
ENDCHAR
STARTCHAR 2149
ENCODING 8521
SWIDTH 954 0
DWIDTH 18 0
BBX 18 19 0 -1
BITMAP
000000
018000
024000
042000
081000
100800
200400
400200
1ff100
010000
010000
010000
010000
010000
010000
010000
7ffe00
000000
000000
ENDCHAR
STARTCHAR 214a
ENCODING 8522
SWIDTH 954 0
DWIDTH 18 0
BBX 18 19 0 -1
BITMAP
000000
018000
024000
042000
081000
100800
210400
410200
010100
010000
210800
210800
210800
210800
210800
210800
3ff800
000000
000000
ENDCHAR
STARTCHAR 214b
ENCODING 8523
SWIDTH 954 0
DWIDTH 18 0
BBX 18 19 0 -1
BITMAP
000000
020100
020100
021100
021100
7fd100
021100
021100
421100
221100
121100
021100
021100
020100
120100
0a0500
060300
000000
000000
ENDCHAR
STARTCHAR 214c
ENCODING 8524
SWIDTH 954 0
DWIDTH 18 0
BBX 18 19 0 -1
BITMAP
000000
200100
200100
3fd100
401100
001100
001100
7f9100
011100
021100
041100
081100
101100
204100
404100
404500
7fc300
000000
000000
ENDCHAR
STARTCHAR 214d
ENCODING 8525
SWIDTH 954 0
DWIDTH 18 0
BBX 18 19 0 -1
BITMAP
000000
7fff00
404000
484000
484000
484000
487c00
4fc400
784400
484800
485000
480000
480200
480200
4ffe00
400000
7fff00
000000
000000
ENDCHAR
STARTCHAR 214e
ENCODING 8526
SWIDTH 954 0
DWIDTH 18 0
BBX 18 19 0 -1
BITMAP
000000
200200
222200
222200
222200
222200
222200
7fff00
222200
222200
222200
222200
222200
222200
222200
200a00
200600
000000
000000
ENDCHAR
STARTCHAR 214f
ENCODING 8527
SWIDTH 954 0
DWIDTH 18 0
BBX 18 19 0 -1
BITMAP
000000
11ff00
101000
101000
101000
7e1000
101000
101000
101000
121000
141000
181000
101000
201000
409000
005000
003000
000000
000000
ENDCHAR
STARTCHAR 2150
ENCODING 8528
SWIDTH 954 0
DWIDTH 18 0
BBX 18 19 0 -1
BITMAP
000000
3ffc00
100800
081000
042000
024000
018000
024000
042000
391e00
010000
010000
1ff800
010000
010000
010000
7fff00
000000
000000
ENDCHAR
STARTCHAR 2151
ENCODING 8529
SWIDTH 954 0
DWIDTH 18 0
BBX 18 19 0 -1
BITMAP
000000
204000
3f7f00
214100
214100
214100
214100
314900
294600
464000
024000
044000
044000
084100
104100
204100
403f00
000000
000000
ENDCHAR
STARTCHAR 2152
ENCODING 8530
SWIDTH 954 0
DWIDTH 18 0
BBX 18 19 0 -1
BITMAP
000000
010000
010000
7fff00
028000
044000
082000
101800
620700
020000
3ff800
020800
020800
040800
088800
105000
202000
000000
000000
ENDCHAR
STARTCHAR 2153
ENCODING 8531
SWIDTH 954 0
DWIDTH 18 0
BBX 18 19 0 -1
BITMAP
000000
008000
008000
7fff00
400100
400200
000000
1ffc00
008000
008000
008000
008000
008000
008000
048000
028000
010000
000000
000000
ENDCHAR
STARTCHAR 2154
ENCODING 8532
SWIDTH 954 0
DWIDTH 18 0
BBX 18 19 0 -1
BITMAP
000000
010000
010000
3fff00
420100
020200
020000
1ff000
021000
021000
021000
041000
041000
081100
101100
201100
401f00
000000
000000
ENDCHAR
STARTCHAR 2155
ENCODING 8533
SWIDTH 954 0
DWIDTH 18 0
BBX 18 19 0 -1
BITMAP
000000
018000
024000
042000
081000
100800
210400
410200
010100
012000
091000
110800
210400
410200
010100
050000
030000
000000
000000
ENDCHAR
STARTCHAR 2156
ENCODING 8534
SWIDTH 954 0
DWIDTH 18 0
BBX 18 19 0 -1
BITMAP
000000
000000
3ffe00
200200
200200
200200
3ffe00
200000
208000
208000
2ff800
208800
208800
210800
420900
040900
080f00
000000
000000
ENDCHAR
STARTCHAR 2157
ENCODING 8535
SWIDTH 954 0
DWIDTH 18 0
BBX 18 19 0 -1
BITMAP
000000
008000
208400
208400
208400
208400
3ffc00
010000
010000
7ffe00
010200
010200
020200
040200
082200
101400
600800
000000
000000
ENDCHAR
STARTCHAR 2158
ENCODING 8536
SWIDTH 954 0
DWIDTH 18 0
BBX 18 19 0 -1
BITMAP
000000
020000
010000
028000
044000
082000
111000
210800
410400
010300
210800
210800
210800
210800
210800
210800
3ff800
000000
000000
ENDCHAR
STARTCHAR 2159
ENCODING 8537
SWIDTH 954 0
DWIDTH 18 0
BBX 18 19 0 -1
BITMAP
000000
080000
08ff00
080800
3f0800
290800
290800
290800
290800
290800
290800
2d0800
2b0800
080800
080800
082800
081800
000000
000000
ENDCHAR
STARTCHAR 215a
ENCODING 8538
SWIDTH 954 0
DWIDTH 18 0
BBX 18 19 0 -1
BITMAP
000000
004000
004000
3fff00
200000
240000
240400
240400
240800
241000
246000
258000
260000
240100
440100
040100
07ff00
000000
000000
ENDCHAR
STARTCHAR 215b
ENCODING 8539
SWIDTH 954 0
DWIDTH 18 0
BBX 18 19 0 -1
BITMAP
000000
008000
008000
3fff00
200000
204000
204000
204000
204000
204000
204000
204000
20a000
211000
420800
040400
180300
000000
000000
ENDCHAR
STARTCHAR 215c
ENCODING 8540
SWIDTH 954 0
DWIDTH 18 0
BBX 18 19 0 -1
BITMAP
000000
100000
11ff00
502100
542100
542100
542100
542100
502100
102100
102100
102100
102100
104100
109100
110a00
100400
000000
000000
ENDCHAR
STARTCHAR 215d
ENCODING 8541
SWIDTH 954 0
DWIDTH 18 0
BBX 18 19 0 -1
BITMAP
000000
004800
004400
004000
3fff00
204000
204000
204100
204200
204400
204800
205000
202000
245000
288900
310500
020300
000000
000000
ENDCHAR
STARTCHAR 215e
ENCODING 8542
SWIDTH 954 0
DWIDTH 18 0
BBX 18 19 0 -1
BITMAP
000000
102000
102000
102000
7c2000
13ff00
102100
142100
182100
302100
502100
102100
104100
108100
111100
520a00
340400
000000
000000
ENDCHAR
STARTCHAR 215f
ENCODING 8543
SWIDTH 954 0
DWIDTH 18 0
BBX 18 19 0 -1
BITMAP
000000
100000
1ffe00
200000
7ffc00
000000
7ff800
020800
020800
020800
020800
020800
020800
020900
040900
080500
100300
000000
000000
ENDCHAR
STARTCHAR 2160
ENCODING 8544
SWIDTH 954 0
DWIDTH 18 0
BBX 18 19 0 -1
BITMAP
000000
3ffc00
000800
001000
002000
004100
008200
7ec400
02c800
04b000
089000
108800
208400
408200
048100
028000
018000
000000
000000
ENDCHAR
STARTCHAR 2161
ENCODING 8545
SWIDTH 954 0
DWIDTH 18 0
BBX 18 19 0 -1
BITMAP
000000
400000
204000
102000
002000
012000
011000
411000
211000
020800
020800
120800
120400
240400
480400
100200
200100
000000
000000
ENDCHAR
STARTCHAR 2162
ENCODING 8546
SWIDTH 954 0
DWIDTH 18 0
BBX 18 19 0 -1
BITMAP
000000
408000
208000
108000
008000
00f800
0f8800
408800
208800
008800
008800
010800
090800
120900
240900
480900
100f00
000000
000000
ENDCHAR
STARTCHAR 2163
ENCODING 8547
SWIDTH 954 0
DWIDTH 18 0
BBX 18 19 0 -1
BITMAP
000000
402000
202000
102000
002000
03ff00
002100
402100
202100
002100
002100
002100
084100
108100
211100
420a00
040400
000000
000000
ENDCHAR
STARTCHAR 2164
ENCODING 8548
SWIDTH 954 0
DWIDTH 18 0
BBX 18 19 0 -1
BITMAP
000000
080000
081000
080800
080400
7fff00
080000
080800
0a0800
111000
10a000
104000
20a000
211000
220800
440400
180300
000000
000000
ENDCHAR
STARTCHAR 2165
ENCODING 8549
SWIDTH 954 0
DWIDTH 18 0
BBX 18 19 0 -1
BITMAP
000000
088000
508000
208000
508000
0bf800
088800
188800
288800
488800
088800
088800
090800
090900
0a0900
540900
280f00
000000
000000
ENDCHAR
STARTCHAR 2166
ENCODING 8550
SWIDTH 954 0
DWIDTH 18 0
BBX 18 19 0 -1
BITMAP
000000
7ffe00
010000
010000
011000
010800
010400
010000
3ffc00
010000
010000
010000
010000
010000
010000
010000
7fff00
000000
000000
ENDCHAR
STARTCHAR 2167
ENCODING 8551
SWIDTH 954 0
DWIDTH 18 0
BBX 18 19 0 -1
BITMAP
000000
008000
008000
008000
7ffe00
410200
410200
410200
410200
422200
441200
487a00
5f8600
400200
400200
400a00
400600
000000
000000
ENDCHAR
STARTCHAR 2168
ENCODING 8552
SWIDTH 954 0
DWIDTH 18 0
BBX 18 19 0 -1
BITMAP
000000
7c0000
45fe00
440200
440400
7c0800
441000
442000
444000
7c8000
450000
450000
450000
450100
050100
150100
0dff00
000000
000000
ENDCHAR
STARTCHAR 2169
ENCODING 8553
SWIDTH 954 0
DWIDTH 18 0
BBX 18 19 0 -1
BITMAP
000000
002000
782000
482000
482000
4bff00
502100
702100
482100
482100
482100
482100
684100
588100
411100
420a00
440400
000000
000000
ENDCHAR
STARTCHAR 216a
ENCODING 8554
SWIDTH 954 0
DWIDTH 18 0
BBX 18 19 0 -1
BITMAP
000000
042000
082000
102000
37ff00
502000
102000
102000
13fe00
110400
108800
105000
102000
105000
108800
110400
160300
000000
000000
ENDCHAR
STARTCHAR 216b
ENCODING 8555
SWIDTH 954 0
DWIDTH 18 0
BBX 18 19 0 -1
BITMAP
000000
042000
082400
102200
302100
5fff00
105000
105000
105000
109000
109000
109000
111000
111100
121100
141100
181f00
000000
000000
ENDCHAR
STARTCHAR 216c
ENCODING 8556
SWIDTH 954 0
DWIDTH 18 0
BBX 18 19 0 -1
BITMAP
000000
05fe00
090200
110200
310200
510200
110200
11fe00
118000
118000
124000
122000
122000
121000
140800
140400
180300
000000
000000
ENDCHAR
STARTCHAR 216d
ENCODING 8557
SWIDTH 954 0
DWIDTH 18 0
BBX 18 19 0 -1
BITMAP
000000
048000
088000
10fe00
312000
522000
142000
102000
102000
17ff00
102000
102000
102000
102000
102000
102000
102000
000000
000000
ENDCHAR
STARTCHAR 216e
ENCODING 8558
SWIDTH 954 0
DWIDTH 18 0
BBX 18 19 0 -1
BITMAP
000000
040000
080000
13ff00
320100
520200
109000
109000
109000
109000
109000
109000
109000
111100
121100
141100
181f00
000000
000000
ENDCHAR
STARTCHAR 216f
ENCODING 8559
SWIDTH 954 0
DWIDTH 18 0
BBX 18 19 0 -1
BITMAP
000000
042000
085000
108800
310400
520200
15fd00
100000
100000
13fe00
100200
100400
100800
101000
102000
104000
108000
000000
000000
ENDCHAR
STARTCHAR 2170
ENCODING 8560
SWIDTH 954 0
DWIDTH 18 0
BBX 18 19 0 -1
BITMAP
000000
042000
082000
109000
308800
510400
120200
140100
104000
104000
108000
108000
110400
120200
140100
17ff00
100100
000000
000000
ENDCHAR
STARTCHAR 2171
ENCODING 8561
SWIDTH 954 0
DWIDTH 18 0
BBX 18 19 0 -1
BITMAP
000000
046000
089000
110800
320400
540200
180100
108800
108800
108800
108800
108800
108800
108800
110800
120800
140800
000000
000000
ENDCHAR
STARTCHAR 2172
ENCODING 8562
SWIDTH 954 0
DWIDTH 18 0
BBX 18 19 0 -1
BITMAP
000000
044000
082000
101000
300000
508000
108000
108000
128000
128400
128200
148100
188000
108200
108200
108200
10fe00
000000
000000
ENDCHAR
STARTCHAR 2173
ENCODING 8563
SWIDTH 954 0
DWIDTH 18 0
BBX 18 19 0 -1
BITMAP
000000
040000
080000
11fe00
300000
500000
100000
100000
17ff00
102000
104000
108000
110400
120200
140100
17ff00
100100
000000
000000
ENDCHAR
STARTCHAR 2174
ENCODING 8564
SWIDTH 954 0
DWIDTH 18 0
BBX 18 19 0 -1
BITMAP
000000
082000
082000
17ff00
302000
502000
13fe00
122200
122200
122200
122200
122200
122a00
122600
102000
102000
102000
000000
000000
ENDCHAR
STARTCHAR 2175
ENCODING 8565
SWIDTH 954 0
DWIDTH 18 0
BBX 18 19 0 -1
BITMAP
000000
042000
082000
102000
37ff00
502000
122200
122200
122200
122200
122200
13fe00
102000
102000
102100
102100
103f00
000000
000000
ENDCHAR
STARTCHAR 2176
ENCODING 8566
SWIDTH 954 0
DWIDTH 18 0
BBX 18 19 0 -1
BITMAP
000000
07ff00
080800
100800
308800
508800
110800
110800
13ff00
101800
102800
104800
108800
110800
120800
142800
181800
000000
000000
ENDCHAR
STARTCHAR 2177
ENCODING 8567
SWIDTH 954 0
DWIDTH 18 0
BBX 18 19 0 -1
BITMAP
000000
040000
0bff00
101000
302000
506000
10b000
112800
122400
142200
182100
102000
102000
102000
102000
102000
102000
000000
000000
ENDCHAR
STARTCHAR 2178
ENCODING 8568
SWIDTH 954 0
DWIDTH 18 0
BBX 18 19 0 -1
BITMAP
000000
040000
0bfe00
104200
304200
504200
13fe00
124000
144000
144000
1fff00
104100
104100
104100
104500
104300
104000
000000
000000
ENDCHAR
STARTCHAR 2179
ENCODING 8569
SWIDTH 954 0
DWIDTH 18 0
BBX 18 19 0 -1
BITMAP
000000
05fe00
090200
110200
310200
51fe00
110200
110200
110200
11fe00
110200
110200
110200
110200
120200
140a00
180600
000000
000000
ENDCHAR
STARTCHAR 217a
ENCODING 8570
SWIDTH 954 0
DWIDTH 18 0
BBX 18 19 0 -1
BITMAP
000000
040600
083800
11c000
310000
510000
11ff00
110800
110800
110800
110800
110800
110800
110800
120800
140800
100800
000000
000000
ENDCHAR
STARTCHAR 217b
ENCODING 8571
SWIDTH 954 0
DWIDTH 18 0
BBX 18 19 0 -1
BITMAP
000000
000000
0fff00
408000
208000
008000
00fe00
010200
010200
010400
020400
17fc00
100400
100800
200800
401000
0fff00
000000
000000
ENDCHAR
STARTCHAR 217c
ENCODING 8572
SWIDTH 954 0
DWIDTH 18 0
BBX 18 19 0 -1
BITMAP
000000
000100
000100
7e1100
001100
001100
001100
7f1100
241100
241100
241100
241100
241100
240100
244100
444500
07c300
000000
000000
ENDCHAR
STARTCHAR 217d
ENCODING 8573
SWIDTH 954 0
DWIDTH 18 0
BBX 18 19 0 -1
BITMAP
000000
3f0100
210100
311100
291100
251100
211100
7fd100
211100
211100
211100
211100
211100
210100
210100
450500
030300
000000
000000
ENDCHAR
STARTCHAR 217e
ENCODING 8574
SWIDTH 954 0
DWIDTH 18 0
BBX 18 19 0 -1
BITMAP
000000
010000
3ffc00
010400
020400
040400
080400
703800
000000
101000
101000
7fff00
111100
111100
212100
454500
038300
000000
000000
ENDCHAR
STARTCHAR 2221
ENCODING 8737
SWIDTH 954 0
DWIDTH 18 0
BBX 18 19 0 -1
BITMAP
000000
7fff00
440000
440000
440000
4ffe00
512200
612200
422200
444200
488200
510200
620200
442200
481400
400800
7fff00
000000
000000
ENDCHAR
STARTCHAR 2222
ENCODING 8738
SWIDTH 954 0
DWIDTH 18 0
BBX 18 19 0 -1
BITMAP
000000
7fff00
408000
408000
7ffe00
400000
47e000
442000
442000
442000
442000
442000
442200
482200
503e00
400000
7fff00
000000
000000
ENDCHAR
STARTCHAR 2223
ENCODING 8739
SWIDTH 954 0
DWIDTH 18 0
BBX 18 19 0 -1
BITMAP
000000
000000
7f0200
010200
010200
010200
010200
010200
010200
7ffe00
410000
410000
410000
410000
410000
410000
41fe00
000000
000000
ENDCHAR
STARTCHAR 2224
ENCODING 8740
SWIDTH 954 0
DWIDTH 18 0
BBX 18 19 0 -1
BITMAP
000000
3fff00
200000
23fe00
201000
221000
221000
241000
27ff00
203000
205000
209000
211000
221000
241000
485000
003000
000000
000000
ENDCHAR
STARTCHAR 2225
ENCODING 8741
SWIDTH 954 0
DWIDTH 18 0
BBX 18 19 0 -1
BITMAP
000000
01ff00
000200
7c0400
440800
441000
441000
441000
47ff00
441000
441000
441000
441000
7c1000
009000
005000
003000
000000
000000
ENDCHAR
STARTCHAR 2226
ENCODING 8742
SWIDTH 954 0
DWIDTH 18 0
BBX 18 19 0 -1
BITMAP
000000
7fff00
400100
420100
420100
420100
7fff00
441100
441100
482100
584100
468100
418100
466100
781d00
400100
7fff00
000000
000000
ENDCHAR
STARTCHAR 2227
ENCODING 8743
SWIDTH 954 0
DWIDTH 18 0
BBX 18 19 0 -1
BITMAP
000000
040000
080000
100000
200000
7fff00
501100
482100
444100
428100
410100
428100
444100
482100
501100
600900
7fff00
000000
000000
ENDCHAR
STARTCHAR 2228
ENCODING 8744
SWIDTH 954 0
DWIDTH 18 0
BBX 18 19 0 -1
BITMAP
000000
11fe00
100200
100200
100200
7c0200
100200
100200
11fe00
110000
150000
190000
110000
210100
410100
010100
01ff00
000000
000000
ENDCHAR
STARTCHAR 2229
ENCODING 8745
SWIDTH 954 0
DWIDTH 18 0
BBX 18 19 0 -1
BITMAP
000000
108000
108000
10ff00
110000
120000
7c0000
11fe00
100400
100800
141000
182000
104000
208100
410100
010100
01ff00
000000
000000
ENDCHAR
STARTCHAR 222a
ENCODING 8746
SWIDTH 954 0
DWIDTH 18 0
BBX 18 19 0 -1
BITMAP
000000
108000
108000
108000
10ff00
7d0100
120100
140100
108100
104100
142100
180100
100100
200100
401100
000a00
000400
000000
000000
ENDCHAR
STARTCHAR 222b
ENCODING 8747
SWIDTH 954 0
DWIDTH 18 0
BBX 18 19 0 -1
BITMAP
000000
010000
010000
7fff00
024000
042000
081000
100800
288c00
488a00
088900
088800
088800
088800
108800
208800
400800
000000
000000
ENDCHAR
STARTCHAR 222c
ENCODING 8748
SWIDTH 954 0
DWIDTH 18 0
BBX 18 19 0 -1
BITMAP
000000
004000
7e4000
024200
024200
03ff00
024200
7e4200
404200
404200
404200
442400
481800
501800
602400
404200
008100
000000
000000
ENDCHAR
STARTCHAR 222d
ENCODING 8749
SWIDTH 954 0
DWIDTH 18 0
BBX 18 19 0 -1
BITMAP
000000
200600
201800
21e000
202000
7c2000
242000
242000
27ff00
242000
242000
242000
182000
182000
242100
402100
003f00
000000
000000
ENDCHAR
STARTCHAR 222e
ENCODING 8750
SWIDTH 954 0
DWIDTH 18 0
BBX 18 19 0 -1
BITMAP
000000
200000
200000
200000
20fe00
7c1000
241000
241000
241000
241000
241000
241000
181000
181000
241000
401000
01ff00
000000
000000
ENDCHAR
STARTCHAR 222f
ENCODING 8751
SWIDTH 954 0
DWIDTH 18 0
BBX 18 19 0 -1
BITMAP
000000
204000
204000
204000
204000
7dff00
244400
244400
244400
244400
244400
242800
181000
182800
244400
408200
010100
000000
000000
ENDCHAR
STARTCHAR 2230
ENCODING 8752
SWIDTH 954 0
DWIDTH 18 0
BBX 18 19 0 -1
BITMAP
000000
200800
200800
200800
200800
7c0800
248900
248900
248900
248900
248900
248900
188900
188900
248900
40ff00
000000
000000
000000
ENDCHAR
STARTCHAR 2231
ENCODING 8753
SWIDTH 954 0
DWIDTH 18 0
BBX 18 19 0 -1
BITMAP
000000
200600
201800
203000
20d000
7e1000
221000
221000
23ff00
221000
221000
141000
081000
141000
221000
401000
001000
000000
000000
ENDCHAR
STARTCHAR 2232
ENCODING 8754
SWIDTH 954 0
DWIDTH 18 0
BBX 18 19 0 -1
BITMAP
000000
200000
200000
204000
204000
7dff00
244400
244400
244400
348400
2c8800
245000
242000
245000
248900
450500
07ff00
000000
000000
ENDCHAR
STARTCHAR 2233
ENCODING 8755
SWIDTH 954 0
DWIDTH 18 0
BBX 18 19 0 -1
BITMAP
000000
7f7f00
020200
040400
080800
0a0800
0c0800
080800
187f00
280800
480800
480800
080800
080800
080800
282800
181800
000000
000000
ENDCHAR
STARTCHAR 2234
ENCODING 8756
SWIDTH 954 0
DWIDTH 18 0
BBX 18 19 0 -1
BITMAP
000000
1ff000
021000
022000
047e00
040200
040200
088a00
108400
008000
049000
088800
108400
208200
408100
028000
018000
000000
000000
ENDCHAR
STARTCHAR 2235
ENCODING 8757
SWIDTH 954 0
DWIDTH 18 0
BBX 18 19 0 -1
BITMAP
000000
082000
082000
082000
7f3e00
084200
0c8200
0d4200
142200
141200
140200
240200
240200
241400
440900
440100
07ff00
000000
000000
ENDCHAR
STARTCHAR 2236
ENCODING 8758
SWIDTH 954 0
DWIDTH 18 0
BBX 18 19 0 -1
BITMAP
000000
09ff00
084800
084800
084800
4a4800
4a4800
4a4800
4a4800
4a4800
4a4800
4a4800
4a8800
4a8900
7e8900
010900
020f00
000000
000000
ENDCHAR
STARTCHAR 2237
ENCODING 8759
SWIDTH 954 0
DWIDTH 18 0
BBX 18 19 0 -1
BITMAP
000000
100000
10fe00
100200
100200
520200
520200
52fe00
528000
528000
528000
528000
528000
528100
7e8100
008100
00ff00
000000
000000
ENDCHAR
STARTCHAR 2238
ENCODING 8760
SWIDTH 954 0
DWIDTH 18 0
BBX 18 19 0 -1
BITMAP
000000
100000
11ff00
102100
102100
522100
522100
52a100
526100
522100
523100
522900
522100
524100
7e8100
010a00
020400
000000
000000
ENDCHAR
STARTCHAR 2239
ENCODING 8761
SWIDTH 954 0
DWIDTH 18 0
BBX 18 19 0 -1
BITMAP
000000
080800
080800
080800
080800
494900
494900
494900
494900
494900
494900
494900
494900
494900
7f7f00
000000
000000
000000
000000
ENDCHAR
STARTCHAR 223a
ENCODING 8762
SWIDTH 954 0
DWIDTH 18 0
BBX 18 19 0 -1
BITMAP
000000
008000
008000
7fff00
200000
200000
200000
3ffe00
000000
111000
111000
111000
111000
111000
111100
211100
401f00
000000
000000
ENDCHAR
STARTCHAR 223b
ENCODING 8763
SWIDTH 954 0
DWIDTH 18 0
BBX 18 19 0 -1
BITMAP
000000
3e7c00
081000
081000
081000
7e1000
087f00
081000
081000
081000
081000
081000
101000
201000
401000
001000
001000
000000
000000
ENDCHAR
STARTCHAR 223c
ENCODING 8764
SWIDTH 954 0
DWIDTH 18 0
BBX 18 19 0 -1
BITMAP
000000
004000
004000
3fff00
200000
204000
204000
204000
204000
2ffe00
204000
204000
204000
204000
404000
004000
1fff00
000000
000000
ENDCHAR
STARTCHAR 223d
ENCODING 8765
SWIDTH 954 0
DWIDTH 18 0
BBX 18 19 0 -1
BITMAP
000000
3ff800
000800
000800
3ff800
200000
200200
3ffe00
041000
041000
041000
7fff00
041000
041000
041000
081000
101000
000000
000000
ENDCHAR
STARTCHAR 223e
ENCODING 8766
SWIDTH 954 0
DWIDTH 18 0
BBX 18 19 0 -1
BITMAP
000000
081000
100800
200400
400300
3ffc00
010400
010400
3ffc00
210000
210000
3ffe00
010200
010200
010200
011400
010800
000000
000000
ENDCHAR
STARTCHAR 223f
ENCODING 8767
SWIDTH 954 0
DWIDTH 18 0
BBX 18 19 0 -1
BITMAP
000000
088000
108000
208000
44ff00
090100
120100
340100
508100
104100
102100
100100
100100
100100
101100
100a00
100400
000000
000000
ENDCHAR
STARTCHAR 2240
ENCODING 8768
SWIDTH 954 0
DWIDTH 18 0
BBX 18 19 0 -1
BITMAP
000000
102000
102000
502000
542000
542000
57ff00
542000
102000
102000
102000
102000
105000
108800
110400
120200
140100
000000
000000
ENDCHAR
STARTCHAR 2241
ENCODING 8769
SWIDTH 954 0
DWIDTH 18 0
BBX 18 19 0 -1
BITMAP
000000
104000
104000
107f00
508000
550000
540000
54fe00
100400
100800
101000
102000
104000
108100
108100
108100
10ff00
000000
000000
ENDCHAR
STARTCHAR 2242
ENCODING 8770
SWIDTH 954 0
DWIDTH 18 0
BBX 18 19 0 -1
BITMAP
000000
100600
101800
103000
50d000
541000
541000
541000
51ff00
101000
101000
101000
101000
101000
101000
101000
101000
000000
000000
ENDCHAR
STARTCHAR 2243
ENCODING 8771
SWIDTH 954 0
DWIDTH 18 0
BBX 18 19 0 -1
BITMAP
000000
100000
11fe00
101000
101000
7c1000
101000
15ff00
181000
301000
501000
101000
101000
101000
101000
505000
303000
000000
000000
ENDCHAR
STARTCHAR 2244
ENCODING 8772
SWIDTH 954 0
DWIDTH 18 0
BBX 18 19 0 -1
BITMAP
000000
100000
10fe00
101000
101000
7e1000
101000
141000
181000
11ff00
301000
501000
101000
101000
101000
501000
301000
000000
000000
ENDCHAR
STARTCHAR 2245
ENCODING 8773
SWIDTH 954 0
DWIDTH 18 0
BBX 18 19 0 -1
BITMAP
000000
100000
100000
13ff00
109000
7c9000
109000
149000
189000
309000
509000
109000
109000
111100
121100
541100
381f00
000000
000000
ENDCHAR
STARTCHAR 2246
ENCODING 8774
SWIDTH 954 0
DWIDTH 18 0
BBX 18 19 0 -1
BITMAP
000000
100000
101000
101000
111100
7d1700
111900
153100
19d100
331100
511200
111000
110000
110100
110100
510100
31ff00
000000
000000
ENDCHAR
STARTCHAR 2247
ENCODING 8775
SWIDTH 954 0
DWIDTH 18 0
BBX 18 19 0 -1
BITMAP
000000
100600
101800
103000
10d000
7c1000
101000
101000
11ff00
141000
181000
301000
501000
101000
101000
501000
301000
000000
000000
ENDCHAR
STARTCHAR 2248
ENCODING 8776
SWIDTH 954 0
DWIDTH 18 0
BBX 18 19 0 -1
BITMAP
000000
108000
108000
10ff00
110000
7e0000
100000
17fe00
180400
300800
501000
102000
104000
108100
110100
510100
31ff00
000000
000000
ENDCHAR
STARTCHAR 2249
ENCODING 8777
SWIDTH 954 0
DWIDTH 18 0
BBX 18 19 0 -1
BITMAP
000000
100400
100400
100400
11ff00
7c0400
108400
148400
188400
304400
502800
101000
102800
104800
108400
510200
320100
000000
000000
ENDCHAR
STARTCHAR 224a
ENCODING 8778
SWIDTH 954 0
DWIDTH 18 0
BBX 18 19 0 -1
BITMAP
000000
100000
11fe00
108200
118200
7ea200
109200
148a00
188200
108200
304400
502800
101000
102800
104400
508200
310100
000000
000000
ENDCHAR
STARTCHAR 224b
ENCODING 8779
SWIDTH 954 0
DWIDTH 18 0
BBX 18 19 0 -1
BITMAP
000000
108000
108000
108000
10ff00
7d0100
120100
100100
108100
144100
182100
300100
500100
100100
101100
500a00
300400
000000
000000
ENDCHAR
STARTCHAR 224c
ENCODING 8780
SWIDTH 954 0
DWIDTH 18 0
BBX 18 19 0 -1
BITMAP
000000
102000
102c00
103000
11e000
7c2000
102000
142000
1bff00
302000
502000
102000
102000
102000
102100
502100
303f00
000000
000000
ENDCHAR
STARTCHAR 224d
ENCODING 8781
SWIDTH 954 0
DWIDTH 18 0
BBX 18 19 0 -1
BITMAP
000000
004000
7f4000
207f00
208400
214400
204400
204400
3e4400
224400
024400
024400
022800
021000
022800
224400
1e8200
000000
000000
ENDCHAR
STARTCHAR 224e
ENCODING 8782
SWIDTH 954 0
DWIDTH 18 0
BBX 18 19 0 -1
BITMAP
000000
3ffc00
200400
200400
3ffc00
200400
200400
3ffc00
020000
020000
7ff000
021000
041000
081100
101100
201100
401f00
000000
000000
ENDCHAR
STARTCHAR 224f
ENCODING 8783
SWIDTH 954 0
DWIDTH 18 0
BBX 18 19 0 -1
BITMAP
000000
020000
020000
7ff000
021000
021000
041100
081100
701f00
000000
1ff800
100800
100800
1ff800
100800
100800
1ff800
000000
000000
ENDCHAR
STARTCHAR 2250
ENCODING 8784
SWIDTH 954 0
DWIDTH 18 0
BBX 18 19 0 -1
BITMAP
000000
100000
100000
11ff00
101000
7e1000
101000
101000
381000
541000
121000
101000
101000
101000
101000
105000
103000
000000
000000
ENDCHAR
STARTCHAR 2251
ENCODING 8785
SWIDTH 954 0
DWIDTH 18 0
BBX 18 19 0 -1
BITMAP
000000
104000
104000
104000
104000
7e7800
11c800
104800
384800
544800
124800
108800
108800
108900
110900
120900
140f00
000000
000000
ENDCHAR
STARTCHAR 2252
ENCODING 8786
SWIDTH 954 0
DWIDTH 18 0
BBX 18 19 0 -1
BITMAP
000000
081000
081000
081000
081000
7eff00
081100
081100
081100
1c1100
2a1100
491100
082100
084100
088100
090500
080300
000000
000000
ENDCHAR
STARTCHAR 2253
ENCODING 8787
SWIDTH 954 0
DWIDTH 18 0
BBX 18 19 0 -1
BITMAP
000000
100200
100200
104200
104200
7e4200
104200
104200
384200
544200
124600
105a00
10e200
100200
100200
100200
100200
000000
000000
ENDCHAR
STARTCHAR 2254
ENCODING 8788
SWIDTH 954 0
DWIDTH 18 0
BBX 18 19 0 -1
BITMAP
000000
100000
10fc00
108400
108400
7e8400
108400
108400
388400
548400
128400
108400
108400
108400
110500
120500
140700
000000
000000
ENDCHAR
STARTCHAR 2255
ENCODING 8789
SWIDTH 954 0
DWIDTH 18 0
BBX 18 19 0 -1
BITMAP
000000
008000
7fff00
008000
008000
3ffe00
208200
208200
208200
21ca00
22a600
049000
088800
108400
208200
408100
008000
000000
000000
ENDCHAR
STARTCHAR 2256
ENCODING 8790
SWIDTH 954 0
DWIDTH 18 0
BBX 18 19 0 -1
BITMAP
000000
108000
108000
108000
108100
7e8200
108c00
10f000
398000
568000
128000
108000
108000
108100
108100
108100
10ff00
000000
000000
ENDCHAR
STARTCHAR 2257
ENCODING 8791
SWIDTH 954 0
DWIDTH 18 0
BBX 18 19 0 -1
BITMAP
000000
102000
102000
102000
101000
7e9000
109000
108800
388800
550800
130800
110400
120400
120200
140200
180100
100100
000000
000000
ENDCHAR
STARTCHAR 2258
ENCODING 8792
SWIDTH 954 0
DWIDTH 18 0
BBX 18 19 0 -1
BITMAP
000000
100000
1ffe00
200000
7ffc00
000000
7ff800
000800
088800
088800
088800
088800
088800
088900
108900
208500
408300
000000
000000
ENDCHAR
STARTCHAR 2259
ENCODING 8793
SWIDTH 954 0
DWIDTH 18 0
BBX 18 19 0 -1
BITMAP
000000
038000
014000
022000
041000
090800
710700
010000
010000
7d8400
054800
053000
091000
110800
210400
450200
030000
000000
000000
ENDCHAR
STARTCHAR 225a
ENCODING 8794
SWIDTH 954 0
DWIDTH 18 0
BBX 18 19 0 -1
BITMAP
000000
400000
202000
102000
002000
002000
0fff00
420000
220000
020000
020000
020000
0a0000
120000
220000
420000
03fe00
000000
000000
ENDCHAR
STARTCHAR 225b
ENCODING 8795
SWIDTH 954 0
DWIDTH 18 0
BBX 18 19 0 -1
BITMAP
000000
43fe00
220200
120200
020200
020200
020200
43fe00
220000
020000
020000
020000
0a0000
120100
220100
420100
03ff00
000000
000000
ENDCHAR
STARTCHAR 225c
ENCODING 8796
SWIDTH 954 0
DWIDTH 18 0
BBX 18 19 0 -1
BITMAP
000000
404000
204000
104000
004000
004000
0fff00
404000
204000
004000
004000
00a000
091000
120800
240400
480200
100100
000000
000000
ENDCHAR
STARTCHAR 225d
ENCODING 8797
SWIDTH 954 0
DWIDTH 18 0
BBX 18 19 0 -1
BITMAP
000000
41fe00
200200
104200
012200
011200
010200
410200
210400
008800
005000
002000
085000
108800
210400
420200
040100
000000
000000
ENDCHAR
STARTCHAR 225e
ENCODING 8798
SWIDTH 954 0
DWIDTH 18 0
BBX 18 19 0 -1
BITMAP
000000
408000
208000
10ff00
010000
020000
000000
41fe00
200400
000800
001000
002000
084000
108100
210100
410100
01ff00
000000
000000
ENDCHAR
STARTCHAR 225f
ENCODING 8799
SWIDTH 954 0
DWIDTH 18 0
BBX 18 19 0 -1
BITMAP
000000
408000
208000
108000
00ff00
010100
020100
400100
208100
004100
002100
000100
080100
100100
201100
400a00
000400
000000
000000
ENDCHAR
STARTCHAR 2260
ENCODING 8800
SWIDTH 954 0
DWIDTH 18 0
BBX 18 19 0 -1
BITMAP
000000
400200
220200
122200
022200
022200
022200
422200
222200
022200
022200
022200
0a2200
122200
242200
480200
100200
000000
000000
ENDCHAR
STARTCHAR 2261
ENCODING 8801
SWIDTH 954 0
DWIDTH 18 0
BBX 18 19 0 -1
BITMAP
000000
100000
11ff00
102100
102100
522100
522100
542100
182100
102100
102100
102100
102100
104100
289100
450a00
020400
000000
000000
ENDCHAR
STARTCHAR 2262
ENCODING 8802
SWIDTH 954 0
DWIDTH 18 0
BBX 18 19 0 -1
BITMAP
000000
082000
082000
482000
482000
7eff00
082100
082100
082100
0a2100
0c2100
182100
684100
088100
091100
0a0a00
0c0400
000000
000000
ENDCHAR
STARTCHAR 2263
ENCODING 8803
SWIDTH 954 0
DWIDTH 18 0
BBX 18 19 0 -1
BITMAP
000000
080000
53fe00
202000
502000
082000
082000
1fff00
282000
482000
082000
082000
082000
082000
082000
502000
202000
000000
000000
ENDCHAR
STARTCHAR 2264
ENCODING 8804
SWIDTH 954 0
DWIDTH 18 0
BBX 18 19 0 -1
BITMAP
000000
088000
508000
208000
51ff00
0a0000
0c0000
18fe00
280400
480800
081000
082000
084000
088100
088100
508100
20ff00
000000
000000
ENDCHAR
STARTCHAR 2265
ENCODING 8805
SWIDTH 954 0
DWIDTH 18 0
BBX 18 19 0 -1
BITMAP
000000
01ff00
7e1000
101000
101000
101000
101000
7e1000
101000
101000
101000
141000
181000
101000
201000
405000
003000
000000
000000
ENDCHAR
STARTCHAR 2266
ENCODING 8806
SWIDTH 954 0
DWIDTH 18 0
BBX 18 19 0 -1
BITMAP
000000
020000
040000
080000
7fff00
408100
408100
408100
7fff00
408100
408100
408100
7fff00
408100
408100
408500
408300
000000
000000
ENDCHAR
STARTCHAR 2267
ENCODING 8807
SWIDTH 954 0
DWIDTH 18 0
BBX 18 19 0 -1
BITMAP
000000
084000
104000
204000
7e4000
424000
424000
424000
424000
7e4000
424000
424000
424000
424100
424100
7e4100
007f00
000000
000000
ENDCHAR
STARTCHAR 2268
ENCODING 8808
SWIDTH 954 0
DWIDTH 18 0
BBX 18 19 0 -1
BITMAP
000000
008000
008000
3fff00
444100
044200
084000
104100
607f00
000000
1ff000
002000
004000
018000
060200
180200
1ffe00
000000
000000
ENDCHAR
STARTCHAR 2269
ENCODING 8809
SWIDTH 954 0
DWIDTH 18 0
BBX 18 19 0 -1
BITMAP
000000
7fff00
400100
400100
420500
424500
622500
541900
481100
542900
624500
418300
400100
400100
400100
400500
400300
000000
000000
ENDCHAR
STARTCHAR 226a
ENCODING 8810
SWIDTH 954 0
DWIDTH 18 0
BBX 18 19 0 -1
BITMAP
000000
080800
080800
080800
494900
494900
494900
494900
494900
494900
7f7f00
080800
080800
080800
100800
200800
000800
000000
000000
ENDCHAR
STARTCHAR 226b
ENCODING 8811
SWIDTH 954 0
DWIDTH 18 0
BBX 18 19 0 -1
BITMAP
000000
081000
081000
7fff00
081000
081000
000000
7ffe00
008000
008000
008000
008000
008000
008000
048000
028000
018000
000000
000000
ENDCHAR
STARTCHAR 226c
ENCODING 8812
SWIDTH 954 0
DWIDTH 18 0
BBX 18 19 0 -1
BITMAP
000000
081000
081000
7fff00
081000
081000
000000
7ffc00
040400
040400
040400
040400
040400
080400
104400
202800
401000
000000
000000
ENDCHAR
STARTCHAR 226d
ENCODING 8813
SWIDTH 954 0
DWIDTH 18 0
BBX 18 19 0 -1
BITMAP
000000
081000
081000
7fff00
081000
081000
020000
020000
7ff000
021000
021000
021000
041000
081000
101100
201100
401f00
000000
000000
ENDCHAR
STARTCHAR 226e
ENCODING 8814
SWIDTH 954 0
DWIDTH 18 0
BBX 18 19 0 -1
BITMAP
000000
081000
081000
7fff00
081000
081000
3fe000
042000
042000
044000
047c00
040400
040400
080400
102400
201400
400800
000000
000000
ENDCHAR
STARTCHAR 226f
ENCODING 8815
SWIDTH 954 0
DWIDTH 18 0
BBX 18 19 0 -1
BITMAP
000000
008000
00f800
008000
008000
3fff00
210100
210200
21f000
3f0000
210000
21fc00
200000
200000
400000
000000
000000
000000
000000
ENDCHAR
STARTCHAR 2270
ENCODING 8816
SWIDTH 954 0
DWIDTH 18 0
BBX 18 19 0 -1
BITMAP
000000
000000
7fff00
042000
042000
042000
7ffe00
442200
442200
442200
442200
442200
47e200
400200
400200
400200
400200
000000
000000
ENDCHAR
STARTCHAR 2271
ENCODING 8817
SWIDTH 954 0
DWIDTH 18 0
BBX 18 19 0 -1
BITMAP
000000
041f00
041100
041100
7fd100
401200
401400
401200
401100
401100
401100
401900
401700
401000
401000
7fd000
001000
000000
000000
ENDCHAR
STARTCHAR 2272
ENCODING 8818
SWIDTH 954 0
DWIDTH 18 0
BBX 18 19 0 -1
BITMAP
000000
003f00
7f2100
082100
082100
082200
082400
082200
7fa100
082100
082100
083100
082f00
082000
082000
082000
082000
000000
000000
ENDCHAR
STARTCHAR 2273
ENCODING 8819
SWIDTH 954 0
DWIDTH 18 0
BBX 18 19 0 -1
BITMAP
000000
003f00
7f2100
082100
082100
082200
082400
082200
7fa100
082100
082100
083100
082f00
082000
082000
282000
182000
000000
000000
ENDCHAR
STARTCHAR 2274
ENCODING 8820
SWIDTH 954 0
DWIDTH 18 0
BBX 18 19 0 -1
BITMAP
000000
003f00
7f2100
082100
082100
082200
082400
082200
082100
082100
082100
083100
082f00
0ba000
1c2000
602000
002000
000000
000000
ENDCHAR
STARTCHAR 2275
ENCODING 8821
SWIDTH 954 0
DWIDTH 18 0
BBX 18 19 0 -1
BITMAP
000000
7f3f00
012100
012100
012100
012200
012400
7f2200
402100
402100
402100
403100
402f00
40a000
40a000
40a000
3fa000
000000
000000
ENDCHAR
STARTCHAR 2276
ENCODING 8822
SWIDTH 954 0
DWIDTH 18 0
BBX 18 19 0 -1
BITMAP
000000
7c0000
47ff00
449000
489000
509000
509000
489000
449000
449000
449000
649000
5c9000
411100
421100
441100
481f00
000000
000000
ENDCHAR
STARTCHAR 2277
ENCODING 8823
SWIDTH 954 0
DWIDTH 18 0
BBX 18 19 0 -1
BITMAP
000000
7c1000
441000
451000
491000
511f00
51f100
4f1100
451100
451000
451000
651000
5d0000
410100
410100
410100
41ff00
000000
000000
ENDCHAR
STARTCHAR 2278
ENCODING 8824
SWIDTH 954 0
DWIDTH 18 0
BBX 18 19 0 -1
BITMAP
000000
780000
4bf800
488800
508800
608800
608800
508800
4bf800
488800
488800
688800
588800
408900
408900
408900
408f00
000000
000000
ENDCHAR
STARTCHAR 2279
ENCODING 8825
SWIDTH 954 0
DWIDTH 18 0
BBX 18 19 0 -1
BITMAP
000000
7c8000
448000
44ff00
490000
520000
540000
48fc00
440800
441000
442000
644000
5c8000
410100
410100
410100
41ff00
000000
000000
ENDCHAR
STARTCHAR 227a
ENCODING 8826
SWIDTH 954 0
DWIDTH 18 0
BBX 18 19 0 -1
BITMAP
000000
044000
082200
101200
300200
508400
108400
108400
128800
128c00
128a00
149100
18a000
10c200
118200
168200
18fe00
000000
000000
ENDCHAR
STARTCHAR 227b
ENCODING 8827
SWIDTH 954 0
DWIDTH 18 0
BBX 18 19 0 -1
BITMAP
000000
100000
13fe00
102000
242100
622200
212400
20a800
202000
27ff00
202000
202000
202000
202000
202000
202000
202000
000000
000000
ENDCHAR
STARTCHAR 227c
ENCODING 8828
SWIDTH 954 0
DWIDTH 18 0
BBX 18 19 0 -1
BITMAP
000000
07ff00
0a0000
120000
320000
520000
13fe00
120200
120200
120200
120200
13fe00
120000
120000
120000
120000
13ff00
000000
000000
ENDCHAR
STARTCHAR 227d
ENCODING 8829
SWIDTH 954 0
DWIDTH 18 0
BBX 18 19 0 -1
BITMAP
000000
042000
082000
102000
33fe00
502000
102000
102000
17ff00
102000
104000
108000
110000
120800
140400
1ffe00
100100
000000
000000
ENDCHAR
STARTCHAR 227e
ENCODING 8830
SWIDTH 954 0
DWIDTH 18 0
BBX 18 19 0 -1
BITMAP
000000
042000
082000
102000
302000
57ff00
102000
102000
107000
10a800
112400
122200
142100
11fc00
102000
102000
102000
000000
000000
ENDCHAR
STARTCHAR 2321
ENCODING 8993
SWIDTH 954 0
DWIDTH 18 0
BBX 18 19 0 -1
BITMAP
000000
040000
0bfe00
108000
308000
50f800
108800
108800
108800
10c800
10a800
109800
108800
108800
10a900
10c900
118f00
000000
000000
ENDCHAR
STARTCHAR 2322
ENCODING 8994
SWIDTH 954 0
DWIDTH 18 0
BBX 18 19 0 -1
BITMAP
000000
040000
0bff00
101000
302000
506000
10b000
112800
122400
142200
182100
102000
102000
102000
102000
102000
17ff00
000000
000000
ENDCHAR
STARTCHAR 2323
ENCODING 8995
SWIDTH 954 0
DWIDTH 18 0
BBX 18 19 0 -1
BITMAP
000000
044000
084000
107c00
304000
504000
104000
1fff00
106000
105000
104800
104400
104000
104000
104000
104000
104000
000000
000000
ENDCHAR
STARTCHAR 2324
ENCODING 8996
SWIDTH 954 0
DWIDTH 18 0
BBX 18 19 0 -1
BITMAP
000000
042000
082000
102000
33fe00
522200
122200
122200
122200
1fff00
104000
104000
109000
110800
120400
140200
180100
000000
000000
ENDCHAR
STARTCHAR 2325
ENCODING 8997
SWIDTH 954 0
DWIDTH 18 0
BBX 18 19 0 -1
BITMAP
000000
048000
088000
10fe00
310200
530400
148800
107000
106000
109000
110800
124400
142200
181100
108000
104000
102000
000000
000000
ENDCHAR
STARTCHAR 2326
ENCODING 8998
SWIDTH 954 0
DWIDTH 18 0
BBX 18 19 0 -1
BITMAP
000000
042000
084000
108000
310800
520400
141e00
17e100
100000
100000
13fe00
120200
120200
120200
120200
120200
13fe00
000000
000000
ENDCHAR
STARTCHAR 2327
ENCODING 8999
SWIDTH 954 0
DWIDTH 18 0
BBX 18 19 0 -1
BITMAP
000000
018000
024000
042000
081000
100800
2ff400
400300
000000
7ffe00
008000
089000
108800
208400
408200
028100
018000
000000
000000
ENDCHAR
STARTCHAR 2328
ENCODING 9000
SWIDTH 954 0
DWIDTH 18 0
BBX 18 19 0 -1
BITMAP
000000
042000
082000
17ff00
302000
504000
108200
110400
108800
105000
102000
104000
108000
110800
120400
141e00
17e100
000000
000000
ENDCHAR
STARTCHAR 2329
ENCODING 9001
SWIDTH 954 0
DWIDTH 18 0
BBX 18 19 0 -1
BITMAP
000000
060000
0a4400
124400
324400
524400
1fff00
124400
124400
124400
124400
124400
127c00
120000
120000
120000
13ff00
000000
000000
ENDCHAR
STARTCHAR 232a
ENCODING 9002
SWIDTH 954 0
DWIDTH 18 0
BBX 18 19 0 -1
BITMAP
000000
040000
0bfe00
120200
320200
520200
120200
120200
120200
120200
13fe00
100000
109000
110800
120400
140200
180100
000000
000000
ENDCHAR
STARTCHAR 232b
ENCODING 9003
SWIDTH 954 0
DWIDTH 18 0
BBX 18 19 0 -1
BITMAP
000000
046000
089000
110800
320400
540200
182100
102000
102000
122200
122200
122200
122200
122200
122200
122200
13fe00
000000
000000
ENDCHAR
STARTCHAR 232c
ENCODING 9004
SWIDTH 954 0
DWIDTH 18 0
BBX 18 19 0 -1
BITMAP
000000
000000
7ffe00
424200
424200
444a00
487a00
500200
400200
47e200
442200
442200
442200
47e200
400200
400a00
400600
000000
000000
ENDCHAR
STARTCHAR 232d
ENCODING 9005
SWIDTH 954 0
DWIDTH 18 0
BBX 18 19 0 -1
BITMAP
000000
008000
008800
408400
208200
0fff00
008000
008200
00c200
014200
014400
122800
121000
242800
444400
088200
0b0100
000000
000000
ENDCHAR
STARTCHAR 232e
ENCODING 9006
SWIDTH 954 0
DWIDTH 18 0
BBX 18 19 0 -1
BITMAP
000000
090100
090100
7fc900
094900
094900
7fc900
490900
490900
7fe900
092900
092900
09a900
116100
210100
410500
010300
000000
000000
ENDCHAR
STARTCHAR 232f
ENCODING 9007
SWIDTH 954 0
DWIDTH 18 0
BBX 18 19 0 -1
BITMAP
000000
3f0100
210100
211100
211100
211100
3f1100
211100
211100
211100
211100
3f1100
211100
210100
210100
210500
7fc300
000000
000000
ENDCHAR
STARTCHAR 2330
ENCODING 9008
SWIDTH 954 0
DWIDTH 18 0
BBX 18 19 0 -1
BITMAP
000000
7f8100
408100
409100
409100
7f9100
441100
441100
441100
7f9100
441100
441100
441100
424100
414100
48c500
704300
000000
000000
ENDCHAR
STARTCHAR 2331
ENCODING 9009
SWIDTH 954 0
DWIDTH 18 0
BBX 18 19 0 -1
BITMAP
000000
001000
7f1000
111000
111000
117f00
211100
451100
031100
001100
7e1100
421100
421100
421100
422100
424500
7e8300
000000
000000
ENDCHAR
STARTCHAR 2332
ENCODING 9010
SWIDTH 954 0
DWIDTH 18 0
BBX 18 19 0 -1
BITMAP
000000
081000
281000
281000
3e1000
48ff00
081100
081100
081100
7f1100
081100
082100
082100
142100
224100
408a00
010400
000000
000000
ENDCHAR
STARTCHAR 2333
ENCODING 9011
SWIDTH 954 0
DWIDTH 18 0
BBX 18 19 0 -1
BITMAP
000000
080000
080000
080000
1fff00
200100
4fe100
010100
092100
054100
038100
3ff100
010100
010100
011100
010a00
010400
000000
000000
ENDCHAR
STARTCHAR 2334
ENCODING 9012
SWIDTH 954 0
DWIDTH 18 0
BBX 18 19 0 -1
BITMAP
000000
020000
03f800
020000
020000
7ffe00
400200
400200
400200
7fe200
402200
402200
7fe200
400200
400200
400200
7ffe00
000000
000000
ENDCHAR
STARTCHAR 2335
ENCODING 9013
SWIDTH 954 0
DWIDTH 18 0
BBX 18 19 0 -1
BITMAP
000000
7f3f00
112100
112100
112100
112100
212100
4a2100
042100
002100
7f2900
412700
412000
412000
412000
412000
7f2000
000000
000000
ENDCHAR
STARTCHAR 2336
ENCODING 9014
SWIDTH 954 0
DWIDTH 18 0
BBX 18 19 0 -1
BITMAP
000000
3fff00
200000
203800
2fc000
284000
284000
284000
2fff00
284000
284000
284000
292000
2e1100
580900
000500
0fe300
000000
000000
ENDCHAR
STARTCHAR 2337
ENCODING 9015
SWIDTH 954 0
DWIDTH 18 0
BBX 18 19 0 -1
BITMAP
000000
3fff00
220000
220000
220000
23ff00
248000
288000
30fe00
208000
208000
20fe00
208000
208000
408000
008000
008000
000000
000000
ENDCHAR
STARTCHAR 2338
ENCODING 9016
SWIDTH 954 0
DWIDTH 18 0
BBX 18 19 0 -1
BITMAP
000000
004000
004000
784000
484000
4fff00
484000
484000
488000
489000
491000
7a2000
044000
088800
110400
223e00
03c100
000000
000000
ENDCHAR
STARTCHAR 2339
ENCODING 9017
SWIDTH 954 0
DWIDTH 18 0
BBX 18 19 0 -1
BITMAP
000000
004000
004000
784000
4bfc00
484400
484400
484400
484400
4fff00
484000
484000
48a000
791000
020800
040400
080300
000000
000000
ENDCHAR
STARTCHAR 233a
ENCODING 9018
SWIDTH 954 0
DWIDTH 18 0
BBX 18 19 0 -1
BITMAP
000000
00a000
00a000
792000
4b2000
4d2000
492000
493e00
492000
492000
492000
492000
492000
792100
012100
012100
013f00
000000
000000
ENDCHAR
STARTCHAR 233b
ENCODING 9019
SWIDTH 954 0
DWIDTH 18 0
BBX 18 19 0 -1
BITMAP
000000
002000
002000
782000
482000
4fff00
482000
482000
482000
485000
485000
488800
488800
794400
012400
021200
040100
000000
000000
ENDCHAR
STARTCHAR 233c
ENCODING 9020
SWIDTH 954 0
DWIDTH 18 0
BBX 18 19 0 -1
BITMAP
000000
002000
002000
782000
4fff00
490400
490400
490400
490400
488800
485000
482000
485000
788800
010400
020200
040100
000000
000000
ENDCHAR
STARTCHAR 233d
ENCODING 9021
SWIDTH 954 0
DWIDTH 18 0
BBX 18 19 0 -1
BITMAP
000000
002000
002000
782100
492100
492200
492400
4a2800
4c5000
485000
488800
488800
488800
790400
010400
020200
040100
000000
000000
ENDCHAR
STARTCHAR 233e
ENCODING 9022
SWIDTH 954 0
DWIDTH 18 0
BBX 18 19 0 -1
BITMAP
000000
07fe00
008200
788200
488200
488200
488200
488200
4fff00
490200
490200
490200
490200
790200
010200
010200
07ff00
000000
000000
ENDCHAR
STARTCHAR 233f
ENCODING 9023
SWIDTH 954 0
DWIDTH 18 0
BBX 18 19 0 -1
BITMAP
000000
07ff00
001000
782000
487000
48a800
492400
4a2200
4c2100
482000
482000
482000
482000
782000
002000
002000
002000
000000
000000
ENDCHAR
STARTCHAR 2340
ENCODING 9024
SWIDTH 954 0
DWIDTH 18 0
BBX 18 19 0 -1
BITMAP
000000
008000
008000
788000
48ff00
491000
4a1000
4c1000
481000
481000
4bff00
481000
481000
781000
001000
001000
001000
000000
000000
ENDCHAR
STARTCHAR 2341
ENCODING 9025
SWIDTH 954 0
DWIDTH 18 0
BBX 18 19 0 -1
BITMAP
000000
001000
009000
789000
489000
48fe00
489000
491000
4a1000
481000
481000
4bff00
481000
481000
781000
001000
001000
000000
000000
ENDCHAR
STARTCHAR 2342
ENCODING 9026
SWIDTH 954 0
DWIDTH 18 0
BBX 18 19 0 -1
BITMAP
000000
006800
008800
7b8800
488800
488800
488800
488800
4fff00
488800
488800
488800
488800
790800
020800
040800
080800
000000
000000
ENDCHAR
STARTCHAR 2343
ENCODING 9027
SWIDTH 954 0
DWIDTH 18 0
BBX 18 19 0 -1
BITMAP
000000
004000
004000
784000
48ff00
490100
4a0100
4c7900
480100
480100
480100
48fd00
480100
780100
001100
000a00
000400
000000
000000
ENDCHAR
STARTCHAR 2344
ENCODING 9028
SWIDTH 954 0
DWIDTH 18 0
BBX 18 19 0 -1
BITMAP
000000
002000
002000
7fff00
482000
482000
4a2200
4a2200
4a2200
4a2200
4bfe00
482000
482000
782000
002100
002100
003f00
000000
000000
ENDCHAR
STARTCHAR 2345
ENCODING 9029
SWIDTH 954 0
DWIDTH 18 0
BBX 18 19 0 -1
BITMAP
000000
002000
002000
785000
488800
490400
4a0200
4c8900
488800
488800
488800
488800
488800
788800
010800
020800
040800
000000
000000
ENDCHAR
STARTCHAR 2346
ENCODING 9030
SWIDTH 954 0
DWIDTH 18 0
BBX 18 19 0 -1
BITMAP
000000
008000
008400
7cc800
04b000
049000
088800
108400
228200
418100
1ff800
100800
100800
100800
100800
100800
1ff800
000000
000000
ENDCHAR
STARTCHAR 2347
ENCODING 9031
SWIDTH 954 0
DWIDTH 18 0
BBX 18 19 0 -1
BITMAP
000000
000000
7ffe00
400200
428200
448a00
489200
58a200
68c200
488200
498200
4a8200
488a00
488a00
48fa00
400200
7ffe00
000000
000000
ENDCHAR
STARTCHAR 2348
ENCODING 9032
SWIDTH 954 0
DWIDTH 18 0
BBX 18 19 0 -1
BITMAP
000000
7fff00
444100
444100
444100
444100
484100
707f00
400100
400100
4ff100
481100
481100
481100
481100
481100
7fff00
000000
000000
ENDCHAR
STARTCHAR 2349
ENCODING 9033
SWIDTH 954 0
DWIDTH 18 0
BBX 18 19 0 -1
BITMAP
000000
7fff00
410100
408100
7ffd00
400100
47e100
442100
442100
442100
442100
442100
482500
502500
603d00
400100
7fff00
000000
000000
ENDCHAR
STARTCHAR 234a
ENCODING 9034
SWIDTH 954 0
DWIDTH 18 0
BBX 18 19 0 -1
BITMAP
000000
100e00
11f000
111000
111000
7f1000
111000
11ff00
111000
131000
151000
191000
111000
210900
412500
01c300
030100
000000
000000
ENDCHAR
STARTCHAR 234b
ENCODING 9035
SWIDTH 954 0
DWIDTH 18 0
BBX 18 19 0 -1
BITMAP
000000
102000
102000
105000
108800
7d0400
120200
14f900
100000
100000
15fc00
180400
100800
201000
402000
004000
008000
000000
000000
ENDCHAR
STARTCHAR 234c
ENCODING 9036
SWIDTH 954 0
DWIDTH 18 0
BBX 18 19 0 -1
BITMAP
000000
042000
081000
100800
200400
5ffa00
020900
040800
080800
703800
008000
008000
1ffc00
008000
008000
008000
7fff00
000000
000000
ENDCHAR
STARTCHAR 234d
ENCODING 9037
SWIDTH 954 0
DWIDTH 18 0
BBX 18 19 0 -1
BITMAP
000000
202000
202000
27ff00
202000
782000
222200
222200
222200
222200
27fe00
282000
302000
202000
402100
002100
003f00
000000
000000
ENDCHAR
STARTCHAR 234e
ENCODING 9038
SWIDTH 954 0
DWIDTH 18 0
BBX 18 19 0 -1
BITMAP
000000
102000
102000
105000
10c800
7d0400
120200
140100
13fe00
108200
148200
188200
108200
208200
410200
021400
040800
000000
000000
ENDCHAR
STARTCHAR 234f
ENCODING 9039
SWIDTH 954 0
DWIDTH 18 0
BBX 18 19 0 -1
BITMAP
000000
404000
404300
404c00
7f7000
404000
404100
404100
3f3f00
008000
008000
3ffc00
008000
008000
008000
008000
7fff00
000000
000000
ENDCHAR
STARTCHAR 2350
ENCODING 9040
SWIDTH 954 0
DWIDTH 18 0
BBX 18 19 0 -1
BITMAP
000000
080000
0ffc00
180800
263000
41c000
034000
1cb000
608f00
1ff800
008000
1ff800
008000
7ffe00
008000
008000
008000
000000
000000
ENDCHAR
STARTCHAR 2351
ENCODING 9041
SWIDTH 954 0
DWIDTH 18 0
BBX 18 19 0 -1
BITMAP
000000
7fff00
004000
008000
010000
034000
053000
090c00
710200
010000
010000
7fff00
028000
044000
082000
101000
600f00
000000
000000
ENDCHAR
STARTCHAR 2352
ENCODING 9042
SWIDTH 954 0
DWIDTH 18 0
BBX 18 19 0 -1
BITMAP
000000
201000
201600
201800
20f000
7e1000
221000
22fe00
221000
221000
221000
15ff00
081000
141000
221000
401000
001000
000000
000000
ENDCHAR
STARTCHAR 2353
ENCODING 9043
SWIDTH 954 0
DWIDTH 18 0
BBX 18 19 0 -1
BITMAP
000000
200000
200000
20fe00
200000
7e0000
240000
25ff00
242000
242000
242000
144000
084400
148400
228e00
41f100
000000
000000
000000
ENDCHAR
STARTCHAR 2354
ENCODING 9044
SWIDTH 954 0
DWIDTH 18 0
BBX 18 19 0 -1
BITMAP
000000
201000
201000
201000
201000
7dff00
251100
251100
251100
252900
254500
158300
090100
150100
230100
410500
010300
000000
000000
ENDCHAR
STARTCHAR 2355
ENCODING 9045
SWIDTH 954 0
DWIDTH 18 0
BBX 18 19 0 -1
BITMAP
000000
202000
202000
205000
208800
7d0400
260200
24f900
240000
240000
25fc00
240400
280800
101000
282000
444000
008000
000000
000000
ENDCHAR
STARTCHAR 2356
ENCODING 9046
SWIDTH 954 0
DWIDTH 18 0
BBX 18 19 0 -1
BITMAP
000000
202000
205000
208800
210400
7a0200
2c4900
284800
284800
284800
284800
284800
284800
104800
288800
410800
020800
000000
000000
ENDCHAR
STARTCHAR 2357
ENCODING 9047
SWIDTH 954 0
DWIDTH 18 0
BBX 18 19 0 -1
BITMAP
000000
202000
205000
208800
210400
7e0300
280000
2bfc00
284400
284400
284400
284400
284400
108400
290400
420400
041c00
000000
000000
ENDCHAR
STARTCHAR 2358
ENCODING 9048
SWIDTH 954 0
DWIDTH 18 0
BBX 18 19 0 -1
BITMAP
000000
200800
208800
208800
208800
788400
290200
2a0100
284000
284000
284000
284000
288000
110400
2a0200
43ff00
000000
000000
000000
ENDCHAR
STARTCHAR 2359
ENCODING 9049
SWIDTH 954 0
DWIDTH 18 0
BBX 18 19 0 -1
BITMAP
000000
202000
202000
202000
23fe00
780400
290400
290400
290400
290400
288800
285000
283000
104800
288400
410200
020100
000000
000000
ENDCHAR
STARTCHAR 235a
ENCODING 9050
SWIDTH 954 0
DWIDTH 18 0
BBX 18 19 0 -1
BITMAP
000000
200000
200000
20fc00
200000
780000
280000
2bff00
284800
284800
284800
284800
284800
108800
288900
410900
060f00
000000
000000
ENDCHAR
STARTCHAR 235b
ENCODING 9051
SWIDTH 954 0
DWIDTH 18 0
BBX 18 19 0 -1
BITMAP
000000
201000
202000
204000
208000
7cff00
248800
248800
248800
248800
248800
248800
148800
088800
148800
208800
010800
000000
000000
ENDCHAR
STARTCHAR 235c
ENCODING 9052
SWIDTH 954 0
DWIDTH 18 0
BBX 18 19 0 -1
BITMAP
000000
010000
010000
7fff00
400100
401900
3fe000
010000
010000
7ffe00
010000
028000
044000
082000
101000
200800
400600
000000
000000
ENDCHAR
STARTCHAR 235d
ENCODING 9053
SWIDTH 954 0
DWIDTH 18 0
BBX 18 19 0 -1
BITMAP
000000
008000
008000
7fff00
400100
407100
3f8000
010000
010000
7ffc00
010000
010000
7ffe00
010000
010000
010100
01ff00
000000
000000
ENDCHAR
STARTCHAR 235e
ENCODING 9054
SWIDTH 954 0
DWIDTH 18 0
BBX 18 19 0 -1
BITMAP
000000
048000
044000
040400
7fc800
041000
042200
044400
0a0800
0a1100
0a6200
0a0400
0a0800
121000
226100
420100
03ff00
000000
000000
ENDCHAR
STARTCHAR 235f
ENCODING 9055
SWIDTH 954 0
DWIDTH 18 0
BBX 18 19 0 -1
BITMAP
000000
100000
107f00
100800
7f8800
100800
100800
147f00
140800
140800
140800
240800
240800
447f00
440000
040100
07ff00
000000
000000
ENDCHAR
STARTCHAR 2360
ENCODING 9056
SWIDTH 954 0
DWIDTH 18 0
BBX 18 19 0 -1
BITMAP
000000
100000
10ff00
102400
102400
102400
522400
522400
53ff00
522400
522400
522400
522400
7e4400
008400
010400
020400
000000
000000
ENDCHAR
STARTCHAR 2361
ENCODING 9057
SWIDTH 954 0
DWIDTH 18 0
BBX 18 19 0 -1
BITMAP
000000
100000
10fe00
100000
100000
100000
520000
53ff00
524800
524800
524800
524800
524800
7e8800
008900
010900
060f00
000000
000000
ENDCHAR
STARTCHAR 2362
ENCODING 9058
SWIDTH 954 0
DWIDTH 18 0
BBX 18 19 0 -1
BITMAP
000000
083f00
080400
082400
082400
082400
492400
494400
497f00
490c00
491400
492400
492400
7f2400
00c400
000400
001c00
000000
000000
ENDCHAR
STARTCHAR 2363
ENCODING 9059
SWIDTH 954 0
DWIDTH 18 0
BBX 18 19 0 -1
BITMAP
000000
10fe00
104200
104200
104200
104400
524800
524f00
524100
524100
526100
526100
529200
7e8c00
011200
032100
04c100
000000
000000
ENDCHAR
STARTCHAR 2364
ENCODING 9060
SWIDTH 954 0
DWIDTH 18 0
BBX 18 19 0 -1
BITMAP
000000
108000
108000
110000
13ff00
144900
524900
524900
524900
524900
528900
530900
521100
7e2100
004100
008200
010c00
000000
000000
ENDCHAR
STARTCHAR 2365
ENCODING 9061
SWIDTH 954 0
DWIDTH 18 0
BBX 18 19 0 -1
BITMAP
000000
101000
102800
104400
108200
110100
527c00
520000
520000
53fe00
520200
520200
520400
7e0800
001000
002000
004000
000000
000000
ENDCHAR
STARTCHAR 2366
ENCODING 9062
SWIDTH 954 0
DWIDTH 18 0
BBX 18 19 0 -1
BITMAP
000000
3ff800
210800
210800
3ff800
200000
200000
200000
200200
3ffe00
000000
010000
010000
410400
410400
410400
7ffc00
000000
000000
ENDCHAR
STARTCHAR 2367
ENCODING 9063
SWIDTH 954 0
DWIDTH 18 0
BBX 18 19 0 -1
BITMAP
000000
100100
100200
11fc00
101000
101000
521000
521000
53ff00
522000
524800
524800
528400
7e8400
010200
010200
060100
000000
000000
ENDCHAR
STARTCHAR 2368
ENCODING 9064
SWIDTH 954 0
DWIDTH 18 0
BBX 18 19 0 -1
BITMAP
000000
100300
10fc00
108000
108000
108000
52ff00
528800
528800
528800
528800
528800
528800
7e8800
010800
020800
040800
000000
000000
ENDCHAR
STARTCHAR 2369
ENCODING 9065
SWIDTH 954 0
DWIDTH 18 0
BBX 18 19 0 -1
BITMAP
000000
008000
208200
208200
3ffe00
018000
024000
042000
081000
144800
644700
044000
044000
044000
084000
104000
204000
000000
000000
ENDCHAR
STARTCHAR 236a
ENCODING 9066
SWIDTH 954 0
DWIDTH 18 0
BBX 18 19 0 -1
BITMAP
000000
7ffc00
000000
088800
111000
222000
444000
222000
111000
088800
044800
000000
3ffc00
008000
008000
008000
7ffe00
000000
000000
ENDCHAR
STARTCHAR 236b
ENCODING 9067
SWIDTH 954 0
DWIDTH 18 0
BBX 18 19 0 -1
BITMAP
000000
100000
10fe00
109200
7e9200
529200
529200
529200
52fe00
528000
528000
568000
108000
108000
108100
108100
10ff00
000000
000000
ENDCHAR
STARTCHAR 236c
ENCODING 9068
SWIDTH 954 0
DWIDTH 18 0
BBX 18 19 0 -1
BITMAP
000000
101000
101000
101000
7fff00
531100
531100
521000
522800
522800
522800
564800
104800
104800
108900
108900
130f00
000000
000000
ENDCHAR
STARTCHAR 236d
ENCODING 9069
SWIDTH 954 0
DWIDTH 18 0
BBX 18 19 0 -1
BITMAP
000000
008000
3fff00
208000
208000
2ffc00
208000
208000
3ffc00
300800
281000
242000
224000
418000
422000
041000
180e00
000000
000000
ENDCHAR
STARTCHAR 236e
ENCODING 9070
SWIDTH 954 0
DWIDTH 18 0
BBX 18 19 0 -1
BITMAP
000000
008000
3ffe00
200000
208000
208000
3ffc00
208000
208000
288800
288800
288800
2ff800
408000
408000
008100
00ff00
000000
000000
ENDCHAR
STARTCHAR 236f
ENCODING 9071
SWIDTH 954 0
DWIDTH 18 0
BBX 18 19 0 -1
BITMAP
000000
008000
008000
3fff00
200000
27fc00
242000
242000
282000
2ffe00
20a000
20a000
212000
422000
442000
182000
006000
000000
000000
ENDCHAR
STARTCHAR 2370
ENCODING 9072
SWIDTH 954 0
DWIDTH 18 0
BBX 18 19 0 -1
BITMAP
000000
008000
3fff00
200000
206000
209000
210800
220400
2cfb00
200000
23fe00
200200
200400
200800
201000
402000
004000
000000
000000
ENDCHAR
STARTCHAR 2371
ENCODING 9073
SWIDTH 954 0
DWIDTH 18 0
BBX 18 19 0 -1
BITMAP
000000
008000
3ffe00
200000
203800
2fc000
280000
280000
2ffc00
284000
284000
284000
284000
484000
504000
104000
204000
000000
000000
ENDCHAR
STARTCHAR 2372
ENCODING 9074
SWIDTH 954 0
DWIDTH 18 0
BBX 18 19 0 -1
BITMAP
000000
042000
081000
100800
200400
5ffb00
010800
010800
020800
1c3800
041000
041000
7fff00
041000
041000
081000
101000
000000
000000
ENDCHAR
STARTCHAR 2373
ENCODING 9075
SWIDTH 954 0
DWIDTH 18 0
BBX 18 19 0 -1
BITMAP
000000
7efe00
029200
029200
029200
7e9200
409200
40fe00
008000
7e8000
028000
028000
028000
028100
028100
028100
1eff00
000000
000000
ENDCHAR
STARTCHAR 2374
ENCODING 9076
SWIDTH 954 0
DWIDTH 18 0
BBX 18 19 0 -1
BITMAP
000000
101000
205000
405000
088800
108800
310400
560300
102000
102000
104000
104000
108000
108400
110200
13ff00
100000
000000
000000
ENDCHAR
STARTCHAR 2375
ENCODING 9077
SWIDTH 954 0
DWIDTH 18 0
BBX 18 19 0 -1
BITMAP
000000
11fc00
208400
408400
088800
109000
30be00
508200
108200
108200
10c200
10a400
109800
111800
122400
144200
198100
000000
000000
ENDCHAR
STARTCHAR 2376
ENCODING 9078
SWIDTH 954 0
DWIDTH 18 0
BBX 18 19 0 -1
BITMAP
000000
004800
004400
004200
004000
7fff00
004000
004000
004000
104000
552000
54a000
549000
101100
104900
1fc500
000300
000000
000000
ENDCHAR
STARTCHAR 2377
ENCODING 9079
SWIDTH 954 0
DWIDTH 18 0
BBX 18 19 0 -1
BITMAP
000000
7fff00
010000
018000
014000
012000
010000
010000
010000
000000
080000
490400
488200
484100
080800
080400
0ffc00
000000
000000
ENDCHAR
STARTCHAR 2378
ENCODING 9080
SWIDTH 954 0
DWIDTH 18 0
BBX 18 19 0 -1
BITMAP
000000
010000
010000
01f000
010000
010000
010000
7ffe00
000000
000000
080000
490000
488400
484200
080900
080400
0ffc00
000000
000000
ENDCHAR
STARTCHAR 2379
ENCODING 9081
SWIDTH 954 0
DWIDTH 18 0
BBX 18 19 0 -1
BITMAP
000000
108000
104000
102000
500000
53ff00
542000
542800
542400
102200
102000
102000
102000
102000
102000
102000
102000
000000
000000
ENDCHAR
STARTCHAR 237a
ENCODING 9082
SWIDTH 954 0
DWIDTH 18 0
BBX 18 19 0 -1
BITMAP
000000
100000
10fe00
100000
500000
540000
540000
57ff00
104800
104800
104800
104800
108800
108800
110900
120900
140f00
000000
000000
ENDCHAR
STARTCHAR 237b
ENCODING 9083
SWIDTH 954 0
DWIDTH 18 0
BBX 18 19 0 -1
BITMAP
000000
102000
102000
102000
53fe00
542000
542000
542000
51fc00
110400
108800
105000
102000
105000
108800
110400
160300
000000
000000
ENDCHAR
STARTCHAR 237c
ENCODING 9084
SWIDTH 954 0
DWIDTH 18 0
BBX 18 19 0 -1
BITMAP
000000
102000
102000
102000
53fe00
542000
542000
552400
112400
112400
112400
11fc00
102000
102000
102100
102100
103f00
000000
000000
ENDCHAR
STARTCHAR 237d
ENCODING 9085
SWIDTH 954 0
DWIDTH 18 0
BBX 18 19 0 -1
BITMAP
000000
101000
101000
101000
51ff00
551100
551100
551100
111100
111100
11ff00
101000
101000
101000
101000
101000
101000
000000
000000
ENDCHAR
STARTCHAR 237e
ENCODING 9086
SWIDTH 954 0
DWIDTH 18 0
BBX 18 19 0 -1
BITMAP
000000
104000
104000
104000
107f00
549000
551000
541000
541000
101000
11ff00
101000
101000
101000
101000
101000
101000
000000
000000
ENDCHAR
STARTCHAR 2421
ENCODING 9249
SWIDTH 954 0
DWIDTH 18 0
BBX 18 19 0 -1
BITMAP
000000
13fc00
110400
110800
511000
552000
553e00
550200
110200
10c200
118200
124400
122800
141000
142800
184400
1b8300
000000
000000
ENDCHAR
STARTCHAR 2422
ENCODING 9250
SWIDTH 954 0
DWIDTH 18 0
BBX 18 19 0 -1
BITMAP
000000
104000
104000
104000
50ff00
551100
561100
541200
101400
101000
101000
102800
104400
108200
110100
120100
120100
000000
000000
ENDCHAR
STARTCHAR 2423
ENCODING 9251
SWIDTH 954 0
DWIDTH 18 0
BBX 18 19 0 -1
BITMAP
000000
100600
11f800
111000
511000
551000
551000
55ff00
111000
111000
111000
111000
111000
113100
114900
178500
100300
000000
000000
ENDCHAR
STARTCHAR 2424
ENCODING 9252
SWIDTH 954 0
DWIDTH 18 0
BBX 18 19 0 -1
BITMAP
000000
100000
110100
110100
510100
558300
554500
552900
112900
111100
112900
112900
114500
118300
110100
110100
11ff00
000000
000000
ENDCHAR
STARTCHAR 2425
ENCODING 9253
SWIDTH 954 0
DWIDTH 18 0
BBX 18 19 0 -1
BITMAP
000000
100200
100400
10f800
108000
548000
548000
54ff00
548800
108800
108800
108800
108800
108800
110800
120800
100800
000000
000000
ENDCHAR
STARTCHAR 2426
ENCODING 9254
SWIDTH 954 0
DWIDTH 18 0
BBX 18 19 0 -1
BITMAP
000000
100000
13ff00
102000
502000
542000
544000
548800
112400
162200
102100
102100
102000
102000
102000
102000
102000
000000
000000
ENDCHAR
STARTCHAR 2427
ENCODING 9255
SWIDTH 954 0
DWIDTH 18 0
BBX 18 19 0 -1
BITMAP
000000
101000
102800
104400
508200
550100
567c00
540000
500000
11fe00
100200
100400
100800
101000
101000
101000
101000
000000
000000
ENDCHAR
STARTCHAR 2428
ENCODING 9256
SWIDTH 954 0
DWIDTH 18 0
BBX 18 19 0 -1
BITMAP
000000
030000
0c7e00
304200
3f4200
214200
214200
217e00
214000
3f4000
204000
204000
204000
404100
404100
404100
007f00
000000
000000
ENDCHAR
STARTCHAR 2429
ENCODING 9257
SWIDTH 954 0
DWIDTH 18 0
BBX 18 19 0 -1
BITMAP
000000
104000
102000
102000
13ff00
7c2000
102000
183000
102800
302400
502400
102000
102000
102000
102000
502000
302000
000000
000000
ENDCHAR
STARTCHAR 242a
ENCODING 9258
SWIDTH 954 0
DWIDTH 18 0
BBX 18 19 0 -1
BITMAP
000000
102000
102000
102000
13ff00
7e2100
122100
182000
102000
305000
505000
105000
109000
111100
121100
541100
381f00
000000
000000
ENDCHAR
STARTCHAR 242b
ENCODING 9259
SWIDTH 954 0
DWIDTH 18 0
BBX 18 19 0 -1
BITMAP
000000
100000
10fe00
100000
100000
7c0000
100000
1bff00
104000
304000
504000
108000
108000
110400
120200
53ff00
300000
000000
000000
ENDCHAR
STARTCHAR 242c
ENCODING 9260
SWIDTH 954 0
DWIDTH 18 0
BBX 18 19 0 -1
BITMAP
000000
100000
10fc00
100000
100000
7c0000
13ff00
189000
109000
309000
509000
109000
109000
111000
111100
521100
341f00
000000
000000
ENDCHAR
STARTCHAR 242d
ENCODING 9261
SWIDTH 954 0
DWIDTH 18 0
BBX 18 19 0 -1
BITMAP
000000
100000
13ff00
100400
100800
7e1000
102000
146000
18a800
112400
322200
542100
102000
102000
102000
502000
302000
000000
000000
ENDCHAR
STARTCHAR 242e
ENCODING 9262
SWIDTH 954 0
DWIDTH 18 0
BBX 18 19 0 -1
BITMAP
000000
100000
10ff00
108100
7e8100
108100
148100
188100
108100
30ff00
508100
108100
108100
108100
108100
508100
30ff00
000000
000000
ENDCHAR
STARTCHAR 242f
ENCODING 9263
SWIDTH 954 0
DWIDTH 18 0
BBX 18 19 0 -1
BITMAP
000000
100000
13fe00
108200
108400
7c8800
109000
14bf00
188100
108100
30c100
50a200
109400
110800
121400
542200
304100
000000
000000
ENDCHAR
STARTCHAR 2430
ENCODING 9264
SWIDTH 954 0
DWIDTH 18 0
BBX 18 19 0 -1
BITMAP
000000
108000
108000
108000
11fe00
7e2200
102200
182000
102000
305000
505000
108800
108800
110400
110400
520200
340100
000000
000000
ENDCHAR
STARTCHAR 2431
ENCODING 9265
SWIDTH 954 0
DWIDTH 18 0
BBX 18 19 0 -1
BITMAP
000000
100700
11f800
111000
111000
7d1000
111000
19fe00
111000
311000
511000
111000
111000
111100
114900
518500
370300
000000
000000
ENDCHAR
STARTCHAR 2432
ENCODING 9266
SWIDTH 954 0
DWIDTH 18 0
BBX 18 19 0 -1
BITMAP
000000
102000
102c00
102200
102200
7fff00
102000
182000
103000
305000
505000
105000
109000
109000
111100
511100
361f00
000000
000000
ENDCHAR
STARTCHAR 2433
ENCODING 9267
SWIDTH 954 0
DWIDTH 18 0
BBX 18 19 0 -1
BITMAP
000000
102000
102000
104000
108000
7d0200
13ff00
184800
104800
304800
504800
104800
104800
108800
108900
510900
360f00
000000
000000
ENDCHAR
STARTCHAR 2434
ENCODING 9268
SWIDTH 954 0
DWIDTH 18 0
BBX 18 19 0 -1
BITMAP
000000
100000
11fe00
110200
110200
7d0200
11fe00
190200
110200
310200
51fe00
110200
110200
110200
120200
520200
340e00
000000
000000
ENDCHAR
STARTCHAR 2435
ENCODING 9269
SWIDTH 954 0
DWIDTH 18 0
BBX 18 19 0 -1
BITMAP
000000
100000
100e00
11f000
102000
7c2000
102000
1bff00
102000
302000
505000
105000
108800
108800
110400
520200
340100
000000
000000
ENDCHAR
STARTCHAR 2436
ENCODING 9270
SWIDTH 954 0
DWIDTH 18 0
BBX 18 19 0 -1
BITMAP
000000
102000
102000
102000
13fe00
7c2000
102000
1a2200
122200
322200
522200
13fe00
102000
102000
102100
502100
303f00
000000
000000
ENDCHAR
STARTCHAR 2437
ENCODING 9271
SWIDTH 954 0
DWIDTH 18 0
BBX 18 19 0 -1
BITMAP
000000
102000
102000
105000
108800
7d0400
120300
18f800
100000
300000
51fe00
100200
100400
100800
101000
502000
302000
000000
000000
ENDCHAR
STARTCHAR 2438
ENCODING 9272
SWIDTH 954 0
DWIDTH 18 0
BBX 18 19 0 -1
BITMAP
000000
102000
102000
105000
108800
7d0400
120200
1c9100
109000
309000
509000
109000
109000
111000
111000
521000
341000
000000
000000
ENDCHAR
STARTCHAR 2439
ENCODING 9273
SWIDTH 954 0
DWIDTH 18 0
BBX 18 19 0 -1
BITMAP
000000
000000
00fe00
7c1000
441000
441000
441000
441000
7fff00
441000
441000
441000
441000
7c1000
001000
001000
001000
000000
000000
ENDCHAR
STARTCHAR 243a
ENCODING 9274
SWIDTH 954 0
DWIDTH 18 0
BBX 18 19 0 -1
BITMAP
000000
000000
00fe00
7c1000
441000
441000
441000
441000
7fff00
441000
441000
441000
441000
7c1000
001000
005000
003000
000000
000000
ENDCHAR
STARTCHAR 243b
ENCODING 9275
SWIDTH 954 0
DWIDTH 18 0
BBX 18 19 0 -1
BITMAP
000000
008000
008000
7c8000
45ff00
460100
440100
440100
7c4100
442100
441100
440100
440100
7c0100
000100
000100
000f00
000000
000000
ENDCHAR
STARTCHAR 243c
ENCODING 9276
SWIDTH 954 0
DWIDTH 18 0
BBX 18 19 0 -1
BITMAP
000000
3ff800
200800
200800
3ff800
200800
200800
3ff800
010000
010000
7fff00
024000
024000
042000
081000
100800
600700
000000
000000
ENDCHAR
STARTCHAR 243d
ENCODING 9277
SWIDTH 954 0
DWIDTH 18 0
BBX 18 19 0 -1
BITMAP
000000
3ffc00
200400
200400
3ffc00
200400
200400
3ffc00
000000
008000
008000
408200
408200
408200
408200
408200
7ffe00
000000
000000
ENDCHAR
STARTCHAR 243e
ENCODING 9278
SWIDTH 954 0
DWIDTH 18 0
BBX 18 19 0 -1
BITMAP
000000
11fe00
101000
101000
7c1000
101000
101000
3bff00
541000
121000
101000
101000
101000
101000
101000
105000
103000
000000
000000
ENDCHAR
STARTCHAR 243f
ENCODING 9279
SWIDTH 954 0
DWIDTH 18 0
BBX 18 19 0 -1
BITMAP
000000
100000
100000
10fc00
100000
7c0000
11ff00
384000
548000
11fe00
100200
100200
100200
100200
100200
101200
100e00
000000
000000
ENDCHAR
STARTCHAR 2440
ENCODING 9280
SWIDTH 954 0
DWIDTH 18 0
BBX 18 19 0 -1
BITMAP
000000
105000
104c00
104200
104000
7c4f00
11f000
384000
544000
124000
104000
104000
104000
102000
101100
100900
100700
000000
000000
ENDCHAR
STARTCHAR 2441
ENCODING 9281
SWIDTH 954 0
DWIDTH 18 0
BBX 18 19 0 -1
BITMAP
000000
102000
102000
102000
102000
7c2000
13ff00
382000
542000
122000
105000
105000
108800
110400
110400
120200
120100
000000
000000
ENDCHAR
STARTCHAR 2442
ENCODING 9282
SWIDTH 954 0
DWIDTH 18 0
BBX 18 19 0 -1
BITMAP
000000
080000
080000
09ff00
084800
7e4800
084800
1c4800
2a4800
494800
084800
084800
084800
088800
088900
090900
0a0f00
000000
000000
ENDCHAR
STARTCHAR 2443
ENCODING 9283
SWIDTH 954 0
DWIDTH 18 0
BBX 18 19 0 -1
BITMAP
000000
100000
13fe00
100200
124200
7d2200
111200
388400
548400
104800
104800
103000
102000
105000
108800
110400
120300
000000
000000
ENDCHAR
STARTCHAR 2444
ENCODING 9284
SWIDTH 954 0
DWIDTH 18 0
BBX 18 19 0 -1
BITMAP
000000
101000
101000
109000
109e00
7cf200
139200
389200
549200
129200
109000
109000
109000
108000
108100
108100
10ff00
000000
000000
ENDCHAR
STARTCHAR 2445
ENCODING 9285
SWIDTH 954 0
DWIDTH 18 0
BBX 18 19 0 -1
BITMAP
000000
11ff00
100100
100200
100c00
7c1000
121000
381000
541000
121000
11ff00
101000
101000
101000
101000
109000
107000
000000
000000
ENDCHAR
STARTCHAR 2446
ENCODING 9286
SWIDTH 954 0
DWIDTH 18 0
BBX 18 19 0 -1
BITMAP
000000
104000
104000
108000
117f00
7e0000
100000
38fe00
540400
120800
101000
102000
104000
108100
108100
10ff00
100000
000000
000000
ENDCHAR
STARTCHAR 2447
ENCODING 9287
SWIDTH 954 0
DWIDTH 18 0
BBX 18 19 0 -1
BITMAP
000000
100000
11fc00
110400
110400
7d0400
114400
392400
551400
130400
110400
110400
120400
120400
140500
140500
180700
000000
000000
ENDCHAR
STARTCHAR 2448
ENCODING 9288
SWIDTH 954 0
DWIDTH 18 0
BBX 18 19 0 -1
BITMAP
000000
008000
008000
3ffe00
008000
008000
1ffc00
000000
0ff800
088800
088800
7fff00
108800
108800
1ffe00
000800
003800
000000
000000
ENDCHAR
STARTCHAR 2449
ENCODING 9289
SWIDTH 954 0
DWIDTH 18 0
BBX 18 19 0 -1
BITMAP
000000
100000
1ff800
200000
5ff000
000000
7ff800
000800
040800
040800
040800
444800
444800
444800
444900
7fc500
000300
000000
000000
ENDCHAR
STARTCHAR 244a
ENCODING 9290
SWIDTH 954 0
DWIDTH 18 0
BBX 18 19 0 -1
BITMAP
000000
100000
1ff800
200000
5ff000
000000
7ff800
004800
244800
244800
244800
244800
444800
444800
044900
004500
004300
000000
000000
ENDCHAR
STARTCHAR 244b
ENCODING 9291
SWIDTH 954 0
DWIDTH 18 0
BBX 18 19 0 -1
BITMAP
000000
002000
402000
202000
17ff00
008000
408000
208000
10fc00
008400
008400
110400
110400
120400
220400
441400
080800
000000
000000
ENDCHAR
STARTCHAR 244c
ENCODING 9292
SWIDTH 954 0
DWIDTH 18 0
BBX 18 19 0 -1
BITMAP
000000
000000
43fc00
208800
108800
008800
408800
27ff00
108800
008800
008800
110800
110800
110800
220800
420800
0c0800
000000
000000
ENDCHAR
STARTCHAR 244d
ENCODING 9293
SWIDTH 954 0
DWIDTH 18 0
BBX 18 19 0 -1
BITMAP
000000
008800
408800
208800
13fe00
008800
408800
208800
108800
07ff00
008800
108800
110800
110800
220800
420800
040800
000000
000000
ENDCHAR
STARTCHAR 244e
ENCODING 9294
SWIDTH 954 0
DWIDTH 18 0
BBX 18 19 0 -1
BITMAP
000000
000000
41fc00
200000
100000
000000
400000
27ff00
104000
004000
004000
108000
110000
120400
240200
4fff00
000000
000000
000000
ENDCHAR
STARTCHAR 244f
ENCODING 9295
SWIDTH 954 0
DWIDTH 18 0
BBX 18 19 0 -1
BITMAP
000000
002000
402400
202200
102200
07ff00
402000
202000
105000
005000
009000
109000
111000
111100
221100
421100
0c1f00
000000
000000
ENDCHAR
STARTCHAR 2450
ENCODING 9296
SWIDTH 954 0
DWIDTH 18 0
BBX 18 19 0 -1
BITMAP
000000
020000
423f00
220900
120900
020900
4fc900
220900
120900
020900
020900
120900
124900
124900
23d100
402100
004700
000000
000000
ENDCHAR
STARTCHAR 2451
ENCODING 9297
SWIDTH 954 0
DWIDTH 18 0
BBX 18 19 0 -1
BITMAP
000000
002000
402000
202400
102200
002200
47ff00
205000
105000
008800
008800
110400
110400
120200
220200
440100
080100
000000
000000
ENDCHAR
STARTCHAR 2452
ENCODING 9298
SWIDTH 954 0
DWIDTH 18 0
BBX 18 19 0 -1
BITMAP
000000
008000
408000
208000
17ff00
008000
408000
209000
109000
009000
011000
111000
122000
124400
248200
44ff00
080000
000000
000000
ENDCHAR
STARTCHAR 2453
ENCODING 9299
SWIDTH 954 0
DWIDTH 18 0
BBX 18 19 0 -1
BITMAP
000000
000000
43fe00
220200
120200
020200
420200
220200
13fe00
020200
020200
120200
120200
120200
220200
43fe00
000000
000000
000000
ENDCHAR
STARTCHAR 2454
ENCODING 9300
SWIDTH 954 0
DWIDTH 18 0
BBX 18 19 0 -1
BITMAP
000000
002000
402000
202000
102000
002000
002000
423e00
222000
022000
022000
122000
122000
122000
222000
422000
0fff00
000000
000000
ENDCHAR
STARTCHAR 2455
ENCODING 9301
SWIDTH 954 0
DWIDTH 18 0
BBX 18 19 0 -1
BITMAP
000000
001000
401000
201000
13ff00
021100
421100
221100
122900
024500
028300
0b0100
0a0100
120100
220100
420100
020700
000000
000000
ENDCHAR
STARTCHAR 2456
ENCODING 9302
SWIDTH 954 0
DWIDTH 18 0
BBX 18 19 0 -1
BITMAP
000000
008000
410000
220800
140400
07fe00
400000
209000
109000
009000
009000
111000
111000
121000
221100
441100
081f00
000000
000000
ENDCHAR
STARTCHAR 2457
ENCODING 9303
SWIDTH 954 0
DWIDTH 18 0
BBX 18 19 0 -1
BITMAP
000000
010000
410000
210000
13ff00
044900
484900
204900
104900
008900
010900
120900
101100
102100
204100
418100
000700
000000
000000
ENDCHAR
STARTCHAR 2458
ENCODING 9304
SWIDTH 954 0
DWIDTH 18 0
BBX 18 19 0 -1
BITMAP
000000
011000
411000
211000
111000
01fe00
410000
210000
110000
01fc00
010400
120400
120400
120400
240400
440400
080400
000000
000000
ENDCHAR
STARTCHAR 2459
ENCODING 9305
SWIDTH 954 0
DWIDTH 18 0
BBX 18 19 0 -1
BITMAP
000000
000300
401c00
23e000
122000
022000
422000
222000
13ff00
022000
022000
122000
122000
121000
221100
424900
0f8700
000000
000000
ENDCHAR
STARTCHAR 245a
ENCODING 9306
SWIDTH 954 0
DWIDTH 18 0
BBX 18 19 0 -1
BITMAP
000000
000000
43ff00
220000
120000
020000
020000
43ff00
220100
030100
028200
124400
122800
221000
442800
084400
018300
000000
000000
ENDCHAR
STARTCHAR 245b
ENCODING 9307
SWIDTH 954 0
DWIDTH 18 0
BBX 18 19 0 -1
BITMAP
000000
002000
402000
202000
13fe00
002000
402000
202000
11fc00
010400
010400
108800
105000
102000
205000
408800
070700
000000
000000
ENDCHAR
STARTCHAR 245c
ENCODING 9308
SWIDTH 954 0
DWIDTH 18 0
BBX 18 19 0 -1
BITMAP
000000
010000
410000
210000
11fe00
022000
442000
202000
102000
07ff00
002000
102000
102000
102000
202000
402000
002000
000000
000000
ENDCHAR
STARTCHAR 245d
ENCODING 9309
SWIDTH 954 0
DWIDTH 18 0
BBX 18 19 0 -1
BITMAP
000000
00a000
40a000
212000
112000
022000
432000
252000
193e00
012000
012000
112000
112000
112000
212100
412100
013f00
000000
000000
ENDCHAR
STARTCHAR 245e
ENCODING 9310
SWIDTH 954 0
DWIDTH 18 0
BBX 18 19 0 -1
BITMAP
000000
100000
100000
11fe00
541000
541000
581000
501000
101000
101000
101000
101000
101000
281000
441000
03ff00
000000
000000
000000
ENDCHAR
STARTCHAR 245f
ENCODING 9311
SWIDTH 954 0
DWIDTH 18 0
BBX 18 19 0 -1
BITMAP
000000
108000
109000
509000
549000
549e00
57f200
109200
109200
109200
109200
109600
109000
108000
288100
448100
00ff00
000000
000000
ENDCHAR
STARTCHAR 2460
ENCODING 9312
SWIDTH 954 0
DWIDTH 18 0
BBX 18 19 0 -1
BITMAP
000000
080000
080000
49ff00
481100
7e1100
081100
0c9100
085100
183100
281100
482900
082100
084100
088100
090100
0a0700
000000
000000
ENDCHAR
STARTCHAR 2461
ENCODING 9313
SWIDTH 954 0
DWIDTH 18 0
BBX 18 19 0 -1
BITMAP
000000
042000
082000
502000
27ff00
502000
082000
083000
082800
182400
282400
482000
082000
082000
082000
282000
182000
000000
000000
ENDCHAR
STARTCHAR 2462
ENCODING 9314
SWIDTH 954 0
DWIDTH 18 0
BBX 18 19 0 -1
BITMAP
000000
03ff00
080800
500800
210800
510800
0a0800
0bff00
081800
182800
282800
484800
088800
088800
090800
280800
183800
000000
000000
ENDCHAR
STARTCHAR 2463
ENCODING 9315
SWIDTH 954 0
DWIDTH 18 0
BBX 18 19 0 -1
BITMAP
000000
040000
09fc00
508400
208400
508400
088400
088400
0bff00
188400
288400
488400
088400
088400
088400
288400
1bff00
000000
000000
ENDCHAR
STARTCHAR 2464
ENCODING 9316
SWIDTH 954 0
DWIDTH 18 0
BBX 18 19 0 -1
BITMAP
000000
041000
081000
501000
201000
51ff00
091100
091100
091100
191100
291100
49ff00
081000
081000
081000
281000
181000
000000
000000
ENDCHAR
STARTCHAR 2465
ENCODING 9317
SWIDTH 954 0
DWIDTH 18 0
BBX 18 19 0 -1
BITMAP
000000
044000
084000
504000
208000
510200
0a0100
0bff00
089000
189000
289000
489000
089000
091000
091100
2a1100
1c1f00
000000
000000
ENDCHAR
STARTCHAR 2466
ENCODING 9318
SWIDTH 954 0
DWIDTH 18 0
BBX 18 19 0 -1
BITMAP
000000
002000
082000
53fe00
200000
500000
08fc00
088400
088400
188400
288400
488400
088400
088400
088500
290500
1a0700
000000
000000
ENDCHAR
STARTCHAR 2467
ENCODING 9319
SWIDTH 954 0
DWIDTH 18 0
BBX 18 19 0 -1
BITMAP
000000
040200
081c00
53e000
202000
502000
082000
082000
082000
1bfe00
282000
482000
082000
082000
082000
282000
1fff00
000000
000000
ENDCHAR
STARTCHAR 2468
ENCODING 9320
SWIDTH 954 0
DWIDTH 18 0
BBX 18 19 0 -1
BITMAP
000000
000000
7cfe00
101000
101000
101000
101000
13ff00
7c1000
101000
101000
141000
181000
101000
201000
401000
001000
000000
000000
ENDCHAR
STARTCHAR 2469
ENCODING 9321
SWIDTH 954 0
DWIDTH 18 0
BBX 18 19 0 -1
BITMAP
000000
000000
7dfe00
101000
101000
101000
13ff00
101000
7c1000
101000
101000
141000
181000
101000
201000
401000
007000
000000
000000
ENDCHAR
STARTCHAR 246a
ENCODING 9322
SWIDTH 954 0
DWIDTH 18 0
BBX 18 19 0 -1
BITMAP
000000
004000
7c4000
10ff00
110100
120100
100100
100100
7c6100
101100
100900
140900
180100
100100
200100
400100
000700
000000
000000
ENDCHAR
STARTCHAR 246b
ENCODING 9323
SWIDTH 954 0
DWIDTH 18 0
BBX 18 19 0 -1
BITMAP
000000
010100
7d0100
111100
111100
111100
111100
111100
7d1100
111100
111100
151100
191100
111100
220100
440100
040100
000000
000000
ENDCHAR
STARTCHAR 246c
ENCODING 9324
SWIDTH 954 0
DWIDTH 18 0
BBX 18 19 0 -1
BITMAP
000000
000000
7dfe00
101000
101000
101000
101000
101000
7c1000
101000
101000
141000
181000
101000
201000
401000
03ff00
000000
000000
ENDCHAR
STARTCHAR 246d
ENCODING 9325
SWIDTH 954 0
DWIDTH 18 0
BBX 18 19 0 -1
BITMAP
000000
000000
01ff00
7e1000
521000
521000
521000
521000
7e1000
521000
521000
521000
521000
521000
7e1000
001000
007000
000000
000000
ENDCHAR
STARTCHAR 246e
ENCODING 9326
SWIDTH 954 0
DWIDTH 18 0
BBX 18 19 0 -1
BITMAP
000000
008000
008000
3ffe00
208200
3ffe00
208200
3ffe00
000000
7fff00
080000
080000
0ffc00
000400
000400
000400
00fc00
000000
000000
ENDCHAR
STARTCHAR 246f
ENCODING 9327
SWIDTH 954 0
DWIDTH 18 0
BBX 18 19 0 -1
BITMAP
000000
004000
004000
1fff00
100000
100000
57ff00
302000
102000
302000
502000
102000
102000
102000
202000
40a000
006000
000000
000000
ENDCHAR
STARTCHAR 2470
ENCODING 9328
SWIDTH 954 0
DWIDTH 18 0
BBX 18 19 0 -1
BITMAP
000000
004000
1fff00
100000
100000
520000
320000
120000
120200
320400
521800
13e000
220000
220000
420100
020100
03ff00
000000
000000
ENDCHAR
STARTCHAR 2471
ENCODING 9329
SWIDTH 954 0
DWIDTH 18 0
BBX 18 19 0 -1
BITMAP
000000
080000
100000
3ffc00
200400
200400
3ffc00
200400
200400
3ffc00
008000
008000
7fff00
008000
008000
008000
008000
000000
000000
ENDCHAR
STARTCHAR 2472
ENCODING 9330
SWIDTH 954 0
DWIDTH 18 0
BBX 18 19 0 -1
BITMAP
000000
200000
23fc00
788400
088800
109000
309f00
508100
188100
148100
108100
108100
110100
110100
120100
120100
140700
000000
000000
ENDCHAR
STARTCHAR 2473
ENCODING 9331
SWIDTH 954 0
DWIDTH 18 0
BBX 18 19 0 -1
BITMAP
000000
7f4000
424000
424000
424000
7e4000
424000
424000
424000
7e4000
424000
424000
464000
7a4000
024100
024100
027f00
000000
000000
ENDCHAR
STARTCHAR 2474
ENCODING 9332
SWIDTH 954 0
DWIDTH 18 0
BBX 18 19 0 -1
BITMAP
000000
7c0000
47ff00
442100
442100
7c2100
452100
44a100
446100
7c2100
442100
444100
444100
448100
048100
050100
0c0700
000000
000000
ENDCHAR
STARTCHAR 2475
ENCODING 9333
SWIDTH 954 0
DWIDTH 18 0
BBX 18 19 0 -1
BITMAP
000000
1ff800
100800
100800
100800
1ff800
000000
000000
3ffc00
200400
3ffc00
200400
3ffc00
200400
200400
400400
001c00
000000
000000
ENDCHAR
STARTCHAR 2476
ENCODING 9334
SWIDTH 954 0
DWIDTH 18 0
BBX 18 19 0 -1
BITMAP
000000
7e4000
424000
427e00
428000
7f0000
420000
42fc00
420800
7e1000
422000
424000
428000
428000
428200
028200
0efe00
000000
000000
ENDCHAR
STARTCHAR 2477
ENCODING 9335
SWIDTH 954 0
DWIDTH 18 0
BBX 18 19 0 -1
BITMAP
000000
3e4000
224000
23fc00
224400
3e4400
224400
234400
22c400
3e6400
225400
224400
224400
224500
228500
428500
0f0700
000000
000000
ENDCHAR
STARTCHAR 2478
ENCODING 9336
SWIDTH 954 0
DWIDTH 18 0
BBX 18 19 0 -1
BITMAP
000000
3e0200
220200
220400
220800
3ef000
220200
220200
220400
3e0800
22f000
220000
220200
220200
220400
420800
0ef000
000000
000000
ENDCHAR
STARTCHAR 2479
ENCODING 9337
SWIDTH 954 0
DWIDTH 18 0
BBX 18 19 0 -1
BITMAP
000000
080800
080800
7f7f00
080800
000000
7ffe00
010000
010000
014000
012000
011000
011000
010000
010000
010000
010000
000000
000000
ENDCHAR
STARTCHAR 247a
ENCODING 9338
SWIDTH 954 0
DWIDTH 18 0
BBX 18 19 0 -1
BITMAP
000000
100800
100800
7e7f00
100800
100800
010000
010000
010000
010000
1ff000
010000
010000
010000
010000
010000
7fff00
000000
000000
ENDCHAR
STARTCHAR 247b
ENCODING 9339
SWIDTH 954 0
DWIDTH 18 0
BBX 18 19 0 -1
BITMAP
000000
100800
100800
7e7f00
100800
010000
010c00
010200
7fff00
010000
010000
008000
004000
002000
001100
000900
000700
000000
000000
ENDCHAR
STARTCHAR 247c
ENCODING 9340
SWIDTH 954 0
DWIDTH 18 0
BBX 18 19 0 -1
BITMAP
000000
100800
100800
7e7f00
100800
000000
1ff800
000800
000800
1ff800
200000
3ffc00
000400
000400
000400
000400
003c00
000000
000000
ENDCHAR
STARTCHAR 247d
ENCODING 9341
SWIDTH 954 0
DWIDTH 18 0
BBX 18 19 0 -1
BITMAP
000000
100800
100800
7e7f00
100800
000000
1ff800
000800
000800
000800
1ff800
100000
100000
100000
100100
100100
1fff00
000000
000000
ENDCHAR
STARTCHAR 247e
ENCODING 9342
SWIDTH 954 0
DWIDTH 18 0
BBX 18 19 0 -1
BITMAP
000000
100800
100800
7e7f00
100800
000000
1ff800
001000
00e000
008000
7fff00
008000
008000
008000
008000
008000
078000
000000
000000
ENDCHAR
STARTCHAR 2521
ENCODING 9505
SWIDTH 954 0
DWIDTH 18 0
BBX 18 19 0 -1
BITMAP
000000
100800
100800
7e7f00
100800
000000
006000
1f8000
010000
010000
7fff00
010000
010000
010000
010000
010000
010000
000000
000000
ENDCHAR
STARTCHAR 2522
ENCODING 9506
SWIDTH 954 0
DWIDTH 18 0
BBX 18 19 0 -1
BITMAP
000000
081000
081000
7fff00
081000
081000
000000
0ff000
081000
0a1000
091000
089000
089000
081100
101100
201100
401f00
000000
000000
ENDCHAR
STARTCHAR 2523
ENCODING 9507
SWIDTH 954 0
DWIDTH 18 0
BBX 18 19 0 -1
BITMAP
000000
100800
100800
7e7f00
100800
020000
020000
3ff800
020800
020800
0a0800
060800
030800
048900
080900
100900
200f00
000000
000000
ENDCHAR
STARTCHAR 2524
ENCODING 9508
SWIDTH 954 0
DWIDTH 18 0
BBX 18 19 0 -1
BITMAP
000000
010000
020800
051000
08a000
104000
288000
054000
022000
045000
089000
111000
023000
045000
189000
011000
067000
000000
000000
ENDCHAR
STARTCHAR 2525
ENCODING 9509
SWIDTH 954 0
DWIDTH 18 0
BBX 18 19 0 -1
BITMAP
000000
01fe00
410200
210200
110200
01fe00
790000
090000
090000
120000
220000
120000
0c0000
0c0000
080000
180000
67ff00
000000
000000
ENDCHAR
STARTCHAR 2526
ENCODING 9510
SWIDTH 954 0
DWIDTH 18 0
BBX 18 19 0 -1
BITMAP
000000
002000
402000
202000
122200
022200
022200
022200
722200
122200
122200
122200
122200
13fe00
280000
440000
03ff00
000000
000000
ENDCHAR
STARTCHAR 2527
ENCODING 9511
SWIDTH 954 0
DWIDTH 18 0
BBX 18 19 0 -1
BITMAP
000000
081f00
081100
7f9100
001200
7e1400
421400
421200
421100
421100
421100
421100
421f00
421000
025000
029000
031000
000000
000000
ENDCHAR
STARTCHAR 2528
ENCODING 9512
SWIDTH 954 0
DWIDTH 18 0
BBX 18 19 0 -1
BITMAP
000000
080000
081f00
7f9100
101100
101200
1f1400
111200
111100
111100
111100
111100
111900
211700
411000
051000
031000
000000
000000
ENDCHAR
STARTCHAR 2529
ENCODING 9513
SWIDTH 954 0
DWIDTH 18 0
BBX 18 19 0 -1
BITMAP
000000
041f00
041100
7fd100
445200
445400
445400
041200
041100
0a1100
0a1100
0a1900
121700
121000
225000
229000
431000
000000
000000
ENDCHAR
STARTCHAR 252a
ENCODING 9514
SWIDTH 954 0
DWIDTH 18 0
BBX 18 19 0 -1
BITMAP
000000
041f00
041100
041100
3f9200
041400
041400
041200
7ff100
0a1100
0a1100
0a1100
111f00
111000
209000
209000
407000
000000
000000
ENDCHAR
STARTCHAR 252b
ENCODING 9515
SWIDTH 954 0
DWIDTH 18 0
BBX 18 19 0 -1
BITMAP
000000
000000
7f9f00
001100
001100
001200
7ff400
121200
121100
121100
121100
121100
121900
121700
225000
429000
031000
000000
000000
ENDCHAR
STARTCHAR 252c
ENCODING 9516
SWIDTH 954 0
DWIDTH 18 0
BBX 18 19 0 -1
BITMAP
000000
041f00
141100
121100
221200
411400
00d400
7f1200
111100
111100
111100
111100
211f00
211000
211000
411000
471000
000000
000000
ENDCHAR
STARTCHAR 252d
ENCODING 9517
SWIDTH 954 0
DWIDTH 18 0
BBX 18 19 0 -1
BITMAP
000000
7a1000
4a1000
4a1000
521000
621100
621200
53dc00
4a1000
4a1000
4a1000
4a1000
7a1000
421000
425100
429100
471f00
000000
000000
ENDCHAR
STARTCHAR 252e
ENCODING 9518
SWIDTH 954 0
DWIDTH 18 0
BBX 18 19 0 -1
BITMAP
000000
000000
7bff00
4a0000
4a0000
4a7e00
524200
624200
524200
4a4200
4a4200
4a5200
4a4e00
7a4000
424100
444100
487f00
000000
000000
ENDCHAR
STARTCHAR 252f
ENCODING 9519
SWIDTH 954 0
DWIDTH 18 0
BBX 18 19 0 -1
BITMAP
000000
001000
781000
481000
481000
491000
511000
611f00
511000
491000
491000
491000
491000
791000
411000
411000
47ff00
000000
000000
ENDCHAR
STARTCHAR 2530
ENCODING 9520
SWIDTH 954 0
DWIDTH 18 0
BBX 18 19 0 -1
BITMAP
000000
782000
482000
484000
508400
610200
63ff00
504800
484800
484800
484800
484800
784800
408800
408900
410900
420f00
000000
000000
ENDCHAR
STARTCHAR 2531
ENCODING 9521
SWIDTH 954 0
DWIDTH 18 0
BBX 18 19 0 -1
BITMAP
000000
042000
042000
3ffc00
242400
242400
3ffc00
042000
042000
7ffe00
442200
442200
7ffe00
042000
082000
102000
202000
000000
000000
ENDCHAR
STARTCHAR 2532
ENCODING 9522
SWIDTH 954 0
DWIDTH 18 0
BBX 18 19 0 -1
BITMAP
000000
041000
081000
13ff00
320100
520500
100800
11f000
102000
102000
102000
17ff00
102000
102000
102100
102100
103f00
000000
000000
ENDCHAR
STARTCHAR 2533
ENCODING 9523
SWIDTH 954 0
DWIDTH 18 0
BBX 18 19 0 -1
BITMAP
000000
082000
102000
27ff00
600000
210400
220200
240100
208800
208800
208800
205000
202000
205000
208800
210400
260300
000000
000000
ENDCHAR
STARTCHAR 2534
ENCODING 9524
SWIDTH 954 0
DWIDTH 18 0
BBX 18 19 0 -1
BITMAP
000000
082000
082000
17ff00
304000
508000
110800
121000
112200
10c400
108800
111000
123000
104800
108400
130200
100100
000000
000000
ENDCHAR
STARTCHAR 2535
ENCODING 9525
SWIDTH 954 0
DWIDTH 18 0
BBX 18 19 0 -1
BITMAP
000000
082000
082000
082000
107f00
308900
500900
170800
100800
100800
100800
171400
101400
102200
104200
104100
118100
000000
000000
ENDCHAR
STARTCHAR 2536
ENCODING 9526
SWIDTH 954 0
DWIDTH 18 0
BBX 18 19 0 -1
BITMAP
000000
080100
0be100
0a4900
0a4900
124900
324900
5ff900
124900
124900
124900
124900
124900
124100
124100
144100
184700
000000
000000
ENDCHAR
STARTCHAR 2537
ENCODING 9527
SWIDTH 954 0
DWIDTH 18 0
BBX 18 19 0 -1
BITMAP
000000
082000
0bff00
102000
202000
63fe00
202200
23fe00
242000
242000
27ff00
202100
205100
205300
208800
210400
220200
000000
000000
ENDCHAR
STARTCHAR 2538
ENCODING 9528
SWIDTH 954 0
DWIDTH 18 0
BBX 18 19 0 -1
BITMAP
000000
042000
082000
102000
37ff00
502000
102000
102000
13fe00
100000
100000
13fe00
120200
120200
120200
120200
13fe00
000000
000000
ENDCHAR
STARTCHAR 2539
ENCODING 9529
SWIDTH 954 0
DWIDTH 18 0
BBX 18 19 0 -1
BITMAP
000000
17ff00
110400
110400
210400
61fc00
210400
210400
210400
21fc00
210400
210400
210700
27fc00
200400
200400
200400
000000
000000
ENDCHAR
STARTCHAR 253a
ENCODING 9530
SWIDTH 954 0
DWIDTH 18 0
BBX 18 19 0 -1
BITMAP
000000
082000
0fff00
085000
088800
110400
320200
5cf900
100000
100000
17ff00
108000
11fc00
100400
100400
100400
107c00
000000
000000
ENDCHAR
STARTCHAR 253b
ENCODING 9531
SWIDTH 954 0
DWIDTH 18 0
BBX 18 19 0 -1
BITMAP
000000
0fff00
084000
084000
088800
110400
33fe00
500000
102000
102000
102000
11fc00
102000
102000
102000
102000
17ff00
000000
000000
ENDCHAR
STARTCHAR 253c
ENCODING 9532
SWIDTH 954 0
DWIDTH 18 0
BBX 18 19 0 -1
BITMAP
000000
0bfc00
0a0400
120400
33fc00
520400
120400
13fc00
122000
122000
122200
122400
121800
120800
120400
124200
178100
000000
000000
ENDCHAR
STARTCHAR 253d
ENCODING 9533
SWIDTH 954 0
DWIDTH 18 0
BBX 18 19 0 -1
BITMAP
000000
091000
091000
091000
091000
111000
311300
51fc00
151000
151000
151000
151000
151000
153000
155100
159100
1f1f00
000000
000000
ENDCHAR
STARTCHAR 253e
ENCODING 9534
SWIDTH 954 0
DWIDTH 18 0
BBX 18 19 0 -1
BITMAP
000000
080000
0bff00
0a0100
0a0100
12fd00
320100
520100
12fd00
128500
128500
128500
12fd00
120100
120100
120100
120700
000000
000000
ENDCHAR
STARTCHAR 253f
ENCODING 9535
SWIDTH 954 0
DWIDTH 18 0
BBX 18 19 0 -1
BITMAP
000000
080000
0bff00
120100
220100
62fd00
228500
228500
228500
228500
228500
228500
22fd00
220100
220100
23ff00
200000
000000
000000
ENDCHAR
STARTCHAR 2540
ENCODING 9536
SWIDTH 954 0
DWIDTH 18 0
BBX 18 19 0 -1
BITMAP
000000
090000
090000
090000
11ff00
320100
540100
10f900
108900
108900
10f900
108900
108900
10f900
100100
100900
100700
000000
000000
ENDCHAR
STARTCHAR 2541
ENCODING 9537
SWIDTH 954 0
DWIDTH 18 0
BBX 18 19 0 -1
BITMAP
000000
088000
08f800
090800
0a2800
141000
31ff00
510000
110000
117e00
114200
114200
114e00
124000
124100
144100
147f00
000000
000000
ENDCHAR
STARTCHAR 2542
ENCODING 9538
SWIDTH 954 0
DWIDTH 18 0
BBX 18 19 0 -1
BITMAP
000000
092000
092000
092000
13fc00
342000
502000
102000
17ff00
109000
109000
109000
109000
109000
111100
121100
141f00
000000
000000
ENDCHAR
STARTCHAR 2543
ENCODING 9539
SWIDTH 954 0
DWIDTH 18 0
BBX 18 19 0 -1
BITMAP
000000
080600
081800
0be000
082000
102000
3fff00
502000
102000
102000
13fe00
120200
120200
120200
120200
120200
13fe00
000000
000000
ENDCHAR
STARTCHAR 2544
ENCODING 9540
SWIDTH 954 0
DWIDTH 18 0
BBX 18 19 0 -1
BITMAP
000000
082000
084000
108000
210000
67fe00
249200
249200
249200
249200
249200
249200
249200
249200
249200
249200
3fff00
000000
000000
ENDCHAR
STARTCHAR 2545
ENCODING 9541
SWIDTH 954 0
DWIDTH 18 0
BBX 18 19 0 -1
BITMAP
000000
086000
088000
09fc00
090400
114400
312400
511400
17ff00
110400
112400
112400
112400
112400
120400
120400
141c00
000000
000000
ENDCHAR
STARTCHAR 2546
ENCODING 9542
SWIDTH 954 0
DWIDTH 18 0
BBX 18 19 0 -1
BITMAP
000000
084000
088000
090400
0a0200
17ff00
302000
522000
13fe00
142000
182000
102000
1fff00
102000
102000
102000
102000
000000
000000
ENDCHAR
STARTCHAR 2547
ENCODING 9543
SWIDTH 954 0
DWIDTH 18 0
BBX 18 19 0 -1
BITMAP
000000
0a0000
0a0000
0a1f00
0a1100
17d100
325100
525100
125100
125100
125100
125100
115100
109100
115f00
122000
1c0000
000000
000000
ENDCHAR
STARTCHAR 2548
ENCODING 9544
SWIDTH 954 0
DWIDTH 18 0
BBX 18 19 0 -1
BITMAP
000000
082000
082000
17ff00
340100
548100
108000
108000
13ff00
108400
108400
108400
10e800
101000
102800
104400
118300
000000
000000
ENDCHAR
STARTCHAR 2549
ENCODING 9545
SWIDTH 954 0
DWIDTH 18 0
BBX 18 19 0 -1
BITMAP
000000
082000
082000
0bff00
120000
320600
52f800
122000
122000
13ff00
122000
122000
122000
122000
122100
142100
183f00
000000
000000
ENDCHAR
STARTCHAR 254a
ENCODING 9546
SWIDTH 954 0
DWIDTH 18 0
BBX 18 19 0 -1
BITMAP
000000
17ff00
102000
204000
608000
23ff00
224900
224900
224900
224900
224900
224900
224900
224900
224900
224900
220300
000000
000000
ENDCHAR
STARTCHAR 254b
ENCODING 9547
SWIDTH 954 0
DWIDTH 18 0
BBX 18 19 0 -1
BITMAP
000000
088000
088000
09fc00
0a0400
148800
305000
502000
105000
108800
170700
11fc00
110400
110400
110400
110400
11fc00
000000
000000
ENDCHAR
STARTCHAR 254c
ENCODING 9548
SWIDTH 954 0
DWIDTH 18 0
BBX 18 19 0 -1
BITMAP
000000
086000
109000
210800
620400
240200
280100
23f800
200000
200000
23fc00
220400
220400
220400
220400
220400
23fc00
000000
000000
ENDCHAR
STARTCHAR 254d
ENCODING 9549
SWIDTH 954 0
DWIDTH 18 0
BBX 18 19 0 -1
BITMAP
000000
000000
7fff00
400100
010200
111000
092000
054000
7ffc00
010000
038000
054000
092000
111000
210c00
010000
010000
000000
000000
ENDCHAR
STARTCHAR 254e
ENCODING 9550
SWIDTH 954 0
DWIDTH 18 0
BBX 18 19 0 -1
BITMAP
000000
004000
024000
424000
23fc00
144000
084000
004000
0fff00
012000
112000
112000
112000
222000
422100
042100
183f00
000000
000000
ENDCHAR
STARTCHAR 254f
ENCODING 9551
SWIDTH 954 0
DWIDTH 18 0
BBX 18 19 0 -1
BITMAP
000000
004000
006000
409000
210800
120400
0c0300
03fc00
000000
000000
100000
13fc00
120400
220400
420400
020400
03fc00
000000
000000
ENDCHAR
STARTCHAR 2550
ENCODING 9552
SWIDTH 954 0
DWIDTH 18 0
BBX 18 19 0 -1
BITMAP
000000
7f8100
210100
211100
211100
3f1100
211100
211100
211100
3f1100
211100
211100
211100
3f1100
410100
010100
010700
000000
000000
ENDCHAR
STARTCHAR 2551
ENCODING 9553
SWIDTH 954 0
DWIDTH 18 0
BBX 18 19 0 -1
BITMAP
000000
080100
080100
7f1100
081100
081100
081100
7f9100
001100
001100
081100
081100
7f1100
081100
080100
080100
7f8700
000000
000000
ENDCHAR
STARTCHAR 2552
ENCODING 9554
SWIDTH 954 0
DWIDTH 18 0
BBX 18 19 0 -1
BITMAP
000000
040200
040200
7fd200
0a1200
111200
2e9200
405200
001200
7fd200
081200
101200
3f9200
008200
008200
048a00
038600
000000
000000
ENDCHAR
STARTCHAR 2553
ENCODING 9555
SWIDTH 954 0
DWIDTH 18 0
BBX 18 19 0 -1
BITMAP
000000
080100
080100
7f9100
409100
409100
7f9100
409100
409100
7f9100
401100
401100
441100
421100
450100
488100
700700
000000
000000
ENDCHAR
STARTCHAR 2554
ENCODING 9556
SWIDTH 954 0
DWIDTH 18 0
BBX 18 19 0 -1
BITMAP
000000
240000
24fe00
242200
7f2200
242600
242300
24a300
246200
243200
7f2200
242200
242200
444200
444200
049200
050c00
000000
000000
ENDCHAR
STARTCHAR 2555
ENCODING 9557
SWIDTH 954 0
DWIDTH 18 0
BBX 18 19 0 -1
BITMAP
000000
081000
081000
081000
7f9000
08ff00
081100
081100
7f1100
001100
001100
7f1100
411100
412100
412100
414a00
7f8400
000000
000000
ENDCHAR
STARTCHAR 2556
ENCODING 9558
SWIDTH 954 0
DWIDTH 18 0
BBX 18 19 0 -1
BITMAP
000000
100000
100000
1fff00
200100
210100
410100
092100
052100
054100
3ff900
038100
054100
092100
311900
010100
010f00
000000
000000
ENDCHAR
STARTCHAR 2557
ENCODING 9559
SWIDTH 954 0
DWIDTH 18 0
BBX 18 19 0 -1
BITMAP
000000
100000
100000
1fff00
200100
200100
480100
0ff100
110100
210100
1ff900
010100
111100
111100
1ff100
000100
000f00
000000
000000
ENDCHAR
STARTCHAR 2558
ENCODING 9560
SWIDTH 954 0
DWIDTH 18 0
BBX 18 19 0 -1
BITMAP
000000
7ffe00
400000
418000
424000
442000
581800
67f600
400000
5ff800
500800
500800
500800
5ff800
400000
400000
7ffe00
000000
000000
ENDCHAR
STARTCHAR 2559
ENCODING 9561
SWIDTH 954 0
DWIDTH 18 0
BBX 18 19 0 -1
BITMAP
000000
3fff00
200000
240000
240000
27fe00
282000
302000
202000
2fff00
202000
242100
242100
242100
442100
47ff00
000000
000000
000000
ENDCHAR
STARTCHAR 255a
ENCODING 9562
SWIDTH 954 0
DWIDTH 18 0
BBX 18 19 0 -1
BITMAP
000000
3ffe00
200000
200000
2ffe00
210000
220000
240800
280400
2ffe00
204000
404000
47fc00
404000
404000
004000
1fff00
000000
000000
ENDCHAR
STARTCHAR 255b
ENCODING 9563
SWIDTH 954 0
DWIDTH 18 0
BBX 18 19 0 -1
BITMAP
000000
000000
000000
786000
481400
489400
488800
488800
4a9600
4a9100
4ca100
4ca000
48c000
488000
798200
028200
1cfe00
000000
000000
ENDCHAR
STARTCHAR 255c
ENCODING 9564
SWIDTH 954 0
DWIDTH 18 0
BBX 18 19 0 -1
BITMAP
000000
002000
002000
7bfe00
482000
482000
482000
4fff00
482000
482000
484000
488000
490400
4a0200
7fff00
000100
000000
000000
000000
ENDCHAR
STARTCHAR 255d
ENCODING 9565
SWIDTH 954 0
DWIDTH 18 0
BBX 18 19 0 -1
BITMAP
000000
010400
010400
790400
4fff00
490400
490400
490400
49fc00
490400
490400
490400
490400
490400
79fc00
000000
000000
000000
000000
ENDCHAR
STARTCHAR 255e
ENCODING 9566
SWIDTH 954 0
DWIDTH 18 0
BBX 18 19 0 -1
BITMAP
000000
010000
010000
793f00
4fc400
490400
490400
494400
498400
490400
4b0400
4d0400
490400
490400
790400
012400
071c00
000000
000000
ENDCHAR
STARTCHAR 255f
ENCODING 9567
SWIDTH 954 0
DWIDTH 18 0
BBX 18 19 0 -1
BITMAP
000000
000000
03ff00
7a1000
4a1000
4a1000
4afe00
4a9200
4a9200
4a9200
4a9200
4a1000
4a1000
4a1000
7a1000
020000
03ff00
000000
000000
ENDCHAR
STARTCHAR 2560
ENCODING 9568
SWIDTH 954 0
DWIDTH 18 0
BBX 18 19 0 -1
BITMAP
000000
004800
004800
7bfe00
484a00
484a00
49fe00
4a4800
4a4800
4bff00
484900
484900
484900
488900
788b00
010800
020800
000000
000000
ENDCHAR
STARTCHAR 2561
ENCODING 9569
SWIDTH 954 0
DWIDTH 18 0
BBX 18 19 0 -1
BITMAP
000000
002000
002000
782000
482000
483e00
482000
482000
482000
4bfe00
4a0200
4a0200
4a0200
4a0200
7a0200
020200
03fe00
000000
000000
ENDCHAR
STARTCHAR 2562
ENCODING 9570
SWIDTH 954 0
DWIDTH 18 0
BBX 18 19 0 -1
BITMAP
000000
01fe00
010200
790200
49fe00
480000
480000
4fff00
488000
490000
490000
49fe00
480200
480200
780200
002200
001e00
000000
000000
ENDCHAR
STARTCHAR 2563
ENCODING 9571
SWIDTH 954 0
DWIDTH 18 0
BBX 18 19 0 -1
BITMAP
000000
000000
01fe00
790200
490200
490200
490200
49fe00
490200
490200
490200
490200
49fe00
480000
780000
03ff00
000000
000000
000000
ENDCHAR
STARTCHAR 2564
ENCODING 9572
SWIDTH 954 0
DWIDTH 18 0
BBX 18 19 0 -1
BITMAP
000000
002000
002000
782000
4bfe00
4a2200
4a2200
4bfe00
4a2200
4a2200
4fff00
4a0200
4a0200
4a0200
7a0200
020200
020e00
000000
000000
ENDCHAR
STARTCHAR 2565
ENCODING 9573
SWIDTH 954 0
DWIDTH 18 0
BBX 18 19 0 -1
BITMAP
000000
000000
03ff00
7a4900
4a4900
4a4900
4a4900
4a4900
4a4900
4a4900
4a8900
4a8900
4b0f00
4a0100
7a0100
020100
03ff00
000000
000000
ENDCHAR
STARTCHAR 2566
ENCODING 9574
SWIDTH 954 0
DWIDTH 18 0
BBX 18 19 0 -1
BITMAP
000000
008000
008000
790000
49ff00
4a0100
4c0100
49f900
490900
490900
490900
49f900
480100
480100
781100
000900
000600
000000
000000
ENDCHAR
STARTCHAR 2567
ENCODING 9575
SWIDTH 954 0
DWIDTH 18 0
BBX 18 19 0 -1
BITMAP
000000
010800
010800
720800
543f00
584900
548900
530900
520900
540900
540900
544900
544900
57c900
701100
002a00
004400
000000
000000
ENDCHAR
STARTCHAR 2568
ENCODING 9576
SWIDTH 954 0
DWIDTH 18 0
BBX 18 19 0 -1
BITMAP
000000
002000
002000
784000
488000
490400
4a0200
4fff00
480000
480000
4bfe00
4a0200
4a0200
4a0200
7a0200
020200
03fe00
000000
000000
ENDCHAR
STARTCHAR 2569
ENCODING 9577
SWIDTH 954 0
DWIDTH 18 0
BBX 18 19 0 -1
BITMAP
000000
000000
03fe00
782000
482000
492400
492400
4a2200
4a2200
4c2100
4fff00
482000
482000
482000
782000
002000
002000
000000
000000
ENDCHAR
STARTCHAR 256a
ENCODING 9578
SWIDTH 954 0
DWIDTH 18 0
BBX 18 19 0 -1
BITMAP
000000
000000
03fe00
7a0200
4a0200
4a0200
4bfe00
4a2000
4a2000
4bff00
4a2000
4a2000
4a2000
4a2000
7a1100
024900
078700
000000
000000
ENDCHAR
STARTCHAR 256b
ENCODING 9579
SWIDTH 954 0
DWIDTH 18 0
BBX 18 19 0 -1
BITMAP
000000
002000
002000
782000
4fff00
487000
48a800
48a800
492400
492400
4a2200
4c2100
49fc00
482000
782000
002000
002000
000000
000000
ENDCHAR
STARTCHAR 256c
ENCODING 9580
SWIDTH 954 0
DWIDTH 18 0
BBX 18 19 0 -1
BITMAP
000000
004000
004000
7fff00
484000
489000
491000
4bff00
4d1100
491100
491100
491100
491100
491100
791300
001000
001000
000000
000000
ENDCHAR
STARTCHAR 256d
ENCODING 9581
SWIDTH 954 0
DWIDTH 18 0
BBX 18 19 0 -1
BITMAP
000000
000000
01fc00
790400
494400
492400
491400
490400
4fff00
4a0400
4a4400
4a2400
4a1400
4a0400
7bff00
000400
001800
000000
000000
ENDCHAR
STARTCHAR 256e
ENCODING 9582
SWIDTH 954 0
DWIDTH 18 0
BBX 18 19 0 -1
BITMAP
000000
000e00
03f000
7a2000
4a2000
4a2000
4a2000
4bfe00
4a2000
4a2000
4a2000
4a2000
4a5000
4a5100
7f8900
000700
03f000
000000
000000
ENDCHAR
STARTCHAR 256f
ENCODING 9583
SWIDTH 954 0
DWIDTH 18 0
BBX 18 19 0 -1
BITMAP
000000
002000
005000
788800
490400
4a0200
4cf900
480000
480000
4bfe00
480200
480400
488800
485000
782000
001000
000800
000000
000000
ENDCHAR
STARTCHAR 2570
ENCODING 9584
SWIDTH 954 0
DWIDTH 18 0
BBX 18 19 0 -1
BITMAP
000000
7fff00
400100
400100
401100
5fe100
408100
408100
7ffd00
42c100
44a100
489100
508d00
428100
418100
400100
7fff00
000000
000000
ENDCHAR
STARTCHAR 2571
ENCODING 9585
SWIDTH 954 0
DWIDTH 18 0
BBX 18 19 0 -1
BITMAP
000000
7fff00
410100
428100
444100
482100
501100
67cf00
400100
5ff100
401100
402100
424100
418100
408100
404100
7fff00
000000
000000
ENDCHAR
STARTCHAR 2572
ENCODING 9586
SWIDTH 954 0
DWIDTH 18 0
BBX 18 19 0 -1
BITMAP
000000
000000
13ff00
101000
101000
7c2000
106000
10a800
132400
102200
102200
142000
182000
102000
202000
402000
07ff00
000000
000000
ENDCHAR
STARTCHAR 2573
ENCODING 9587
SWIDTH 954 0
DWIDTH 18 0
BBX 18 19 0 -1
BITMAP
000000
209000
209000
23fe00
209200
789200
23fe00
229000
249000
249000
27ff00
289100
309100
209300
411000
021000
041000
000000
000000
ENDCHAR
STARTCHAR 2574
ENCODING 9588
SWIDTH 954 0
DWIDTH 18 0
BBX 18 19 0 -1
BITMAP
000000
23fe00
220200
220200
220200
7bfe00
220000
220000
228000
228000
22fe00
2a8000
328000
228000
448100
088100
10ff00
000000
000000
ENDCHAR
STARTCHAR 2575
ENCODING 9589
SWIDTH 954 0
DWIDTH 18 0
BBX 18 19 0 -1
BITMAP
000000
002000
102000
102000
102000
7c3e00
102000
102000
102000
13fe00
120200
160200
1a0200
120200
220200
420200
03fe00
000000
000000
ENDCHAR
STARTCHAR 2576
ENCODING 9590
SWIDTH 954 0
DWIDTH 18 0
BBX 18 19 0 -1
BITMAP
000000
202000
202000
202000
23fe00
7a2200
222200
222200
222200
222200
27ff00
202000
285000
308800
210400
420200
040100
000000
000000
ENDCHAR
STARTCHAR 2577
ENCODING 9591
SWIDTH 954 0
DWIDTH 18 0
BBX 18 19 0 -1
BITMAP
000000
03ff00
120100
120100
120100
7e7900
124900
124900
124900
124900
124900
167900
1a0100
120100
220100
420500
020300
000000
000000
ENDCHAR
STARTCHAR 2578
ENCODING 9592
SWIDTH 954 0
DWIDTH 18 0
BBX 18 19 0 -1
BITMAP
000000
21fe00
210200
214200
212200
791200
210200
27ff00
220200
224200
222200
2a1200
320200
23ff00
400200
000200
000e00
000000
000000
ENDCHAR
STARTCHAR 2579
ENCODING 9593
SWIDTH 954 0
DWIDTH 18 0
BBX 18 19 0 -1
BITMAP
000000
000600
11f800
102000
102200
7e2200
112400
112800
102000
13ff00
102000
142000
182000
102000
202000
402000
00e000
000000
000000
ENDCHAR
STARTCHAR 257a
ENCODING 9594
SWIDTH 954 0
DWIDTH 18 0
BBX 18 19 0 -1
BITMAP
000000
000600
11f800
110000
110000
7d0000
11ff00
111000
111000
111000
111000
151000
191000
111000
211000
43ff00
000000
000000
000000
ENDCHAR
STARTCHAR 257b
ENCODING 9595
SWIDTH 954 0
DWIDTH 18 0
BBX 18 19 0 -1
BITMAP
000000
000200
100c00
13f000
121000
7e1000
121000
13ff00
121000
121000
121000
161000
1a5000
128900
230500
400300
01f800
000000
000000
ENDCHAR
STARTCHAR 257c
ENCODING 9596
SWIDTH 954 0
DWIDTH 18 0
BBX 18 19 0 -1
BITMAP
000000
000000
208800
208800
213f00
7a0900
242900
284900
248900
230900
220900
240900
2c4900
345100
27d100
402500
004300
000000
000000
ENDCHAR
STARTCHAR 257d
ENCODING 9597
SWIDTH 954 0
DWIDTH 18 0
BBX 18 19 0 -1
BITMAP
000000
010000
010000
3ff800
010000
010000
7fff00
042000
042100
082100
703f00
010000
010000
1ff000
010000
010000
7fff00
000000
000000
ENDCHAR
STARTCHAR 257e
ENCODING 9598
SWIDTH 954 0
DWIDTH 18 0
BBX 18 19 0 -1
BITMAP
000000
000000
101000
111100
111100
7c9200
105400
101000
10fe00
101000
101000
141000
1bff00
101000
201000
401000
001000
000000
000000
ENDCHAR
STARTCHAR 2621
ENCODING 9761
SWIDTH 954 0
DWIDTH 18 0
BBX 18 19 0 -1
BITMAP
000000
202000
202000
23ff00
220100
7a0100
200000
210000
210000
210000
21fe00
210000
290000
310000
210100
410100
01ff00
000000
000000
ENDCHAR
STARTCHAR 2622
ENCODING 9762
SWIDTH 954 0
DWIDTH 18 0
BBX 18 19 0 -1
BITMAP
000000
001000
102800
104400
108200
7c8200
130100
10fc00
100000
100000
11fe00
140200
180400
108800
205000
402000
001000
000000
000000
ENDCHAR
STARTCHAR 2623
ENCODING 9763
SWIDTH 954 0
DWIDTH 18 0
BBX 18 19 0 -1
BITMAP
000000
010000
010000
1ff000
010000
7fff00
082000
082100
102100
683f00
080000
0ff000
182000
244000
038000
044000
383800
000000
000000
ENDCHAR
STARTCHAR 2624
ENCODING 9764
SWIDTH 954 0
DWIDTH 18 0
BBX 18 19 0 -1
BITMAP
000000
010000
010000
7fff00
042000
081000
100800
600700
06f800
788800
448800
448800
448800
4c8800
74a800
089800
308000
000000
000000
ENDCHAR
STARTCHAR 2625
ENCODING 9765
SWIDTH 954 0
DWIDTH 18 0
BBX 18 19 0 -1
BITMAP
000000
202000
201000
200000
20ff00
7c1000
241000
241000
241000
241000
24fe00
241000
281000
101000
281000
441000
03ff00
000000
000000
ENDCHAR
STARTCHAR 2626
ENCODING 9766
SWIDTH 954 0
DWIDTH 18 0
BBX 18 19 0 -1
BITMAP
000000
202000
202000
202000
23ff00
7c2000
242000
25fe00
242000
247000
24a800
24a800
292400
112400
2a2200
442100
002000
000000
000000
ENDCHAR
STARTCHAR 2627
ENCODING 9767
SWIDTH 954 0
DWIDTH 18 0
BBX 18 19 0 -1
BITMAP
000000
208400
208400
208400
208400
7fff00
248400
248400
248400
248400
24fc00
248400
288400
108400
288400
44fc00
000000
000000
000000
ENDCHAR
STARTCHAR 2628
ENCODING 9768
SWIDTH 954 0
DWIDTH 18 0
BBX 18 19 0 -1
BITMAP
000000
202000
202000
202000
21fe00
7d2200
252200
252200
252200
27ff00
245000
245000
288800
108800
290400
450400
020300
000000
000000
ENDCHAR
STARTCHAR 2629
ENCODING 9769
SWIDTH 954 0
DWIDTH 18 0
BBX 18 19 0 -1
BITMAP
000000
200000
20fe00
208200
208200
7c8200
248200
24fe00
248200
248200
248200
148200
08fe00
140000
220000
400000
03ff00
000000
000000
ENDCHAR
STARTCHAR 262a
ENCODING 9770
SWIDTH 954 0
DWIDTH 18 0
BBX 18 19 0 -1
BITMAP
000000
202000
202000
21fe00
212200
792200
29fe00
292200
292200
2bff00
290200
290200
290200
110200
290200
450200
010e00
000000
000000
ENDCHAR
STARTCHAR 262b
ENCODING 9771
SWIDTH 954 0
DWIDTH 18 0
BBX 18 19 0 -1
BITMAP
000000
204000
204000
204000
20ff00
7d0100
260100
240100
24f900
248900
248900
248900
288900
10f900
280100
440900
000600
000000
000000
ENDCHAR
STARTCHAR 262c
ENCODING 9772
SWIDTH 954 0
DWIDTH 18 0
BBX 18 19 0 -1
BITMAP
000000
202000
201000
201000
23ff00
7c2000
242000
244000
258400
248800
245000
242000
284000
108400
290200
45ff00
000000
000000
000000
ENDCHAR
STARTCHAR 262d
ENCODING 9773
SWIDTH 954 0
DWIDTH 18 0
BBX 18 19 0 -1
BITMAP
000000
200000
200000
203000
200800
7c4a00
244400
244400
254e00
254900
264900
265000
2a5000
106200
28c200
454200
027e00
000000
000000
ENDCHAR
STARTCHAR 262e
ENCODING 9774
SWIDTH 954 0
DWIDTH 18 0
BBX 18 19 0 -1
BITMAP
000000
23ff00
201000
201000
7c1000
241000
241000
241000
249e00
249000
249000
249000
289000
109000
289000
449000
03ff00
000000
000000
ENDCHAR
STARTCHAR 262f
ENCODING 9775
SWIDTH 954 0
DWIDTH 18 0
BBX 18 19 0 -1
BITMAP
000000
21ff00
210000
210000
7d0000
250000
25fe00
250200
250200
250200
250200
25fe00
290000
110000
290000
450000
01ff00
000000
000000
ENDCHAR
STARTCHAR 2630
ENCODING 9776
SWIDTH 954 0
DWIDTH 18 0
BBX 18 19 0 -1
BITMAP
000000
21ff00
202100
202100
7c2100
244100
244100
248900
240600
240000
25ff00
250100
290100
110100
290100
450100
01ff00
000000
000000
ENDCHAR
STARTCHAR 2631
ENCODING 9777
SWIDTH 954 0
DWIDTH 18 0
BBX 18 19 0 -1
BITMAP
000000
201000
201000
201000
7dff00
251100
251100
25ff00
251100
251100
25ff00
241000
281000
101000
281000
441000
001000
000000
000000
ENDCHAR
STARTCHAR 2632
ENCODING 9778
SWIDTH 954 0
DWIDTH 18 0
BBX 18 19 0 -1
BITMAP
000000
200000
200c00
20f000
7c1000
241000
241000
25ff00
241000
241000
243800
245400
289200
111100
281000
441000
001000
000000
000000
ENDCHAR
STARTCHAR 2633
ENCODING 9779
SWIDTH 954 0
DWIDTH 18 0
BBX 18 19 0 -1
BITMAP
000000
202000
205000
208800
7d0400
260200
24f900
240000
240000
27fc00
240400
240400
280400
108800
285000
442000
001000
000000
000000
ENDCHAR
STARTCHAR 2634
ENCODING 9780
SWIDTH 954 0
DWIDTH 18 0
BBX 18 19 0 -1
BITMAP
000000
207e00
3e4200
424200
224200
145e00
084100
304100
427f00
040000
7fff00
081000
081000
0f2000
00e000
031800
3c0600
000000
000000
ENDCHAR
STARTCHAR 2635
ENCODING 9781
SWIDTH 954 0
DWIDTH 18 0
BBX 18 19 0 -1
BITMAP
000000
0c0800
33ff00
500800
108800
104800
104800
100800
123800
040000
7fff00
081000
081000
0f2000
00e000
031800
3c0600
000000
000000
ENDCHAR
STARTCHAR 2636
ENCODING 9782
SWIDTH 954 0
DWIDTH 18 0
BBX 18 19 0 -1
BITMAP
000000
004000
7c4000
04ff00
048100
190100
13f100
111100
111100
7d1100
11f100
110700
110000
110000
110100
110100
71ff00
000000
000000
ENDCHAR
STARTCHAR 2637
ENCODING 9783
SWIDTH 954 0
DWIDTH 18 0
BBX 18 19 0 -1
BITMAP
000000
200000
207f00
7f2200
241400
140800
081400
142200
634100
000000
1ff000
002000
004000
7fff00
008000
048000
038000
000000
000000
ENDCHAR
STARTCHAR 2638
ENCODING 9784
SWIDTH 954 0
DWIDTH 18 0
BBX 18 19 0 -1
BITMAP
000000
008000
008000
7fff00
400100
410100
008800
088800
081000
282400
284200
498100
0e0200
380200
47fc00
000000
000000
000000
000000
ENDCHAR
STARTCHAR 2639
ENCODING 9785
SWIDTH 954 0
DWIDTH 18 0
BBX 18 19 0 -1
BITMAP
000000
010000
010000
7fff00
400100
400100
3ffc00
040000
080000
100000
2ffc00
480400
080400
080400
080400
080400
0ffc00
000000
000000
ENDCHAR
STARTCHAR 263a
ENCODING 9786
SWIDTH 954 0
DWIDTH 18 0
BBX 18 19 0 -1
BITMAP
000000
3fff00
200100
200100
200100
3fff00
204000
204000
2ffe00
280200
281200
211000
211000
220800
440400
080200
100100
000000
000000
ENDCHAR
STARTCHAR 263b
ENCODING 9787
SWIDTH 954 0
DWIDTH 18 0
BBX 18 19 0 -1
BITMAP
000000
3fff00
200100
200100
200100
3fff00
200000
2ffe00
284200
284200
284200
2ffe00
284200
484200
484200
084200
0ffe00
000000
000000
ENDCHAR
STARTCHAR 263c
ENCODING 9788
SWIDTH 954 0
DWIDTH 18 0
BBX 18 19 0 -1
BITMAP
000000
101000
101000
11ff00
110100
530100
534000
524000
524000
527e00
524000
524000
524000
7e4100
004100
004100
007f00
000000
000000
ENDCHAR
STARTCHAR 263d
ENCODING 9789
SWIDTH 954 0
DWIDTH 18 0
BBX 18 19 0 -1
BITMAP
000000
101000
101000
101000
11ff00
530100
520800
520800
524800
524800
524800
524800
524800
7e8400
008400
010400
020300
000000
000000
ENDCHAR
STARTCHAR 263e
ENCODING 9790
SWIDTH 954 0
DWIDTH 18 0
BBX 18 19 0 -1
BITMAP
000000
100000
10ff00
108000
108000
548000
54fe00
548200
548200
548200
548200
54fe00
548000
7c8000
008000
008000
00ff00
000000
000000
ENDCHAR
STARTCHAR 263f
ENCODING 9791
SWIDTH 954 0
DWIDTH 18 0
BBX 18 19 0 -1
BITMAP
000000
101000
101000
101000
10ff00
521000
521000
521000
521000
52ff00
528100
528100
528100
528100
528100
7eff00
000000
000000
000000
ENDCHAR
STARTCHAR 2640
ENCODING 9792
SWIDTH 954 0
DWIDTH 18 0
BBX 18 19 0 -1
BITMAP
000000
11ff00
100800
100800
101000
523000
525000
525800
529400
531200
521200
521000
521000
7e1000
000000
01ff00
000000
000000
000000
ENDCHAR
STARTCHAR 2641
ENCODING 9793
SWIDTH 954 0
DWIDTH 18 0
BBX 18 19 0 -1
BITMAP
000000
100000
10fc00
108400
548400
548400
548400
54fc00
548400
548400
548400
54fc00
548400
548400
7c8400
008400
07ff00
000000
000000
ENDCHAR
STARTCHAR 2642
ENCODING 9794
SWIDTH 954 0
DWIDTH 18 0
BBX 18 19 0 -1
BITMAP
000000
080000
087f00
084900
084900
494900
494900
497f00
494900
494900
494900
494900
497f00
490800
7f0800
000800
000800
000000
000000
ENDCHAR
STARTCHAR 2643
ENCODING 9795
SWIDTH 954 0
DWIDTH 18 0
BBX 18 19 0 -1
BITMAP
000000
101000
101000
101000
10fe00
529200
529200
529200
529200
53ff00
522800
522800
524400
7e4400
008200
008200
010100
000000
000000
ENDCHAR
STARTCHAR 2644
ENCODING 9796
SWIDTH 954 0
DWIDTH 18 0
BBX 18 19 0 -1
BITMAP
000000
104000
104000
107f00
108100
548100
550100
547900
544900
544900
544900
544900
547900
7c0100
000100
000200
001c00
000000
000000
ENDCHAR
STARTCHAR 2645
ENCODING 9797
SWIDTH 954 0
DWIDTH 18 0
BBX 18 19 0 -1
BITMAP
000000
102000
105000
108800
110400
560200
54f900
540000
540000
57fc00
540400
540400
540800
7c1000
00a000
004000
002000
000000
000000
ENDCHAR
STARTCHAR 2646
ENCODING 9798
SWIDTH 954 0
DWIDTH 18 0
BBX 18 19 0 -1
BITMAP
000000
008000
208200
208200
208200
3ffe00
000000
000000
7fff00
000800
1f8800
108800
108800
108800
1f8800
000800
003800
000000
000000
ENDCHAR
STARTCHAR 2647
ENCODING 9799
SWIDTH 954 0
DWIDTH 18 0
BBX 18 19 0 -1
BITMAP
000000
008000
208200
208200
208200
3ffe00
044000
044000
3ffc00
044400
3ffc00
444000
444000
7ffe00
044200
084200
104e00
000000
000000
ENDCHAR
STARTCHAR 2648
ENCODING 9800
SWIDTH 954 0
DWIDTH 18 0
BBX 18 19 0 -1
BITMAP
000000
008000
208200
208200
208200
3ffe00
000000
3ffe00
020200
040200
380e00
000000
3ffe00
200200
200200
200200
3ffe00
000000
000000
ENDCHAR
STARTCHAR 2649
ENCODING 9801
SWIDTH 954 0
DWIDTH 18 0
BBX 18 19 0 -1
BITMAP
000000
008000
208200
208200
208200
3ffe00
080000
0ffe00
0a0000
120000
13fc00
220000
420000
03fc00
020000
020000
020000
000000
000000
ENDCHAR
STARTCHAR 264a
ENCODING 9802
SWIDTH 954 0
DWIDTH 18 0
BBX 18 19 0 -1
BITMAP
000000
101000
101000
11ff00
111100
551100
551200
551000
557e00
554200
554200
554400
552800
7d1000
022800
024400
038300
000000
000000
ENDCHAR
STARTCHAR 264b
ENCODING 9803
SWIDTH 954 0
DWIDTH 18 0
BBX 18 19 0 -1
BITMAP
000000
000800
081000
082000
087f00
494100
494100
494100
494100
494100
497f00
494100
494100
494100
494100
7f4100
007f00
000000
000000
ENDCHAR
STARTCHAR 264c
ENCODING 9804
SWIDTH 954 0
DWIDTH 18 0
BBX 18 19 0 -1
BITMAP
000000
102400
104400
104400
109f00
552500
552500
552500
54c500
544500
548500
54a500
553500
7d5900
018900
001100
001300
000000
000000
ENDCHAR
STARTCHAR 264d
ENCODING 9805
SWIDTH 954 0
DWIDTH 18 0
BBX 18 19 0 -1
BITMAP
000000
008000
008000
208200
208200
208200
3ffe00
000000
008000
008000
3ffe00
000000
081000
042000
042000
024000
7fff00
000000
000000
ENDCHAR
STARTCHAR 264e
ENCODING 9806
SWIDTH 954 0
DWIDTH 18 0
BBX 18 19 0 -1
BITMAP
000000
104800
104400
104200
7c4000
57ff00
544000
544200
54a200
54a200
54a200
551400
550800
121400
122200
144100
144100
000000
000000
ENDCHAR
STARTCHAR 264f
ENCODING 9807
SWIDTH 954 0
DWIDTH 18 0
BBX 18 19 0 -1
BITMAP
000000
101000
101000
11ff00
7d1100
551100
551200
551000
557e00
554200
554200
552200
551400
110800
121400
122200
12c100
000000
000000
ENDCHAR
STARTCHAR 2650
ENCODING 9808
SWIDTH 954 0
DWIDTH 18 0
BBX 18 19 0 -1
BITMAP
000000
101000
109000
109000
7e9000
52fe00
529000
531000
521000
521000
52ff00
521000
521000
562800
104400
108200
110100
000000
000000
ENDCHAR
STARTCHAR 2651
ENCODING 9809
SWIDTH 954 0
DWIDTH 18 0
BBX 18 19 0 -1
BITMAP
000000
7dfe00
042200
042200
042200
7c2200
404200
409400
410800
7c0000
040000
05fe00
050200
050200
050200
490200
31fe00
000000
000000
ENDCHAR
STARTCHAR 2652
ENCODING 9810
SWIDTH 954 0
DWIDTH 18 0
BBX 18 19 0 -1
BITMAP
000000
7c1000
051100
051100
051100
7dff00
401000
401000
41ff00
7c8200
048200
048200
044400
042800
041000
486c00
318300
000000
000000
ENDCHAR
STARTCHAR 2653
ENCODING 9811
SWIDTH 954 0
DWIDTH 18 0
BBX 18 19 0 -1
BITMAP
000000
784400
088400
088400
090400
7b7f00
430400
450400
412400
792400
091400
091400
090400
090400
090400
491400
310800
000000
000000
ENDCHAR
STARTCHAR 2654
ENCODING 9812
SWIDTH 954 0
DWIDTH 18 0
BBX 18 19 0 -1
BITMAP
000000
780400
09f800
091000
091000
791000
41fe00
411000
411000
791000
091000
091000
094800
0b8500
080300
480100
31f000
000000
000000
ENDCHAR
STARTCHAR 2655
ENCODING 9813
SWIDTH 954 0
DWIDTH 18 0
BBX 18 19 0 -1
BITMAP
000000
040000
07f000
081000
0fe000
004000
004000
7fff00
108400
088800
049000
008000
088800
108400
608300
008000
018000
000000
000000
ENDCHAR
STARTCHAR 2656
ENCODING 9814
SWIDTH 954 0
DWIDTH 18 0
BBX 18 19 0 -1
BITMAP
000000
080000
11fc00
210400
450400
090400
11fc00
310400
510400
110400
110400
11fc00
110400
110400
110400
110400
17ff00
000000
000000
ENDCHAR
STARTCHAR 2657
ENCODING 9815
SWIDTH 954 0
DWIDTH 18 0
BBX 18 19 0 -1
BITMAP
000000
082000
105000
208800
410400
0a0200
15fd00
200000
600000
27fe00
200200
200200
200400
210800
209000
206000
202000
000000
000000
ENDCHAR
STARTCHAR 2658
ENCODING 9816
SWIDTH 954 0
DWIDTH 18 0
BBX 18 19 0 -1
BITMAP
000000
080e00
13f000
221000
421000
0a1000
121000
23ff00
621000
221000
221000
220800
224900
228500
230500
200300
21f900
000000
000000
ENDCHAR
STARTCHAR 2659
ENCODING 9817
SWIDTH 954 0
DWIDTH 18 0
BBX 18 19 0 -1
BITMAP
000000
008000
008000
7fff00
100800
081000
042000
03c000
042000
181800
600700
0a0800
090400
488200
488900
080800
0ff800
000000
000000
ENDCHAR
STARTCHAR 265a
ENCODING 9818
SWIDTH 954 0
DWIDTH 18 0
BBX 18 19 0 -1
BITMAP
000000
100000
1ffc00
100000
200000
4ff800
000000
000000
7ff800
040800
124800
512800
512800
102900
104500
1fc300
000100
000000
000000
ENDCHAR
STARTCHAR 265b
ENCODING 9819
SWIDTH 954 0
DWIDTH 18 0
BBX 18 19 0 -1
BITMAP
000000
104000
102200
501200
541200
548200
548400
568400
128800
128a00
149100
149100
10a100
10a000
10c200
118200
16fe00
000000
000000
ENDCHAR
STARTCHAR 265c
ENCODING 9820
SWIDTH 954 0
DWIDTH 18 0
BBX 18 19 0 -1
BITMAP
000000
100000
11ff00
501000
551100
551100
549200
545400
101000
13ff00
101000
101000
101000
101000
101000
101000
101000
000000
000000
ENDCHAR
STARTCHAR 265d
ENCODING 9821
SWIDTH 954 0
DWIDTH 18 0
BBX 18 19 0 -1
BITMAP
000000
102000
102000
502000
542000
57ff00
542000
502000
102000
102000
13fe00
120200
120200
120200
120200
120200
13fe00
000000
000000
ENDCHAR
STARTCHAR 265e
ENCODING 9822
SWIDTH 954 0
DWIDTH 18 0
BBX 18 19 0 -1
BITMAP
000000
100000
13ff00
101000
541000
541000
57ff00
561100
121100
121100
122900
124500
128300
120100
120100
120100
120300
000000
000000
ENDCHAR
STARTCHAR 265f
ENCODING 9823
SWIDTH 954 0
DWIDTH 18 0
BBX 18 19 0 -1
BITMAP
000000
11fe00
110200
510200
550200
55fe00
552000
552000
51ff00
112000
112000
112000
111100
111100
112900
114900
138700
000000
000000
ENDCHAR
STARTCHAR 2660
ENCODING 9824
SWIDTH 954 0
DWIDTH 18 0
BBX 18 19 0 -1
BITMAP
000000
102400
102200
502100
55ff00
552000
552000
552100
112100
112200
112200
111400
115400
114900
139900
102500
10c300
000000
000000
ENDCHAR
STARTCHAR 2661
ENCODING 9825
SWIDTH 954 0
DWIDTH 18 0
BBX 18 19 0 -1
BITMAP
000000
11ff00
102100
502100
542100
544100
544100
549200
510c00
100000
11ff00
110100
110100
110100
110100
110100
11ff00
000000
000000
ENDCHAR
STARTCHAR 2662
ENCODING 9826
SWIDTH 954 0
DWIDTH 18 0
BBX 18 19 0 -1
BITMAP
000000
102000
102000
502000
543e00
542000
542000
542000
502000
11fe00
110200
110200
110200
110200
110200
11fe00
100000
000000
000000
ENDCHAR
STARTCHAR 2663
ENCODING 9827
SWIDTH 954 0
DWIDTH 18 0
BBX 18 19 0 -1
BITMAP
000000
11fe00
110200
510200
550200
550200
550200
55fe00
505000
105000
105000
105000
105000
109100
109100
111100
121f00
000000
000000
ENDCHAR
STARTCHAR 2664
ENCODING 9828
SWIDTH 954 0
DWIDTH 18 0
BBX 18 19 0 -1
BITMAP
000000
100100
10fc00
508400
548400
548400
54fc00
548400
508400
108400
10fc00
108400
108400
108400
108400
108400
13ff00
000000
000000
ENDCHAR
STARTCHAR 2665
ENCODING 9829
SWIDTH 954 0
DWIDTH 18 0
BBX 18 19 0 -1
BITMAP
000000
101000
101000
501000
541000
55ff00
551100
551100
111100
111100
11ff00
111100
111100
111100
111100
11ff00
100000
000000
000000
ENDCHAR
STARTCHAR 2666
ENCODING 9830
SWIDTH 954 0
DWIDTH 18 0
BBX 18 19 0 -1
BITMAP
000000
100000
11ff00
512900
552900
552900
552900
512900
112900
114900
118f00
110100
110100
110100
110100
11ff00
100000
000000
000000
ENDCHAR
STARTCHAR 2667
ENCODING 9831
SWIDTH 954 0
DWIDTH 18 0
BBX 18 19 0 -1
BITMAP
000000
101000
109000
509000
54fe00
551000
561000
501000
101000
11ff00
101000
101000
101000
102800
104400
108200
110100
000000
000000
ENDCHAR
STARTCHAR 2668
ENCODING 9832
SWIDTH 954 0
DWIDTH 18 0
BBX 18 19 0 -1
BITMAP
000000
108000
108000
508000
54ff00
552000
552000
562000
103e00
102000
102000
103e00
102000
102000
102000
102000
102000
000000
000000
ENDCHAR
STARTCHAR 2669
ENCODING 9833
SWIDTH 954 0
DWIDTH 18 0
BBX 18 19 0 -1
BITMAP
000000
104000
104000
107f00
504100
548100
550100
547900
544900
504900
104900
104900
107900
100100
100100
100900
100700
000000
000000
ENDCHAR
STARTCHAR 266a
ENCODING 9834
SWIDTH 954 0
DWIDTH 18 0
BBX 18 19 0 -1
BITMAP
000000
104400
104400
504400
549f00
552500
562500
552500
10c500
108500
108500
110500
124500
146900
17a900
101500
106600
000000
000000
ENDCHAR
STARTCHAR 266b
ENCODING 9835
SWIDTH 954 0
DWIDTH 18 0
BBX 18 19 0 -1
BITMAP
000000
120000
120000
520000
5fdf00
525100
525100
525100
125100
125100
124a00
124400
114a00
108a00
115100
123100
141100
000000
000000
ENDCHAR
STARTCHAR 266c
ENCODING 9836
SWIDTH 954 0
DWIDTH 18 0
BBX 18 19 0 -1
BITMAP
000000
102000
122200
522200
552400
54a800
542000
55fc00
102000
102000
102000
13ff00
102000
102000
102000
102000
102000
000000
000000
ENDCHAR
STARTCHAR 266d
ENCODING 9837
SWIDTH 954 0
DWIDTH 18 0
BBX 18 19 0 -1
BITMAP
000000
17ff00
102000
502000
542000
546000
54a800
552400
522200
142100
102000
102000
102000
102000
102000
17ff00
100000
000000
000000
ENDCHAR
STARTCHAR 266e
ENCODING 9838
SWIDTH 954 0
DWIDTH 18 0
BBX 18 19 0 -1
BITMAP
000000
102000
102000
502000
547f00
548100
550100
54f900
108900
108900
10f900
108100
108700
108000
108100
108100
10ff00
000000
000000
ENDCHAR
STARTCHAR 266f
ENCODING 9839
SWIDTH 954 0
DWIDTH 18 0
BBX 18 19 0 -1
BITMAP
000000
101000
102800
504400
548200
550100
567e00
540000
100000
100000
11ff00
100100
104100
102600
101800
101000
100800
000000
000000
ENDCHAR
STARTCHAR 2670
ENCODING 9840
SWIDTH 954 0
DWIDTH 18 0
BBX 18 19 0 -1
BITMAP
000000
022000
021000
7ffe00
010000
00a000
004000
00a200
3f1e00
044000
042000
7fff00
020000
014000
008000
014200
7e3e00
000000
000000
ENDCHAR
STARTCHAR 2671
ENCODING 9841
SWIDTH 954 0
DWIDTH 18 0
BBX 18 19 0 -1
BITMAP
000000
01f000
3e0000
200000
3ffc00
200400
3ffc00
241000
221000
211000
241200
221c00
213000
41d000
5e1000
001000
001000
000000
000000
ENDCHAR
STARTCHAR 2672
ENCODING 9842
SWIDTH 954 0
DWIDTH 18 0
BBX 18 19 0 -1
BITMAP
000000
201000
201000
21ff00
790100
210100
280000
304800
204800
604800
204800
204800
208800
208800
210900
210900
620f00
000000
000000
ENDCHAR
STARTCHAR 2673
ENCODING 9843
SWIDTH 954 0
DWIDTH 18 0
BBX 18 19 0 -1
BITMAP
000000
210000
212200
212200
792200
27ff00
292200
312200
212200
612200
212200
212200
213e00
210000
210000
210000
61ff00
000000
000000
ENDCHAR
STARTCHAR 2674
ENCODING 9844
SWIDTH 954 0
DWIDTH 18 0
BBX 18 19 0 -1
BITMAP
000000
108400
108400
108400
108400
7dff00
108400
128400
148400
188400
10fc00
308400
508400
108400
108400
508400
30fc00
000000
000000
ENDCHAR
STARTCHAR 2675
ENCODING 9845
SWIDTH 954 0
DWIDTH 18 0
BBX 18 19 0 -1
BITMAP
000000
202000
202000
202000
7bfc00
202000
282000
302000
27fe00
604000
204000
208800
208400
210200
221d00
27e100
600000
000000
000000
ENDCHAR
STARTCHAR 2676
ENCODING 9846
SWIDTH 954 0
DWIDTH 18 0
BBX 18 19 0 -1
BITMAP
000000
204000
27ff00
208000
788000
212000
292000
33fe00
262200
6a2200
222200
222200
222200
222200
222600
202000
602000
000000
000000
ENDCHAR
STARTCHAR 2677
ENCODING 9847
SWIDTH 954 0
DWIDTH 18 0
BBX 18 19 0 -1
BITMAP
000000
202000
212000
212000
79fc00
212000
2a2000
362000
23fe00
602000
202000
205000
205000
208800
210400
220200
640100
000000
000000
ENDCHAR
STARTCHAR 2678
ENCODING 9848
SWIDTH 954 0
DWIDTH 18 0
BBX 18 19 0 -1
BITMAP
000000
204400
204400
208400
788400
217f00
290400
330400
254400
652400
291400
210400
210400
210400
210400
210400
611c00
000000
000000
ENDCHAR
STARTCHAR 2679
ENCODING 9849
SWIDTH 954 0
DWIDTH 18 0
BBX 18 19 0 -1
BITMAP
000000
202000
205000
208800
790400
221200
242100
284000
318800
201000
602000
204200
218400
200800
201000
202000
63c000
000000
000000
ENDCHAR
STARTCHAR 267a
ENCODING 9850
SWIDTH 954 0
DWIDTH 18 0
BBX 18 19 0 -1
BITMAP
000000
23fe00
220200
220200
7a0200
23fe00
220000
2a0000
328000
228200
62fc00
228000
228000
248000
248100
248100
64ff00
000000
000000
ENDCHAR
STARTCHAR 267b
ENCODING 9851
SWIDTH 954 0
DWIDTH 18 0
BBX 18 19 0 -1
BITMAP
000000
200000
21fc00
210400
790400
210400
210400
29fc00
310400
210400
610400
21fc00
210400
210400
210400
210400
67ff00
000000
000000
ENDCHAR
STARTCHAR 267c
ENCODING 9852
SWIDTH 954 0
DWIDTH 18 0
BBX 18 19 0 -1
BITMAP
000000
101000
101000
101000
11ff00
7d1100
111100
151100
19ff00
111100
311100
511100
11ff00
101000
101000
501000
301000
000000
000000
ENDCHAR
STARTCHAR 267d
ENCODING 9853
SWIDTH 954 0
DWIDTH 18 0
BBX 18 19 0 -1
BITMAP
000000
202000
202000
202000
7bfe00
222200
222200
2a2200
33fe00
222200
622200
222200
27ff00
220200
220200
220200
620600
000000
000000
ENDCHAR
STARTCHAR 267e
ENCODING 9854
SWIDTH 954 0
DWIDTH 18 0
BBX 18 19 0 -1
BITMAP
000000
202000
202000
202000
7bfe00
222200
222200
2a2200
322200
27ff00
602000
202000
205000
208800
210400
220200
640100
000000
000000
ENDCHAR
STARTCHAR 2721
ENCODING 10017
SWIDTH 954 0
DWIDTH 18 0
BBX 18 19 0 -1
BITMAP
000000
200c00
207000
238000
782000
202000
23fe00
280200
300200
200c00
601000
202000
24c000
270000
2a0000
290000
68ff00
000000
000000
ENDCHAR
STARTCHAR 2722
ENCODING 10018
SWIDTH 954 0
DWIDTH 18 0
BBX 18 19 0 -1
BITMAP
000000
000000
282000
282000
443f00
422100
014100
00a100
7e2100
222100
222200
221400
220800
221400
422200
144100
088100
000000
000000
ENDCHAR
STARTCHAR 2723
ENCODING 10019
SWIDTH 954 0
DWIDTH 18 0
BBX 18 19 0 -1
BITMAP
000000
040e00
44f000
448000
448000
448000
7cff00
048800
048800
048800
7c8800
448800
448800
448800
448800
450800
060800
000000
000000
ENDCHAR
STARTCHAR 2724
ENCODING 10020
SWIDTH 954 0
DWIDTH 18 0
BBX 18 19 0 -1
BITMAP
000000
202000
102000
7e7f00
108000
100000
1e3c00
122400
122400
122400
222400
222400
222400
222400
424500
444500
1c8700
000000
000000
ENDCHAR
STARTCHAR 2725
ENCODING 10021
SWIDTH 954 0
DWIDTH 18 0
BBX 18 19 0 -1
BITMAP
000000
002000
002000
7c2000
47fe00
444000
444000
447e00
7c4200
444200
444200
444200
444200
444200
7c4200
008a00
010400
000000
000000
ENDCHAR
STARTCHAR 2726
ENCODING 10022
SWIDTH 954 0
DWIDTH 18 0
BBX 18 19 0 -1
BITMAP
000000
001000
001000
7dff00
448200
448200
448200
448200
7c8200
444400
442800
441000
442800
444400
7c8200
010100
010100
000000
000000
ENDCHAR
STARTCHAR 2727
ENCODING 10023
SWIDTH 954 0
DWIDTH 18 0
BBX 18 19 0 -1
BITMAP
000000
000200
01fc00
790000
490000
490000
49fe00
498200
798200
498200
494400
492800
491000
792800
024400
048200
090100
000000
000000
ENDCHAR
STARTCHAR 2728
ENCODING 10024
SWIDTH 954 0
DWIDTH 18 0
BBX 18 19 0 -1
BITMAP
000000
008000
008000
788000
49ff00
4a4900
4c4900
484900
784900
484900
488900
488900
491100
7e2100
004100
009200
070c00
000000
000000
ENDCHAR
STARTCHAR 2729
ENCODING 10025
SWIDTH 954 0
DWIDTH 18 0
BBX 18 19 0 -1
BITMAP
000000
000c00
01f000
7d0000
450000
45fe00
450200
450200
7d0200
45fe00
450000
450000
450000
450000
7d0000
020000
020000
000000
000000
ENDCHAR
STARTCHAR 272a
ENCODING 10026
SWIDTH 954 0
DWIDTH 18 0
BBX 18 19 0 -1
BITMAP
000000
3ff800
200800
200800
3ff800
200800
200800
3ff800
010000
010000
7fff00
082000
044000
028000
010000
028000
7c7e00
000000
000000
ENDCHAR
STARTCHAR 272b
ENCODING 10027
SWIDTH 954 0
DWIDTH 18 0
BBX 18 19 0 -1
BITMAP
000000
1ffc00
100400
100400
1ffc00
100400
100400
1ffc00
000000
3fff00
204000
204000
20a000
211000
420800
040400
180300
000000
000000
ENDCHAR
STARTCHAR 272c
ENCODING 10028
SWIDTH 954 0
DWIDTH 18 0
BBX 18 19 0 -1
BITMAP
000000
00f800
3f0000
010000
010000
7fff00
042000
081000
100800
200400
5ffb00
100800
100800
1ff800
100800
100800
1ff800
000000
000000
ENDCHAR
STARTCHAR 272d
ENCODING 10029
SWIDTH 954 0
DWIDTH 18 0
BBX 18 19 0 -1
BITMAP
000000
7f7f00
414100
414100
414100
414100
414100
414100
7f7f00
414100
414100
414100
414100
414100
7f7f00
000000
000000
000000
000000
ENDCHAR
STARTCHAR 272e
ENCODING 10030
SWIDTH 954 0
DWIDTH 18 0
BBX 18 19 0 -1
BITMAP
000000
01fc00
008400
7c8400
448400
448800
449000
44bf00
7c8100
448100
44c100
452200
451400
7d0800
021400
022200
02c100
000000
000000
ENDCHAR
STARTCHAR 272f
ENCODING 10031
SWIDTH 954 0
DWIDTH 18 0
BBX 18 19 0 -1
BITMAP
000000
002000
002000
79fe00
482000
482000
482000
4a2200
7a2200
4a2200
4a2200
4a2200
4bfe00
782000
002100
002100
003f00
000000
000000
ENDCHAR
STARTCHAR 2730
ENCODING 10032
SWIDTH 954 0
DWIDTH 18 0
BBX 18 19 0 -1
BITMAP
000000
002000
005000
7c8800
450400
460200
44f900
440000
7c0000
45fc00
440400
440400
440400
7c0800
001000
002000
004000
000000
000000
ENDCHAR
STARTCHAR 2731
ENCODING 10033
SWIDTH 954 0
DWIDTH 18 0
BBX 18 19 0 -1
BITMAP
000000
002000
002000
789000
488800
490400
4a0200
4dfd00
788400
488400
488400
488400
488400
790400
010400
022800
041000
000000
000000
ENDCHAR
STARTCHAR 2732
ENCODING 10034
SWIDTH 954 0
DWIDTH 18 0
BBX 18 19 0 -1
BITMAP
000000
080000
0fff00
122100
222100
422100
0c4100
308100
071100
000e00
1ff800
100800
100800
1ff800
100800
100800
1ff800
000000
000000
ENDCHAR
STARTCHAR 2733
ENCODING 10035
SWIDTH 954 0
DWIDTH 18 0
BBX 18 19 0 -1
BITMAP
000000
3c0100
24fc00
240000
240000
3c0000
240000
27ff00
248800
3c8800
248800
248800
248800
248800
448900
050900
0e0f00
000000
000000
ENDCHAR
STARTCHAR 2734
ENCODING 10036
SWIDTH 954 0
DWIDTH 18 0
BBX 18 19 0 -1
BITMAP
000000
100000
11ff00
104400
104400
7e4400
104400
104400
13ff00
384400
544400
124400
104400
104400
108400
110400
120400
000000
000000
ENDCHAR
STARTCHAR 2735
ENCODING 10037
SWIDTH 954 0
DWIDTH 18 0
BBX 18 19 0 -1
BITMAP
000000
100000
10fc00
100000
7c0000
100000
100000
3bff00
548800
108800
108800
108800
108800
108800
108900
110900
120f00
000000
000000
ENDCHAR
STARTCHAR 2736
ENCODING 10038
SWIDTH 954 0
DWIDTH 18 0
BBX 18 19 0 -1
BITMAP
000000
102000
102000
102000
7dfc00
102000
102000
382000
57fe00
142000
102000
105000
105000
108800
108800
110400
120200
000000
000000
ENDCHAR
STARTCHAR 2737
ENCODING 10039
SWIDTH 954 0
DWIDTH 18 0
BBX 18 19 0 -1
BITMAP
000000
10ff00
100400
104400
7c8400
108400
110400
39ff00
540c00
101400
102400
104400
108400
110400
120400
100400
101c00
000000
000000
ENDCHAR
STARTCHAR 2738
ENCODING 10040
SWIDTH 954 0
DWIDTH 18 0
BBX 18 19 0 -1
BITMAP
000000
102000
102000
11fc00
7c2000
102000
112400
392400
552400
112400
112400
11fc00
102000
102000
102100
102100
103f00
000000
000000
ENDCHAR
STARTCHAR 2739
ENCODING 10041
SWIDTH 954 0
DWIDTH 18 0
BBX 18 19 0 -1
BITMAP
000000
11fc00
104400
104400
7c4400
104400
184400
344400
33ff00
508400
508400
108400
108400
108400
108400
108400
17ff00
000000
000000
ENDCHAR
STARTCHAR 273a
ENCODING 10042
SWIDTH 954 0
DWIDTH 18 0
BBX 18 19 0 -1
BITMAP
000000
101000
101000
101000
7fff00
121100
121100
3a3100
564900
128500
128500
120100
120100
120100
120100
120100
120300
000000
000000
ENDCHAR
STARTCHAR 273b
ENCODING 10043
SWIDTH 954 0
DWIDTH 18 0
BBX 18 19 0 -1
BITMAP
000000
100c00
11f000
102000
7c2000
102000
11fe00
382000
542000
102000
13ff00
102000
102000
102000
102100
102100
103f00
000000
000000
ENDCHAR
STARTCHAR 273c
ENCODING 10044
SWIDTH 954 0
DWIDTH 18 0
BBX 18 19 0 -1
BITMAP
000000
104000
104000
104000
7cff00
110100
120100
384100
544100
104900
108900
111d00
11e100
100100
100100
101200
100c00
000000
000000
ENDCHAR
STARTCHAR 273d
ENCODING 10045
SWIDTH 954 0
DWIDTH 18 0
BBX 18 19 0 -1
BITMAP
000000
104000
104000
104000
7cff00
111100
101100
381000
541000
101000
102800
102800
104400
104400
108200
108200
110100
000000
000000
ENDCHAR
STARTCHAR 273e
ENCODING 10046
SWIDTH 954 0
DWIDTH 18 0
BBX 18 19 0 -1
BITMAP
000000
101000
105000
104800
7c8400
110200
120100
38fe00
544000
104000
10fe00
100200
100200
100200
100200
104400
103800
000000
000000
ENDCHAR
STARTCHAR 273f
ENCODING 10047
SWIDTH 954 0
DWIDTH 18 0
BBX 18 19 0 -1
BITMAP
000000
101000
104800
104400
7c8400
110200
120100
39fe00
544200
104200
104200
104200
104200
108200
108200
112400
121800
000000
000000
ENDCHAR
STARTCHAR 2740
ENCODING 10048
SWIDTH 954 0
DWIDTH 18 0
BBX 18 19 0 -1
BITMAP
000000
100000
104000
104000
7c5000
104800
114400
394000
554400
124200
124100
104000
104200
104200
107e00
100000
100000
000000
000000
ENDCHAR
STARTCHAR 2741
ENCODING 10049
SWIDTH 954 0
DWIDTH 18 0
BBX 18 19 0 -1
BITMAP
000000
100000
100000
10fe00
7c0000
100000
100000
39ff00
542000
102000
102000
104000
104000
108200
110100
11ff00
100100
000000
000000
ENDCHAR
STARTCHAR 2742
ENCODING 10050
SWIDTH 954 0
DWIDTH 18 0
BBX 18 19 0 -1
BITMAP
000000
100000
11fe00
104000
7c4000
104000
107e00
388200
548200
108200
108200
10fe00
100200
100400
100400
100800
13ff00
000000
000000
ENDCHAR
STARTCHAR 2743
ENCODING 10051
SWIDTH 954 0
DWIDTH 18 0
BBX 18 19 0 -1
BITMAP
000000
11ff00
110000
110000
7d7e00
114200
114200
394200
554200
114e00
114000
114000
124000
124100
124100
124100
127f00
000000
000000
ENDCHAR
STARTCHAR 2744
ENCODING 10052
SWIDTH 954 0
DWIDTH 18 0
BBX 18 19 0 -1
BITMAP
000000
108000
108000
108000
7cff00
110100
120100
380100
54f900
100100
100100
10f900
100100
100100
100100
101200
100c00
000000
000000
ENDCHAR
STARTCHAR 2745
ENCODING 10053
SWIDTH 954 0
DWIDTH 18 0
BBX 18 19 0 -1
BITMAP
000000
100c00
10f000
101000
7c1000
101000
11fe00
381000
541000
101000
13ff00
101000
101000
101000
101000
105000
103000
000000
000000
ENDCHAR
STARTCHAR 2746
ENCODING 10054
SWIDTH 954 0
DWIDTH 18 0
BBX 18 19 0 -1
BITMAP
000000
100000
13fc00
110400
7d0400
110800
111000
397f00
558100
114100
112200
112200
121400
140800
101400
102400
11c300
000000
000000
ENDCHAR
STARTCHAR 2747
ENCODING 10055
SWIDTH 954 0
DWIDTH 18 0
BBX 18 19 0 -1
BITMAP
000000
100000
10f800
108800
7c8800
108800
108800
390f00
560000
11f800
110800
110800
109000
106000
106000
109000
170e00
000000
000000
ENDCHAR
STARTCHAR 2748
ENCODING 10056
SWIDTH 954 0
DWIDTH 18 0
BBX 18 19 0 -1
BITMAP
000000
105000
105000
105000
7c9000
119000
129f00
389000
549000
109000
109000
109000
109000
109000
109100
109100
109f00
000000
000000
ENDCHAR
STARTCHAR 2749
ENCODING 10057
SWIDTH 954 0
DWIDTH 18 0
BBX 18 19 0 -1
BITMAP
000000
102000
105000
108800
7d0400
120200
10f900
380000
540000
11fc00
100400
100400
100400
100800
101000
102000
104000
000000
000000
ENDCHAR
STARTCHAR 274a
ENCODING 10058
SWIDTH 954 0
DWIDTH 18 0
BBX 18 19 0 -1
BITMAP
000000
004000
004000
7c7f00
448100
451100
461200
441000
7c1000
441000
441000
442800
442800
444400
7c4400
008200
010100
000000
000000
ENDCHAR
STARTCHAR 274b
ENCODING 10059
SWIDTH 954 0
DWIDTH 18 0
BBX 18 19 0 -1
BITMAP
000000
000e00
7ef000
201000
201000
3e1000
421000
43ff00
021000
221000
121000
0c2800
082800
104400
204400
408200
010100
000000
000000
ENDCHAR
STARTCHAR 274c
ENCODING 10060
SWIDTH 954 0
DWIDTH 18 0
BBX 18 19 0 -1
BITMAP
000000
008000
7e8000
208000
20ff00
3d2500
462500
442500
442500
244900
148900
091100
101100
102100
204100
409100
010e00
000000
000000
ENDCHAR
STARTCHAR 274d
ENCODING 10061
SWIDTH 954 0
DWIDTH 18 0
BBX 18 19 0 -1
BITMAP
000000
404000
404000
7f7e00
404000
404000
404100
474100
787f00
000000
1ff000
010000
3ff800
010000
3ff800
010100
01ff00
000000
000000
ENDCHAR
STARTCHAR 274e
ENCODING 10062
SWIDTH 954 0
DWIDTH 18 0
BBX 18 19 0 -1
BITMAP
000000
100000
1ffc00
200000
5ffc00
000000
7ffc00
020400
020400
7fe400
422400
422400
452400
58a400
402500
402300
406100
000000
000000
ENDCHAR
STARTCHAR 274f
ENCODING 10063
SWIDTH 954 0
DWIDTH 18 0
BBX 18 19 0 -1
BITMAP
000000
008200
008400
7e8800
02d000
04a000
089000
128800
218400
400200
3ffd00
200400
200400
3ffc00
200400
200400
3ffc00
000000
000000
ENDCHAR
STARTCHAR 2750
ENCODING 10064
SWIDTH 954 0
DWIDTH 18 0
BBX 18 19 0 -1
BITMAP
000000
402000
202000
17ff00
040100
040100
401000
209000
009000
009000
109000
109000
109000
210800
410400
020200
040100
000000
000000
ENDCHAR
STARTCHAR 2751
ENCODING 10065
SWIDTH 954 0
DWIDTH 18 0
BBX 18 19 0 -1
BITMAP
000000
402000
202000
17ff00
004000
008000
410400
220800
011000
00a000
104000
108000
110000
220400
440200
07fe00
000200
000000
000000
ENDCHAR
STARTCHAR 2752
ENCODING 10066
SWIDTH 954 0
DWIDTH 18 0
BBX 18 19 0 -1
BITMAP
000000
402000
202000
122200
012400
00a800
402000
21fc00
002000
002000
102000
17ff00
102000
202000
402000
002000
002000
000000
000000
ENDCHAR
STARTCHAR 2753
ENCODING 10067
SWIDTH 954 0
DWIDTH 18 0
BBX 18 19 0 -1
BITMAP
000000
43fe00
202000
102000
022200
022200
412400
20a800
002000
002000
17ff00
102000
102000
202000
402000
002000
002000
000000
000000
ENDCHAR
STARTCHAR 2754
ENCODING 10068
SWIDTH 954 0
DWIDTH 18 0
BBX 18 19 0 -1
BITMAP
000000
400000
21fc00
100000
000000
000000
400000
27ff00
002000
002000
102000
112400
122200
242100
402000
00a000
006000
000000
000000
ENDCHAR
STARTCHAR 2755
ENCODING 10069
SWIDTH 954 0
DWIDTH 18 0
BBX 18 19 0 -1
BITMAP
000000
410400
210400
110400
010400
07ff00
410400
210400
010400
01fc00
110400
110400
110400
210400
410400
01fc00
000000
000000
000000
ENDCHAR
STARTCHAR 2756
ENCODING 10070
SWIDTH 954 0
DWIDTH 18 0
BBX 18 19 0 -1
BITMAP
000000
402400
202200
102100
07ff00
002000
402000
212400
012400
012400
112400
122400
122400
242700
402000
002000
002000
000000
000000
ENDCHAR
STARTCHAR 2757
ENCODING 10071
SWIDTH 954 0
DWIDTH 18 0
BBX 18 19 0 -1
BITMAP
000000
401400
201400
101200
03ff00
021000
421000
221000
021200
021200
121200
121200
121400
224900
429500
072300
00c100
000000
000000
ENDCHAR
STARTCHAR 2758
ENCODING 10072
SWIDTH 954 0
DWIDTH 18 0
BBX 18 19 0 -1
BITMAP
000000
404400
204200
104100
03ff00
004000
404000
204200
00a200
00a200
112200
112400
121400
220800
441400
042200
01c100
000000
000000
ENDCHAR
STARTCHAR 2759
ENCODING 10073
SWIDTH 954 0
DWIDTH 18 0
BBX 18 19 0 -1
BITMAP
000000
47c800
244800
144800
047f00
048900
450900
248900
044900
044900
144900
17c900
141100
241100
442100
042100
044300
000000
000000
ENDCHAR
STARTCHAR 275a
ENCODING 10074
SWIDTH 954 0
DWIDTH 18 0
BBX 18 19 0 -1
BITMAP
000000
47ff00
240100
140100
04f900
048900
448900
248900
048900
048900
14f900
140100
140100
240100
440100
040100
040300
000000
000000
ENDCHAR
STARTCHAR 275b
ENCODING 10075
SWIDTH 954 0
DWIDTH 18 0
BBX 18 19 0 -1
BITMAP
000000
000000
47ff00
242100
142100
042100
042100
442100
242100
07ff00
042100
142100
142100
142100
242100
442100
07ff00
000000
000000
ENDCHAR
STARTCHAR 275c
ENCODING 10076
SWIDTH 954 0
DWIDTH 18 0
BBX 18 19 0 -1
BITMAP
000000
410000
210000
11ff00
020100
040100
480100
23f100
021100
021100
121100
13f100
100100
200100
400200
002400
001800
000000
000000
ENDCHAR
STARTCHAR 275d
ENCODING 10077
SWIDTH 954 0
DWIDTH 18 0
BBX 18 19 0 -1
BITMAP
000000
422000
222000
122000
03fc00
042000
482000
202000
07fe00
005000
105000
108800
108800
210400
410400
020200
040100
000000
000000
ENDCHAR
STARTCHAR 275e
ENCODING 10078
SWIDTH 954 0
DWIDTH 18 0
BBX 18 19 0 -1
BITMAP
000000
408400
208400
108400
010400
017f00
420400
230400
054400
092400
111400
111400
110400
210400
410400
010400
011c00
000000
000000
ENDCHAR
STARTCHAR 275f
ENCODING 10079
SWIDTH 954 0
DWIDTH 18 0
BBX 18 19 0 -1
BITMAP
000000
401000
21fe00
111000
011000
021000
021000
43ff00
203100
005100
005100
009100
089100
111100
261300
405000
003000
000000
000000
ENDCHAR
STARTCHAR 2760
ENCODING 10080
SWIDTH 954 0
DWIDTH 18 0
BBX 18 19 0 -1
BITMAP
000000
400e00
23f400
112400
012400
012400
412400
212400
012400
012400
012400
112400
124400
244200
488a00
00f900
000900
000000
000000
ENDCHAR
STARTCHAR 2761
ENCODING 10081
SWIDTH 954 0
DWIDTH 18 0
BBX 18 19 0 -1
BITMAP
000000
400e00
23f000
120000
020000
020000
43fe00
221000
021000
02d000
023800
121400
141200
141000
241000
481000
081000
000000
000000
ENDCHAR
STARTCHAR 2762
ENCODING 10082
SWIDTH 954 0
DWIDTH 18 0
BBX 18 19 0 -1
BITMAP
000000
402000
205000
108800
010400
061300
002000
404000
238800
001000
002000
004000
138400
100800
201000
402000
07c000
000000
000000
ENDCHAR
STARTCHAR 2763
ENCODING 10083
SWIDTH 954 0
DWIDTH 18 0
BBX 18 19 0 -1
BITMAP
000000
080000
080800
080800
7f8800
488900
49ea00
082c00
082800
084c00
0c8a00
150900
140800
240800
441900
440100
07ff00
000000
000000
ENDCHAR
STARTCHAR 2764
ENCODING 10084
SWIDTH 954 0
DWIDTH 18 0
BBX 18 19 0 -1
BITMAP
000000
080800
080800
080800
090900
6aea00
2c2c00
282800
2c2c00
4a4a00
4a4a00
098900
080800
080800
080800
080800
381800
000000
000000
ENDCHAR
STARTCHAR 2765
ENCODING 10085
SWIDTH 954 0
DWIDTH 18 0
BBX 18 19 0 -1
BITMAP
000000
087e00
080200
080200
091400
6a0800
2c0800
28ff00
2c0900
4a0900
4a0800
090800
080800
080800
080800
080800
383800
000000
000000
ENDCHAR
STARTCHAR 2766
ENCODING 10086
SWIDTH 954 0
DWIDTH 18 0
BBX 18 19 0 -1
BITMAP
000000
402000
202000
17ff00
040100
040100
400000
23fe00
002000
002000
102000
102000
102000
202000
402000
002000
00e000
000000
000000
ENDCHAR
STARTCHAR 2767
ENCODING 10087
SWIDTH 954 0
DWIDTH 18 0
BBX 18 19 0 -1
BITMAP
000000
43ff00
200100
100100
000100
01f900
000100
41f900
210900
010900
010900
01f900
080100
100100
200100
400100
000700
000000
000000
ENDCHAR
STARTCHAR 2768
ENCODING 10088
SWIDTH 954 0
DWIDTH 18 0
BBX 18 19 0 -1
BITMAP
000000
43ff00
220000
120000
020000
03fe00
420200
220200
020200
020200
13fe00
120000
120000
220000
420000
020000
03ff00
000000
000000
ENDCHAR
STARTCHAR 2769
ENCODING 10089
SWIDTH 954 0
DWIDTH 18 0
BBX 18 19 0 -1
BITMAP
000000
402000
202000
17ff00
002000
002000
407000
20a800
00a800
012400
122200
142100
11fc00
202000
402000
002000
002000
000000
000000
ENDCHAR
STARTCHAR 276a
ENCODING 10090
SWIDTH 954 0
DWIDTH 18 0
BBX 18 19 0 -1
BITMAP
000000
020000
420000
220000
0fcf00
024900
424900
224900
024900
024900
124900
124900
124900
224900
444900
084900
11cf00
000000
000000
ENDCHAR
STARTCHAR 276b
ENCODING 10091
SWIDTH 954 0
DWIDTH 18 0
BBX 18 19 0 -1
BITMAP
000000
000000
47ff00
204000
004000
004000
004000
404000
208000
01ff00
028100
148100
108100
108100
208100
408100
00ff00
000000
000000
ENDCHAR
STARTCHAR 276c
ENCODING 10092
SWIDTH 954 0
DWIDTH 18 0
BBX 18 19 0 -1
BITMAP
000000
400000
21fc00
110400
010400
010400
410400
21fc00
010400
010400
110400
110400
11fc00
200000
400000
07ff00
000000
000000
000000
ENDCHAR
STARTCHAR 276d
ENCODING 10093
SWIDTH 954 0
DWIDTH 18 0
BBX 18 19 0 -1
BITMAP
000000
402000
202000
122200
022200
022200
422200
222200
03fe00
002000
002000
042100
142100
142100
242100
442100
07ff00
000000
000000
ENDCHAR
STARTCHAR 276e
ENCODING 10094
SWIDTH 954 0
DWIDTH 18 0
BBX 18 19 0 -1
BITMAP
000000
002000
422000
222000
03fe00
022000
042000
402000
202000
03fe00
002000
082000
082000
102000
202000
47ff00
000000
000000
000000
ENDCHAR
STARTCHAR 276f
ENCODING 10095
SWIDTH 954 0
DWIDTH 18 0
BBX 18 19 0 -1
BITMAP
000000
410800
210800
120800
020800
045f00
444900
228900
010900
010900
120900
140900
148900
28d100
4f5100
002100
002700
000000
000000
ENDCHAR
STARTCHAR 2770
ENCODING 10096
SWIDTH 954 0
DWIDTH 18 0
BBX 18 19 0 -1
BITMAP
000000
102000
102000
502000
542000
55fc00
542400
502400
102400
13ff00
102000
102000
105000
108800
290400
460200
040100
000000
000000
ENDCHAR
STARTCHAR 2771
ENCODING 10097
SWIDTH 954 0
DWIDTH 18 0
BBX 18 19 0 -1
BITMAP
000000
100300
101c00
50e000
548000
548000
54ff00
108800
108800
108800
108800
108800
108800
108800
290800
450800
030800
000000
000000
ENDCHAR
STARTCHAR 2772
ENCODING 10098
SWIDTH 954 0
DWIDTH 18 0
BBX 18 19 0 -1
BITMAP
000000
1ffc00
100400
1ffc00
100400
1ffc00
000000
008000
008400
088400
094800
095000
322000
041000
080800
100400
600300
000000
000000
ENDCHAR
STARTCHAR 2773
ENCODING 10099
SWIDTH 954 0
DWIDTH 18 0
BBX 18 19 0 -1
BITMAP
000000
100400
100400
508400
544400
542400
550400
108400
104400
100400
13ff00
100400
100400
100400
280400
440400
000400
000000
000000
ENDCHAR
STARTCHAR 2774
ENCODING 10100
SWIDTH 954 0
DWIDTH 18 0
BBX 18 19 0 -1
BITMAP
000000
102000
102000
502000
57ff00
550400
550400
510400
108400
108800
105000
102000
105000
108800
290400
460200
040100
000000
000000
ENDCHAR
STARTCHAR 2775
ENCODING 10101
SWIDTH 954 0
DWIDTH 18 0
BBX 18 19 0 -1
BITMAP
000000
100000
11fe00
502200
542200
542200
542200
102200
102200
13ff00
102200
102200
102200
102200
282200
442200
03ff00
000000
000000
ENDCHAR
STARTCHAR 2776
ENCODING 10102
SWIDTH 954 0
DWIDTH 18 0
BBX 18 19 0 -1
BITMAP
000000
081000
081000
2a1000
2a1000
2bff00
2a1000
283000
083800
085400
089200
089100
091100
081000
141000
221000
421000
000000
000000
ENDCHAR
STARTCHAR 2777
ENCODING 10103
SWIDTH 954 0
DWIDTH 18 0
BBX 18 19 0 -1
BITMAP
000000
101000
101000
501000
55ff00
541000
541000
111100
111100
111100
11ff00
101000
101000
101000
281100
441100
001f00
000000
000000
ENDCHAR
STARTCHAR 2778
ENCODING 10104
SWIDTH 954 0
DWIDTH 18 0
BBX 18 19 0 -1
BITMAP
000000
100800
108400
508400
548400
550200
562100
102000
102000
104000
104000
108000
108000
110400
290200
45ff00
000100
000000
000000
ENDCHAR
STARTCHAR 2779
ENCODING 10105
SWIDTH 954 0
DWIDTH 18 0
BBX 18 19 0 -1
BITMAP
000000
002000
002200
792200
492200
492400
492800
4a2000
782000
482000
482000
485000
485000
488800
790400
020200
040100
000000
000000
ENDCHAR
STARTCHAR 277a
ENCODING 10106
SWIDTH 954 0
DWIDTH 18 0
BBX 18 19 0 -1
BITMAP
000000
082000
081000
100800
2ff400
441300
041000
041000
187000
610000
010800
110800
129000
22a000
044000
082000
701e00
000000
000000
ENDCHAR
STARTCHAR 277b
ENCODING 10107
SWIDTH 954 0
DWIDTH 18 0
BBX 18 19 0 -1
BITMAP
000000
080800
284800
284800
3f7e00
488800
4a8800
0c0800
080800
180800
28ff00
480800
080800
080800
080800
080800
080800
000000
000000
ENDCHAR
STARTCHAR 277c
ENCODING 10108
SWIDTH 954 0
DWIDTH 18 0
BBX 18 19 0 -1
BITMAP
000000
081000
501000
21ff00
510100
080100
080800
084800
184800
284400
484400
084400
088200
088200
090100
0a0100
380000
000000
000000
ENDCHAR
STARTCHAR 277d
ENCODING 10109
SWIDTH 954 0
DWIDTH 18 0
BBX 18 19 0 -1
BITMAP
000000
09fc00
500000
200000
500000
0fff00
082000
082000
18a800
28a800
492400
092400
0a2200
0a2200
0c2100
082000
386000
000000
000000
ENDCHAR
STARTCHAR 277e
ENCODING 10110
SWIDTH 954 0
DWIDTH 18 0
BBX 18 19 0 -1
BITMAP
000000
081400
501200
201100
51ff00
091000
091000
091000
191200
291200
491200
091200
091400
094900
099500
0e2300
38c100
000000
000000
ENDCHAR
STARTCHAR 2821
ENCODING 10273
SWIDTH 954 0
DWIDTH 18 0
BBX 18 19 0 -1
BITMAP
000000
080000
53ff00
201000
501000
082000
082000
086800
18a800
292400
4a2200
082200
082000
082000
082000
082000
3fff00
000000
000000
ENDCHAR
STARTCHAR 2822
ENCODING 10274
SWIDTH 954 0
DWIDTH 18 0
BBX 18 19 0 -1
BITMAP
000000
081000
501000
201000
51ff00
081000
081000
081000
181000
28fe00
488200
088200
088200
088200
088200
088200
38fe00
000000
000000
ENDCHAR
STARTCHAR 2823
ENCODING 10275
SWIDTH 954 0
DWIDTH 18 0
BBX 18 19 0 -1
BITMAP
000000
089000
509000
23fe00
509200
109200
17fe00
149000
149000
37ff00
509100
109100
109100
109500
111300
521000
341000
000000
000000
ENDCHAR
STARTCHAR 2824
ENCODING 10276
SWIDTH 954 0
DWIDTH 18 0
BBX 18 19 0 -1
BITMAP
000000
09fe00
510200
210200
510200
09fe00
090000
090000
194000
294100
497e00
094000
0a4000
0a4000
0a4100
0a4100
3c7f00
000000
000000
ENDCHAR
STARTCHAR 2825
ENCODING 10277
SWIDTH 954 0
DWIDTH 18 0
BBX 18 19 0 -1
BITMAP
000000
080000
51fe00
210200
510200
090200
090200
09fe00
190200
290200
490200
090200
09fe00
080000
080000
0fff00
380000
000000
000000
ENDCHAR
STARTCHAR 2826
ENCODING 10278
SWIDTH 954 0
DWIDTH 18 0
BBX 18 19 0 -1
BITMAP
000000
081000
501000
211000
511000
09ff00
0a1000
0c1000
181000
281000
49fe00
081000
081000
081000
081000
081000
3bff00
000000
000000
ENDCHAR
STARTCHAR 2827
ENCODING 10279
SWIDTH 954 0
DWIDTH 18 0
BBX 18 19 0 -1
BITMAP
000000
082000
505000
208800
510400
0e0300
08f800
080000
180000
29fe00
480200
080200
080200
080400
084800
083000
381000
000000
000000
ENDCHAR
STARTCHAR 2828
ENCODING 10280
SWIDTH 954 0
DWIDTH 18 0
BBX 18 19 0 -1
BITMAP
000000
002000
002000
782c00
21f000
202000
202000
21fc00
782000
202000
23fe00
202000
282000
302000
202000
402000
002000
000000
000000
ENDCHAR
STARTCHAR 2829
ENCODING 10281
SWIDTH 954 0
DWIDTH 18 0
BBX 18 19 0 -1
BITMAP
000000
03fe00
000800
780800
210800
210800
210800
220800
7bff00
201800
202800
204800
288800
310800
220800
440800
003800
000000
000000
ENDCHAR
STARTCHAR 282a
ENCODING 10282
SWIDTH 954 0
DWIDTH 18 0
BBX 18 19 0 -1
BITMAP
000000
021000
021000
7a1000
221000
221000
221000
23df00
7a1000
221000
221000
2a1000
321000
225100
429100
071f00
000000
000000
000000
ENDCHAR
STARTCHAR 282b
ENCODING 10283
SWIDTH 954 0
DWIDTH 18 0
BBX 18 19 0 -1
BITMAP
000000
002000
002000
782000
23fe00
202200
202200
202200
782200
23ff00
205000
285000
308800
208800
410400
010400
060300
000000
000000
ENDCHAR
STARTCHAR 282c
ENCODING 10284
SWIDTH 954 0
DWIDTH 18 0
BBX 18 19 0 -1
BITMAP
000000
001000
001000
788800
208400
210200
210100
220000
78fe00
204200
204200
284200
304200
208200
408200
010200
060e00
000000
000000
ENDCHAR
STARTCHAR 282d
ENCODING 10285
SWIDTH 954 0
DWIDTH 18 0
BBX 18 19 0 -1
BITMAP
000000
004000
00a000
791000
220800
240400
201300
211000
791000
211000
211000
291000
311000
211000
421000
021000
041000
000000
000000
ENDCHAR
STARTCHAR 282e
ENCODING 10286
SWIDTH 954 0
DWIDTH 18 0
BBX 18 19 0 -1
BITMAP
000000
01fe00
010200
794200
212200
211200
210a00
210200
7bff00
210200
210200
290200
310200
210200
420200
020200
020600
000000
000000
ENDCHAR
STARTCHAR 282f
ENCODING 10287
SWIDTH 954 0
DWIDTH 18 0
BBX 18 19 0 -1
BITMAP
000000
008000
008000
788000
20fe00
211000
221000
201000
781000
21ff00
201000
281000
301000
201000
401000
001000
001000
000000
000000
ENDCHAR
STARTCHAR 2830
ENCODING 10288
SWIDTH 954 0
DWIDTH 18 0
BBX 18 19 0 -1
BITMAP
000000
038800
3c8800
208f00
249100
24e100
249100
249100
248900
248500
248100
248100
289200
490c00
534000
5ca000
001f00
000000
000000
ENDCHAR
STARTCHAR 2831
ENCODING 10289
SWIDTH 954 0
DWIDTH 18 0
BBX 18 19 0 -1
BITMAP
000000
01ff00
004000
004000
7e7c00
104400
104400
106400
105400
105400
104c00
104400
124400
7c4500
007500
01c700
000000
000000
000000
ENDCHAR
STARTCHAR 2832
ENCODING 10290
SWIDTH 954 0
DWIDTH 18 0
BBX 18 19 0 -1
BITMAP
000000
000800
000400
7f0400
49ff00
492000
492000
492000
7f2000
492000
492000
492000
492000
492000
7f2000
003f00
000000
000000
000000
ENDCHAR
STARTCHAR 2833
ENCODING 10291
SWIDTH 954 0
DWIDTH 18 0
BBX 18 19 0 -1
BITMAP
000000
000000
7ffc00
410400
410400
7ffc00
410400
410400
7ffc00
000000
7fff00
042000
042000
042000
082000
102000
602000
000000
000000
ENDCHAR
STARTCHAR 2834
ENCODING 10292
SWIDTH 954 0
DWIDTH 18 0
BBX 18 19 0 -1
BITMAP
000000
108400
108400
210800
421000
210800
108400
108400
000000
3ffe00
208200
208200
3ffe00
208200
208200
208200
3ffe00
000000
000000
ENDCHAR
STARTCHAR 2835
ENCODING 10293
SWIDTH 954 0
DWIDTH 18 0
BBX 18 19 0 -1
BITMAP
000000
010000
7fff00
010000
3ff800
010800
7fff00
010800
3ff800
010000
110000
110000
11f800
110000
290000
450000
03ff00
000000
000000
ENDCHAR
STARTCHAR 2836
ENCODING 10294
SWIDTH 954 0
DWIDTH 18 0
BBX 18 19 0 -1
BITMAP
000000
004000
004000
1fff00
100000
100000
500000
37fc00
104000
304000
504000
104000
104000
104000
204000
4ffe00
000000
000000
000000
ENDCHAR
STARTCHAR 2837
ENCODING 10295
SWIDTH 954 0
DWIDTH 18 0
BBX 18 19 0 -1
BITMAP
000000
080000
080000
7f3e00
490800
4a0800
480800
7f0800
617f00
610800
510800
4a0800
440800
0a0800
110800
208800
208800
000000
000000
ENDCHAR
STARTCHAR 2838
ENCODING 10296
SWIDTH 954 0
DWIDTH 18 0
BBX 18 19 0 -1
BITMAP
000000
001000
7c1000
441000
47ff00
450000
7d0000
450000
450000
450000
7d0000
450000
450000
450000
450000
7dff00
000000
000000
000000
ENDCHAR
STARTCHAR 2839
ENCODING 10297
SWIDTH 954 0
DWIDTH 18 0
BBX 18 19 0 -1
BITMAP
000000
000000
7cfe00
441000
441000
441000
7dff00
441000
441000
441000
7c1000
441000
441000
441000
441000
7c7000
000000
000000
000000
ENDCHAR
STARTCHAR 283a
ENCODING 10298
SWIDTH 954 0
DWIDTH 18 0
BBX 18 19 0 -1
BITMAP
000000
000000
7dfc00
442000
442000
442000
7c2000
442000
47ff00
442000
7c2000
442000
442000
442000
442000
7c2000
002000
000000
000000
ENDCHAR
STARTCHAR 283b
ENCODING 10299
SWIDTH 954 0
DWIDTH 18 0
BBX 18 19 0 -1
BITMAP
000000
004000
7c4000
444000
44ff00
450000
7e0000
44fe00
440200
440400
7c0800
443000
44c000
448000
448100
7c8100
00ff00
000000
000000
ENDCHAR
STARTCHAR 283c
ENCODING 10300
SWIDTH 954 0
DWIDTH 18 0
BBX 18 19 0 -1
BITMAP
000000
000000
7cfe00
201000
201000
201000
201000
3c1000
65ff00
241000
241000
241000
241000
241000
241000
3c1000
001000
000000
000000
ENDCHAR
STARTCHAR 283d
ENCODING 10301
SWIDTH 954 0
DWIDTH 18 0
BBX 18 19 0 -1
BITMAP
000000
000000
7efe00
101000
101000
101000
101000
101000
201000
7c1000
241000
241000
241000
241000
241000
241000
3dff00
000000
000000
ENDCHAR
STARTCHAR 283e
ENCODING 10302
SWIDTH 954 0
DWIDTH 18 0
BBX 18 19 0 -1
BITMAP
000000
000000
7dff00
204800
204800
204800
204800
3c4800
644800
244800
244800
244800
248800
248800
250900
3d0900
020f00
000000
000000
ENDCHAR
STARTCHAR 283f
ENCODING 10303
SWIDTH 954 0
DWIDTH 18 0
BBX 18 19 0 -1
BITMAP
000000
004000
7c7e00
208000
210000
220000
20fe00
3c0200
640200
240400
240800
241000
242000
244000
248100
3d0100
01ff00
000000
000000
ENDCHAR
STARTCHAR 2840
ENCODING 10304
SWIDTH 954 0
DWIDTH 18 0
BBX 18 19 0 -1
BITMAP
000000
000000
7c0c00
21f000
204000
204000
204000
3c4000
67ff00
244000
244000
244000
244000
244000
244100
3c4100
007f00
000000
000000
ENDCHAR
STARTCHAR 2841
ENCODING 10305
SWIDTH 954 0
DWIDTH 18 0
BBX 18 19 0 -1
BITMAP
000000
01ff00
7c0200
200400
200800
201000
201000
3c1000
641000
27ff00
241000
241000
241000
241000
249000
3c5000
003000
000000
000000
ENDCHAR
STARTCHAR 2842
ENCODING 10306
SWIDTH 954 0
DWIDTH 18 0
BBX 18 19 0 -1
BITMAP
000000
201000
201000
7c9000
049100
089f00
17f100
389100
589200
149200
109000
109000
109000
108000
108100
108100
10ff00
000000
000000
ENDCHAR
STARTCHAR 2843
ENCODING 10307
SWIDTH 954 0
DWIDTH 18 0
BBX 18 19 0 -1
BITMAP
000000
208000
208000
7c8000
04ff00
090100
120100
300100
588100
144100
102100
100100
100100
100100
101100
100a00
100400
000000
000000
ENDCHAR
STARTCHAR 2844
ENCODING 10308
SWIDTH 954 0
DWIDTH 18 0
BBX 18 19 0 -1
BITMAP
000000
0c0000
700c00
11f000
102000
7c2000
102000
102000
39ff00
542000
122000
102000
102000
102000
102100
102100
103f00
000000
000000
ENDCHAR
STARTCHAR 2845
ENCODING 10309
SWIDTH 954 0
DWIDTH 18 0
BBX 18 19 0 -1
BITMAP
000000
008000
008000
3fff00
444100
044200
084000
747e00
07f000
081000
181000
242000
024000
018000
010000
020000
3c0000
000000
000000
ENDCHAR
STARTCHAR 2846
ENCODING 10310
SWIDTH 954 0
DWIDTH 18 0
BBX 18 19 0 -1
BITMAP
000000
008000
008000
7fff00
444100
444100
387c00
000000
0ff000
008000
008000
7fff00
008000
008000
008000
028000
018000
000000
000000
ENDCHAR
STARTCHAR 2847
ENCODING 10311
SWIDTH 954 0
DWIDTH 18 0
BBX 18 19 0 -1
BITMAP
000000
101000
101000
3f3f00
484800
048400
020000
020000
3ffc00
020400
020400
020400
040400
080400
104400
202800
401000
000000
000000
ENDCHAR
STARTCHAR 2848
ENCODING 10312
SWIDTH 954 0
DWIDTH 18 0
BBX 18 19 0 -1
BITMAP
000000
101000
101000
521000
341000
101000
101000
7eff00
101000
101000
381000
541000
121000
101000
101000
101000
101000
000000
000000
ENDCHAR
STARTCHAR 2849
ENCODING 10313
SWIDTH 954 0
DWIDTH 18 0
BBX 18 19 0 -1
BITMAP
000000
080000
10ff00
200800
420800
440800
780800
100800
200800
420800
7f0800
088800
4a0800
4a0800
4a0800
4a2800
081800
000000
000000
ENDCHAR
STARTCHAR 284a
ENCODING 10314
SWIDTH 954 0
DWIDTH 18 0
BBX 18 19 0 -1
BITMAP
000000
7f7f00
220800
220800
220800
3e0800
220800
220800
220800
3e0800
220800
220800
220800
7e0800
020800
022800
021000
000000
000000
ENDCHAR
STARTCHAR 284b
ENCODING 10315
SWIDTH 954 0
DWIDTH 18 0
BBX 18 19 0 -1
BITMAP
000000
030000
018000
024000
0c2000
111000
610f00
010000
7ffe00
428200
444200
492200
410200
410200
428200
444a00
482600
000000
000000
ENDCHAR
STARTCHAR 284c
ENCODING 10316
SWIDTH 954 0
DWIDTH 18 0
BBX 18 19 0 -1
BITMAP
000000
7c2000
442000
47ff00
440000
7c0000
44f800
448800
448800
7c8800
448800
448800
448800
448800
048900
150900
0e0f00
000000
000000
ENDCHAR
STARTCHAR 284d
ENCODING 10317
SWIDTH 954 0
DWIDTH 18 0
BBX 18 19 0 -1
BITMAP
000000
7c2000
442000
442000
445000
7c8800
450400
47ff00
440000
7c0000
45fc00
440400
440800
441000
042000
144000
0c8000
000000
000000
ENDCHAR
STARTCHAR 284e
ENCODING 10318
SWIDTH 954 0
DWIDTH 18 0
BBX 18 19 0 -1
BITMAP
000000
7c4800
444800
448800
448400
7d0400
450200
460100
442000
7c2000
442000
47ff00
442000
442000
042000
142000
0c2000
000000
000000
ENDCHAR
STARTCHAR 284f
ENCODING 10319
SWIDTH 954 0
DWIDTH 18 0
BBX 18 19 0 -1
BITMAP
000000
780e00
48f000
490000
490000
790000
49ff00
491000
491000
791000
491000
491000
491000
4a1000
0a1000
1c1000
081000
000000
000000
ENDCHAR
STARTCHAR 2850
ENCODING 10320
SWIDTH 954 0
DWIDTH 18 0
BBX 18 19 0 -1
BITMAP
000000
001000
7c1000
441000
44ff00
449100
7c9100
449100
449100
449100
7ca900
44c500
448100
448100
448100
548900
0c8700
000000
000000
ENDCHAR
STARTCHAR 2851
ENCODING 10321
SWIDTH 954 0
DWIDTH 18 0
BBX 18 19 0 -1
BITMAP
000000
080000
11ff00
3e2100
222100
322100
2a2100
262100
7f2100
222100
2a2100
2a4100
2a4100
228100
429100
4b0a00
070400
000000
000000
ENDCHAR
STARTCHAR 2852
ENCODING 10322
SWIDTH 954 0
DWIDTH 18 0
BBX 18 19 0 -1
BITMAP
000000
081000
081000
7fff00
081000
008000
008000
7fff00
081000
042000
024000
018000
018000
024000
042000
081000
700f00
000000
000000
ENDCHAR
STARTCHAR 2853
ENCODING 10323
SWIDTH 954 0
DWIDTH 18 0
BBX 18 19 0 -1
BITMAP
000000
081000
081000
7fff00
081000
008000
008000
7fff00
000000
07e000
042000
042000
042000
042000
082100
102100
203f00
000000
000000
ENDCHAR
STARTCHAR 2854
ENCODING 10324
SWIDTH 954 0
DWIDTH 18 0
BBX 18 19 0 -1
BITMAP
000000
081000
081000
7fff00
081000
081000
000000
3ffc00
000000
000000
7fff00
044000
044000
084000
104100
204100
407f00
000000
000000
ENDCHAR
STARTCHAR 2855
ENCODING 10325
SWIDTH 954 0
DWIDTH 18 0
BBX 18 19 0 -1
BITMAP
000000
081000
081000
7fff00
081000
010000
010000
7fff00
010000
210400
210400
210400
3ffc00
010000
010100
010100
01ff00
000000
000000
ENDCHAR
STARTCHAR 2856
ENCODING 10326
SWIDTH 954 0
DWIDTH 18 0
BBX 18 19 0 -1
BITMAP
000000
081000
081000
7fff00
081000
000000
404000
404000
404000
404000
7e7e00
404000
404000
404000
424100
5c4100
607f00
000000
000000
ENDCHAR
STARTCHAR 2857
ENCODING 10327
SWIDTH 954 0
DWIDTH 18 0
BBX 18 19 0 -1
BITMAP
000000
081000
081000
7fff00
081000
000000
1ff800
020800
020800
7fff00
020800
020800
1ff800
020000
040000
080000
700000
000000
000000
ENDCHAR
STARTCHAR 2858
ENCODING 10328
SWIDTH 954 0
DWIDTH 18 0
BBX 18 19 0 -1
BITMAP
000000
081000
081000
7fff00
081000
010000
3ffc00
010400
010400
010400
7fff00
010000
028000
044000
082000
101000
600f00
000000
000000
ENDCHAR
STARTCHAR 2859
ENCODING 10329
SWIDTH 954 0
DWIDTH 18 0
BBX 18 19 0 -1
BITMAP
000000
081000
081000
7fff00
081000
0ff000
002000
044000
028000
010000
7fff00
010200
010400
010000
010000
050000
030000
000000
000000
ENDCHAR
STARTCHAR 285a
ENCODING 10330
SWIDTH 954 0
DWIDTH 18 0
BBX 18 19 0 -1
BITMAP
000000
081000
081000
7fff00
081000
020000
010000
3ffc00
228400
244400
282400
301400
300c00
200400
200400
201400
200c00
000000
000000
ENDCHAR
STARTCHAR 285b
ENCODING 10331
SWIDTH 954 0
DWIDTH 18 0
BBX 18 19 0 -1
BITMAP
000000
081000
081000
7fff00
081000
00e000
0f0000
010000
010000
3ff800
010000
010000
7fff00
010000
010100
010100
01ff00
000000
000000
ENDCHAR
STARTCHAR 285c
ENCODING 10332
SWIDTH 954 0
DWIDTH 18 0
BBX 18 19 0 -1
BITMAP
000000
081000
081000
7fff00
081000
080000
080000
0ffc00
100000
2ff000
400000
3ff800
000800
000900
000900
000900
000700
000000
000000
ENDCHAR
STARTCHAR 285d
ENCODING 10333
SWIDTH 954 0
DWIDTH 18 0
BBX 18 19 0 -1
BITMAP
000000
081000
081000
7fff00
081000
00e000
0f0000
010000
010000
7fff00
010000
028000
044000
082000
101000
200800
400700
000000
000000
ENDCHAR
STARTCHAR 285e
ENCODING 10334
SWIDTH 954 0
DWIDTH 18 0
BBX 18 19 0 -1
BITMAP
000000
081000
081000
7fff00
081000
080000
080000
0ffe00
122200
222200
042200
084200
108200
210200
020200
041400
000800
000000
000000
ENDCHAR
STARTCHAR 285f
ENCODING 10335
SWIDTH 954 0
DWIDTH 18 0
BBX 18 19 0 -1
BITMAP
000000
081000
081000
7fff00
081000
3ff800
041000
042000
044000
07fc00
040400
0a0800
091000
10a000
204000
41b800
1e0700
000000
000000
ENDCHAR
STARTCHAR 2860
ENCODING 10336
SWIDTH 954 0
DWIDTH 18 0
BBX 18 19 0 -1
BITMAP
000000
081000
081000
7fff00
081000
080000
080000
0ffe00
110200
210400
410000
010000
028000
044000
082000
101000
600e00
000000
000000
ENDCHAR
STARTCHAR 2861
ENCODING 10337
SWIDTH 954 0
DWIDTH 18 0
BBX 18 19 0 -1
BITMAP
000000
081000
081000
7fff00
081000
018000
024000
042000
181800
27e400
400300
3ffc00
000800
001000
002000
004000
008000
000000
000000
ENDCHAR
STARTCHAR 2862
ENCODING 10338
SWIDTH 954 0
DWIDTH 18 0
BBX 18 19 0 -1
BITMAP
000000
081000
081000
7fff00
081000
010000
010000
110400
110800
211000
412000
028000
044000
082000
101000
200800
400700
000000
000000
ENDCHAR
STARTCHAR 2863
ENCODING 10339
SWIDTH 954 0
DWIDTH 18 0
BBX 18 19 0 -1
BITMAP
000000
081000
081000
7fff00
081000
000000
7e2000
042000
082000
08a000
0b2000
0c2000
182000
682000
082100
282100
183f00
000000
000000
ENDCHAR
STARTCHAR 2864
ENCODING 10340
SWIDTH 954 0
DWIDTH 18 0
BBX 18 19 0 -1
BITMAP
000000
081000
081000
7fff00
0a1000
020000
7fff00
020000
020000
03fc00
050800
089000
086000
106000
209000
410800
0e0700
000000
000000
ENDCHAR
STARTCHAR 2865
ENCODING 10341
SWIDTH 954 0
DWIDTH 18 0
BBX 18 19 0 -1
BITMAP
000000
081000
081000
7fff00
081000
080000
0ffe00
100200
220200
440200
080200
108200
3fc200
002200
000200
001400
000800
000000
000000
ENDCHAR
STARTCHAR 2866
ENCODING 10342
SWIDTH 954 0
DWIDTH 18 0
BBX 18 19 0 -1
BITMAP
000000
081000
081000
7fff00
081000
040000
080000
100000
300000
51fc00
100000
100000
100000
100000
100000
17ff00
100000
000000
000000
ENDCHAR
STARTCHAR 2867
ENCODING 10343
SWIDTH 954 0
DWIDTH 18 0
BBX 18 19 0 -1
BITMAP
000000
11ff00
101000
101000
101000
7e1000
521000
521000
521000
521000
7e1000
101000
101000
121000
121000
7e5000
023000
000000
000000
ENDCHAR
STARTCHAR 2868
ENCODING 10344
SWIDTH 954 0
DWIDTH 18 0
BBX 18 19 0 -1
BITMAP
000000
100200
104200
104200
104200
7e4200
524200
524200
524200
524200
7e4200
104700
107a00
12c200
120200
7e0200
020200
000000
000000
ENDCHAR
STARTCHAR 2869
ENCODING 10345
SWIDTH 954 0
DWIDTH 18 0
BBX 18 19 0 -1
BITMAP
000000
100000
11ff00
102100
102100
7e2100
522100
522100
522100
522100
7e2100
102100
104100
124100
129100
7e8a00
030400
000000
000000
ENDCHAR
STARTCHAR 286a
ENCODING 10346
SWIDTH 954 0
DWIDTH 18 0
BBX 18 19 0 -1
BITMAP
000000
100000
107c00
104400
104400
7e4400
524400
524400
524400
524400
7e4400
104400
104400
124400
128500
7e8500
030700
000000
000000
ENDCHAR
STARTCHAR 286b
ENCODING 10347
SWIDTH 954 0
DWIDTH 18 0
BBX 18 19 0 -1
BITMAP
000000
7fff00
008000
010000
030000
0c8200
314400
524800
0c5000
0ce000
335000
024800
054400
384200
004100
028000
010000
000000
000000
ENDCHAR
STARTCHAR 286c
ENCODING 10348
SWIDTH 954 0
DWIDTH 18 0
BBX 18 19 0 -1
BITMAP
000000
002000
402000
27ff00
100000
00f800
788800
108800
208800
408800
208800
108800
110900
120900
140f00
280000
47ff00
000000
000000
ENDCHAR
STARTCHAR 286d
ENCODING 10349
SWIDTH 954 0
DWIDTH 18 0
BBX 18 19 0 -1
BITMAP
000000
000c00
403000
21e000
102000
002000
782000
17ff00
202000
402000
202000
102000
102000
11fe00
100000
280000
47ff00
000000
000000
ENDCHAR
STARTCHAR 286e
ENCODING 10350
SWIDTH 954 0
DWIDTH 18 0
BBX 18 19 0 -1
BITMAP
000000
03ff00
408800
208800
110800
010800
7bff00
101800
202800
404800
208800
110800
120800
142800
101800
280000
47ff00
000000
000000
ENDCHAR
STARTCHAR 286f
ENCODING 10351
SWIDTH 954 0
DWIDTH 18 0
BBX 18 19 0 -1
BITMAP
000000
002000
402000
23fe00
102000
022200
7a2200
122200
222200
422200
23fe00
102000
102100
102100
103f00
280000
47ff00
000000
000000
ENDCHAR
STARTCHAR 2870
ENCODING 10352
SWIDTH 954 0
DWIDTH 18 0
BBX 18 19 0 -1
BITMAP
000000
002000
402800
202400
102200
07ff00
782000
102000
205000
408800
210400
120200
140100
180100
100000
280000
47ff00
000000
000000
ENDCHAR
STARTCHAR 2871
ENCODING 10353
SWIDTH 954 0
DWIDTH 18 0
BBX 18 19 0 -1
BITMAP
000000
008000
408000
20fe00
111000
021000
7c1000
101000
27ff00
401000
201000
101000
101000
101000
101000
280000
47ff00
000000
000000
ENDCHAR
STARTCHAR 2872
ENCODING 10354
SWIDTH 954 0
DWIDTH 18 0
BBX 18 19 0 -1
BITMAP
000000
000000
403800
23c000
102000
002000
782000
17ff00
202000
402000
202000
105000
108800
110400
120200
280000
47ff00
000000
000000
ENDCHAR
STARTCHAR 2873
ENCODING 10355
SWIDTH 954 0
DWIDTH 18 0
BBX 18 19 0 -1
BITMAP
000000
101f00
081100
049100
009100
109200
111400
111200
511100
529100
145100
185900
181700
309000
509000
109000
1f9000
000000
000000
ENDCHAR
STARTCHAR 2874
ENCODING 10356
SWIDTH 954 0
DWIDTH 18 0
BBX 18 19 0 -1
BITMAP
000000
7fbf00
082100
082100
082100
7fa200
48a400
48a200
54a100
62a100
41a100
40b100
40af00
40a000
40a000
42a000
41a000
000000
000000
ENDCHAR
STARTCHAR 2875
ENCODING 10357
SWIDTH 954 0
DWIDTH 18 0
BBX 18 19 0 -1
BITMAP
000000
210000
213f00
212100
7fa100
212100
212200
212400
212200
3f2100
212100
212100
212100
212900
212700
3f2000
002000
000000
000000
ENDCHAR
STARTCHAR 2876
ENCODING 10358
SWIDTH 954 0
DWIDTH 18 0
BBX 18 19 0 -1
BITMAP
000000
7fff00
021100
041100
0c1200
141400
261400
451200
049100
045100
041100
041100
045100
049a00
051400
0e1000
701000
000000
000000
ENDCHAR
STARTCHAR 2877
ENCODING 10359
SWIDTH 954 0
DWIDTH 18 0
BBX 18 19 0 -1
BITMAP
000000
040000
081f00
101100
201100
411200
409400
7fd200
005100
001100
7f9100
409900
409700
409000
409000
409000
7f9000
000000
000000
ENDCHAR
STARTCHAR 2878
ENCODING 10360
SWIDTH 954 0
DWIDTH 18 0
BBX 18 19 0 -1
BITMAP
000000
782000
482000
482000
49fc00
482000
502000
602000
53ff00
482000
484000
688000
590000
420800
440400
47fe00
400100
000000
000000
ENDCHAR
STARTCHAR 2879
ENCODING 10361
SWIDTH 954 0
DWIDTH 18 0
BBX 18 19 0 -1
BITMAP
000000
782000
482000
482000
482000
503f00
602000
502000
482000
482000
4bfe00
6a0200
5a0200
420200
420200
420200
43fe00
000000
000000
ENDCHAR
STARTCHAR 287a
ENCODING 10362
SWIDTH 954 0
DWIDTH 18 0
BBX 18 19 0 -1
BITMAP
000000
788000
488000
488000
49ff00
524000
644000
504000
487e00
484000
484000
684000
587e00
404000
404000
404000
404000
000000
000000
ENDCHAR
STARTCHAR 287b
ENCODING 10363
SWIDTH 954 0
DWIDTH 18 0
BBX 18 19 0 -1
BITMAP
000000
780e00
487000
4ba000
4a2000
522000
622000
53ff00
4a2000
4a2000
4a2000
6a2000
5a1000
438800
460500
400300
43f100
000000
000000
ENDCHAR
STARTCHAR 287c
ENCODING 10364
SWIDTH 954 0
DWIDTH 18 0
BBX 18 19 0 -1
BITMAP
000000
7bff00
482000
482000
482000
53ff00
622100
522100
4a5100
4a8900
4b0500
6a0300
5a0100
420100
420100
420500
420300
000000
000000
ENDCHAR
STARTCHAR 287d
ENCODING 10365
SWIDTH 954 0
DWIDTH 18 0
BBX 18 19 0 -1
BITMAP
000000
042000
082000
13fe00
320200
520200
13fe00
120200
120200
13fe00
124200
122400
121800
120800
124400
128200
170100
000000
000000
ENDCHAR
STARTCHAR 287e
ENCODING 10366
SWIDTH 954 0
DWIDTH 18 0
BBX 18 19 0 -1
BITMAP
000000
042000
082400
102200
37ff00
502000
122200
112400
10a800
102000
102000
10a800
112400
122200
142100
10a000
106000
000000
000000
ENDCHAR
STARTCHAR 2921
ENCODING 10529
SWIDTH 954 0
DWIDTH 18 0
BBX 18 19 0 -1
BITMAP
000000
07ff00
080000
109200
312400
524800
149000
124800
112400
109200
13fe00
102000
102000
102000
102000
102000
17ff00
000000
000000
ENDCHAR
STARTCHAR 2922
ENCODING 10530
SWIDTH 954 0
DWIDTH 18 0
BBX 18 19 0 -1
BITMAP
000000
100000
17ff00
140000
240000
65fe00
240000
240000
27ff00
249100
249200
249400
249800
248800
248400
28a200
30c100
000000
000000
ENDCHAR
STARTCHAR 2923
ENCODING 10531
SWIDTH 954 0
DWIDTH 18 0
BBX 18 19 0 -1
BITMAP
000000
05ff00
082000
102000
31fe00
504200
104200
104200
13ff00
100000
100000
11fe00
110200
110200
110200
110200
11fe00
000000
000000
ENDCHAR
STARTCHAR 2924
ENCODING 10532
SWIDTH 954 0
DWIDTH 18 0
BBX 18 19 0 -1
BITMAP
000000
05fe00
090200
110200
31fe00
500000
13ff00
122100
122100
122100
13ff00
120000
120000
120000
120100
120100
13ff00
000000
000000
ENDCHAR
STARTCHAR 2925
ENCODING 10533
SWIDTH 954 0
DWIDTH 18 0
BBX 18 19 0 -1
BITMAP
000000
04fc00
088400
128400
328400
52fc00
120000
13fe00
102200
102200
102200
1fff00
105000
108800
110400
120200
140100
000000
000000
ENDCHAR
STARTCHAR 2926
ENCODING 10534
SWIDTH 954 0
DWIDTH 18 0
BBX 18 19 0 -1
BITMAP
000000
040000
09fe00
110200
310200
51fe00
110200
110200
11fe00
110200
110200
11fe00
104800
104800
108900
110900
160f00
000000
000000
ENDCHAR
STARTCHAR 2927
ENCODING 10535
SWIDTH 954 0
DWIDTH 18 0
BBX 18 19 0 -1
BITMAP
000000
041000
09fe00
111200
31fe00
511200
111200
11fe00
100000
17ff00
108000
108000
10fc00
100400
100400
101400
100c00
000000
000000
ENDCHAR
STARTCHAR 2928
ENCODING 10536
SWIDTH 954 0
DWIDTH 18 0
BBX 18 19 0 -1
BITMAP
000000
04c600
082800
103000
30cc00
512200
104000
17ff00
109000
111000
12ff00
149100
189100
109500
109300
101000
101000
000000
000000
ENDCHAR
STARTCHAR 2929
ENCODING 10537
SWIDTH 954 0
DWIDTH 18 0
BBX 18 19 0 -1
BITMAP
000000
048800
090400
120200
340100
53fe00
120200
120200
120200
13fe00
109000
109000
109000
109000
111100
121100
141f00
000000
000000
ENDCHAR
STARTCHAR 292a
ENCODING 10538
SWIDTH 954 0
DWIDTH 18 0
BBX 18 19 0 -1
BITMAP
000000
042000
082000
112400
312400
512400
112400
12aa00
147100
102000
102000
13fe00
102000
102000
102000
102000
17ff00
000000
000000
ENDCHAR
STARTCHAR 292b
ENCODING 10539
SWIDTH 954 0
DWIDTH 18 0
BBX 18 19 0 -1
BITMAP
000000
048000
08fc00
110800
321000
542000
13fe00
122200
122200
122200
13fe00
109000
109000
109000
111100
121100
141f00
000000
000000
ENDCHAR
STARTCHAR 292c
ENCODING 10540
SWIDTH 954 0
DWIDTH 18 0
BBX 18 19 0 -1
BITMAP
000000
084000
12ff00
210800
628800
248800
288800
208800
21be00
228800
248800
288800
208800
208800
288800
250800
227f00
000000
000000
ENDCHAR
STARTCHAR 292d
ENCODING 10541
SWIDTH 954 0
DWIDTH 18 0
BBX 18 19 0 -1
BITMAP
000000
07ff00
081000
102000
307000
50a800
112400
122200
142100
102000
102000
13fe00
120200
120200
120200
120200
13fe00
000000
000000
ENDCHAR
STARTCHAR 292e
ENCODING 10542
SWIDTH 954 0
DWIDTH 18 0
BBX 18 19 0 -1
BITMAP
000000
042000
0a2200
122200
33fe00
502000
105000
108800
110400
12fb00
1c0000
100000
11fc00
100400
100800
101000
102000
000000
000000
ENDCHAR
STARTCHAR 292f
ENCODING 10543
SWIDTH 954 0
DWIDTH 18 0
BBX 18 19 0 -1
BITMAP
000000
040c00
09f100
124100
312200
509400
100000
104000
104000
17ff00
108400
108400
110800
109000
106000
105000
178f00
000000
000000
ENDCHAR
STARTCHAR 2930
ENCODING 10544
SWIDTH 954 0
DWIDTH 18 0
BBX 18 19 0 -1
BITMAP
000000
080600
1fb800
210800
620800
240800
2f0800
217f00
210800
290800
290800
290800
290800
253e00
220000
250000
28ff00
000000
000000
ENDCHAR
STARTCHAR 2931
ENCODING 10545
SWIDTH 954 0
DWIDTH 18 0
BBX 18 19 0 -1
BITMAP
000000
08c000
170200
210200
610200
210400
3fe400
210400
210800
238800
254800
293000
311200
212200
214f00
25f100
230100
000000
000000
ENDCHAR
STARTCHAR 2932
ENCODING 10546
SWIDTH 954 0
DWIDTH 18 0
BBX 18 19 0 -1
BITMAP
000000
000200
7fc200
001200
125200
249200
491200
491200
249200
125200
001200
7f9200
081200
080200
084200
088a00
7f0600
000000
000000
ENDCHAR
STARTCHAR 2933
ENCODING 10547
SWIDTH 954 0
DWIDTH 18 0
BBX 18 19 0 -1
BITMAP
000000
040100
040100
248900
248900
248900
248900
554900
0e2900
040900
040900
7fc900
040900
040100
040100
040500
7fe300
000000
000000
ENDCHAR
STARTCHAR 2934
ENCODING 10548
SWIDTH 954 0
DWIDTH 18 0
BBX 18 19 0 -1
BITMAP
000000
101000
101000
7e1000
101000
10ff00
7e1100
421100
421100
7e1100
282100
282100
282100
282100
294100
4a8a00
0d0400
000000
000000
ENDCHAR
STARTCHAR 2935
ENCODING 10549
SWIDTH 954 0
DWIDTH 18 0
BBX 18 19 0 -1
BITMAP
000000
081000
481000
481000
7e1000
48ff00
081100
081100
7f1100
001100
002100
7f2100
412100
412100
414100
418a00
7f8400
000000
000000
ENDCHAR
STARTCHAR 2936
ENCODING 10550
SWIDTH 954 0
DWIDTH 18 0
BBX 18 19 0 -1
BITMAP
000000
7fff00
400000
4ff800
480800
4ff800
480800
4ff800
420000
7ffe00
441000
482000
4e4000
41c000
433000
7c0c00
7fff00
000000
000000
ENDCHAR
STARTCHAR 2937
ENCODING 10551
SWIDTH 954 0
DWIDTH 18 0
BBX 18 19 0 -1
BITMAP
000000
004000
007e00
004400
7e8800
29ff00
288000
28be00
28a200
28a200
28b200
28aa00
48a600
4aa000
0d2100
0a2100
143f00
000000
000000
ENDCHAR
STARTCHAR 2938
ENCODING 10552
SWIDTH 954 0
DWIDTH 18 0
BBX 18 19 0 -1
BITMAP
000000
3fff00
204000
204000
27fc00
220800
211000
20a000
3fff00
204000
204000
2ffe00
204000
404000
404000
004000
004000
000000
000000
ENDCHAR
STARTCHAR 2939
ENCODING 10553
SWIDTH 954 0
DWIDTH 18 0
BBX 18 19 0 -1
BITMAP
000000
3fff00
200000
220200
228400
224800
3fd000
252200
250400
250800
251100
250200
250400
490800
511100
21e100
41ff00
000000
000000
ENDCHAR
STARTCHAR 293a
ENCODING 10554
SWIDTH 954 0
DWIDTH 18 0
BBX 18 19 0 -1
BITMAP
000000
3fff00
204000
204000
2ffe00
204000
27fc00
244400
244400
27fc00
244400
244400
27fc00
404000
5fff00
004000
004000
000000
000000
ENDCHAR
STARTCHAR 293b
ENCODING 10555
SWIDTH 954 0
DWIDTH 18 0
BBX 18 19 0 -1
BITMAP
000000
000000
3fff00
200000
2ffe00
284200
284200
2ffe00
284200
284200
2ffe00
204000
204000
27fc00
404000
004000
1fff00
000000
000000
ENDCHAR
STARTCHAR 293c
ENCODING 10556
SWIDTH 954 0
DWIDTH 18 0
BBX 18 19 0 -1
BITMAP
000000
03ff00
000000
780000
49fe00
490200
490200
490200
49fe00
490200
490200
490200
49fe00
780000
000000
000000
07ff00
000000
000000
ENDCHAR
STARTCHAR 293d
ENCODING 10557
SWIDTH 954 0
DWIDTH 18 0
BBX 18 19 0 -1
BITMAP
000000
03ff00
008400
788400
488400
48fc00
488400
488400
488400
48fc00
488400
488400
488f00
78f400
038400
000400
000400
000000
000000
ENDCHAR
STARTCHAR 293e
ENCODING 10558
SWIDTH 954 0
DWIDTH 18 0
BBX 18 19 0 -1
BITMAP
000000
001000
001000
7fff00
441000
441000
441000
441000
45fe00
440000
440000
45fe00
450200
7d0200
010200
010200
01fe00
000000
000000
ENDCHAR
STARTCHAR 293f
ENCODING 10559
SWIDTH 954 0
DWIDTH 18 0
BBX 18 19 0 -1
BITMAP
000000
000000
03ff00
782000
484000
488400
490200
4a0100
4bff00
482100
482000
482000
49fe00
482000
782000
002000
07ff00
000000
000000
ENDCHAR
STARTCHAR 2940
ENCODING 10560
SWIDTH 954 0
DWIDTH 18 0
BBX 18 19 0 -1
BITMAP
000000
01fe00
010200
790200
49fe00
490200
490200
49fe00
492100
492200
492400
492800
491000
790800
012400
014200
038100
000000
000000
ENDCHAR
STARTCHAR 2941
ENCODING 10561
SWIDTH 954 0
DWIDTH 18 0
BBX 18 19 0 -1
BITMAP
000000
03ff00
020100
7a0100
4afd00
4a0100
4a0100
4afd00
4a8500
4a8500
4a8500
4a8500
4afd00
7a0100
020100
020500
020300
000000
000000
ENDCHAR
STARTCHAR 2942
ENCODING 10562
SWIDTH 954 0
DWIDTH 18 0
BBX 18 19 0 -1
BITMAP
000000
081000
081000
7fff00
081000
080000
080000
1ffe00
200200
4fc200
084200
084200
084200
0fc200
000200
001400
000800
000000
000000
ENDCHAR
STARTCHAR 2943
ENCODING 10563
SWIDTH 954 0
DWIDTH 18 0
BBX 18 19 0 -1
BITMAP
000000
009000
009000
7c9200
4a9400
499800
489000
489000
489000
499800
4a9400
4c9200
489000
789100
011100
021100
1c1f00
000000
000000
ENDCHAR
STARTCHAR 2944
ENCODING 10564
SWIDTH 954 0
DWIDTH 18 0
BBX 18 19 0 -1
BITMAP
000000
001000
011000
791000
49fe00
4a1000
4c1000
481000
4fff00
481000
481000
483800
485400
789200
011100
001000
001000
000000
000000
ENDCHAR
STARTCHAR 2945
ENCODING 10565
SWIDTH 954 0
DWIDTH 18 0
BBX 18 19 0 -1
BITMAP
000000
008000
00ff00
791000
4a1000
4c1000
49fe00
491000
491000
491000
4fff00
481000
481000
781000
001000
001000
001000
000000
000000
ENDCHAR
STARTCHAR 2946
ENCODING 10566
SWIDTH 954 0
DWIDTH 18 0
BBX 18 19 0 -1
BITMAP
000000
001c00
01e000
782000
482000
482000
4fff00
482000
482000
482000
482000
4bfe00
4a0200
7a0200
020200
020200
03fe00
000000
000000
ENDCHAR
STARTCHAR 2947
ENCODING 10567
SWIDTH 954 0
DWIDTH 18 0
BBX 18 19 0 -1
BITMAP
000000
010000
010000
79ff00
4a0100
4c0100
491100
48a500
4a4500
4aa500
4b1500
4a0500
4a0500
7bfd00
000100
000a00
000400
000000
000000
ENDCHAR
STARTCHAR 2948
ENCODING 10568
SWIDTH 954 0
DWIDTH 18 0
BBX 18 19 0 -1
BITMAP
000000
008000
00fc00
790400
4b0800
4c9000
486000
485000
489f00
4f2100
484100
48a200
481400
780800
001000
002000
07c000
000000
000000
ENDCHAR
STARTCHAR 2949
ENCODING 10569
SWIDTH 954 0
DWIDTH 18 0
BBX 18 19 0 -1
BITMAP
000000
1ff800
100800
100800
1ff800
000000
7fff00
100800
100800
1ff800
100800
100800
1ff800
100800
100800
7fff00
000800
000000
000000
ENDCHAR
STARTCHAR 294a
ENCODING 10570
SWIDTH 954 0
DWIDTH 18 0
BBX 18 19 0 -1
BITMAP
000000
084000
484100
484200
4f7c00
484000
494100
4a4100
4c7f00
780000
000000
3ffc00
200400
200400
200400
200400
3ffc00
000000
000000
ENDCHAR
STARTCHAR 294b
ENCODING 10571
SWIDTH 954 0
DWIDTH 18 0
BBX 18 19 0 -1
BITMAP
000000
1ff800
100800
100800
11f800
110800
110800
7ffe00
400200
400200
47e200
442200
442200
442200
47e200
400200
400e00
000000
000000
ENDCHAR
STARTCHAR 294c
ENCODING 10572
SWIDTH 954 0
DWIDTH 18 0
BBX 18 19 0 -1
BITMAP
000000
3e7c00
224400
224400
3e7c00
000000
000000
3ffc00
000000
000000
7fff00
020000
040000
0ff800
000800
004800
003800
000000
000000
ENDCHAR
STARTCHAR 294d
ENCODING 10573
SWIDTH 954 0
DWIDTH 18 0
BBX 18 19 0 -1
BITMAP
000000
004000
004000
784100
4bfa00
484400
484800
485000
4bff00
484000
488000
498000
4afe00
488000
788100
008100
00ff00
000000
000000
ENDCHAR
STARTCHAR 294e
ENCODING 10574
SWIDTH 954 0
DWIDTH 18 0
BBX 18 19 0 -1
BITMAP
000000
008800
008800
788800
488800
488900
488a00
4afc00
4a8800
4a8800
4a8800
4a8800
4a8800
7a8900
02e900
038900
060f00
000000
000000
ENDCHAR
STARTCHAR 294f
ENCODING 10575
SWIDTH 954 0
DWIDTH 18 0
BBX 18 19 0 -1
BITMAP
000000
004000
008800
790400
4bfe00
480100
492000
492000
49fe00
4a2000
4c2000
482000
4fff00
782000
002000
002000
002000
000000
000000
ENDCHAR
STARTCHAR 2950
ENCODING 10576
SWIDTH 954 0
DWIDTH 18 0
BBX 18 19 0 -1
BITMAP
000000
008000
008000
788000
49ff00
4a0100
4c0100
49f100
491100
491100
49f100
491100
491100
79f100
000100
000a00
000400
000000
000000
ENDCHAR
STARTCHAR 2951
ENCODING 10577
SWIDTH 954 0
DWIDTH 18 0
BBX 18 19 0 -1
BITMAP
000000
202000
202000
21ff00
210100
220200
784000
204000
27ff00
208400
208400
208800
290800
30d000
203000
404c00
078200
000000
000000
ENDCHAR
STARTCHAR 2952
ENCODING 10578
SWIDTH 954 0
DWIDTH 18 0
BBX 18 19 0 -1
BITMAP
000000
202000
202000
21ff00
220100
241a00
78e000
202000
202000
23fe00
202000
202000
282000
302000
202100
402100
003f00
000000
000000
ENDCHAR
STARTCHAR 2953
ENCODING 10579
SWIDTH 954 0
DWIDTH 18 0
BBX 18 19 0 -1
BITMAP
000000
210400
208800
205000
23fe00
202000
782000
202000
21fc00
202000
202000
202000
2fff00
302000
202000
402000
002000
000000
000000
ENDCHAR
STARTCHAR 2954
ENCODING 10580
SWIDTH 954 0
DWIDTH 18 0
BBX 18 19 0 -1
BITMAP
000000
200000
23ff00
202000
204000
208400
790200
220100
23ff00
202100
242000
282000
33fe00
202000
402000
002000
07ff00
000000
000000
ENDCHAR
STARTCHAR 2955
ENCODING 10581
SWIDTH 954 0
DWIDTH 18 0
BBX 18 19 0 -1
BITMAP
000000
23ff00
220100
220100
22fd00
220100
7a0100
22fd00
228500
228500
228500
22fd00
2a0100
320100
220100
420500
020300
000000
000000
ENDCHAR
STARTCHAR 2956
ENCODING 10582
SWIDTH 954 0
DWIDTH 18 0
BBX 18 19 0 -1
BITMAP
000000
209000
209000
249200
229400
219800
789000
209000
209000
219800
229400
249200
289000
311000
221100
441100
081f00
000000
000000
ENDCHAR
STARTCHAR 2957
ENCODING 10583
SWIDTH 954 0
DWIDTH 18 0
BBX 18 19 0 -1
BITMAP
000000
208000
208000
20fc00
212800
221000
7dff00
210000
217e00
214200
214200
215200
294e00
324000
244100
484100
107f00
000000
000000
ENDCHAR
STARTCHAR 2958
ENCODING 10584
SWIDTH 954 0
DWIDTH 18 0
BBX 18 19 0 -1
BITMAP
000000
20fc00
208400
208400
208400
210400
7a0700
202000
202000
23ff00
202000
207000
28a800
312400
222200
442100
002000
000000
000000
ENDCHAR
STARTCHAR 2959
ENCODING 10585
SWIDTH 954 0
DWIDTH 18 0
BBX 18 19 0 -1
BITMAP
000000
7fff00
042000
042000
7ffe00
442200
483e00
500200
400200
7ffe00
010000
010000
3ffc00
010000
010000
010000
7fff00
000000
000000
ENDCHAR
STARTCHAR 295a
ENCODING 10586
SWIDTH 954 0
DWIDTH 18 0
BBX 18 19 0 -1
BITMAP
000000
205000
209400
211200
231100
251000
79ff00
211000
211000
212800
212800
212800
294400
314400
214400
418200
010100
000000
000000
ENDCHAR
STARTCHAR 295b
ENCODING 10587
SWIDTH 954 0
DWIDTH 18 0
BBX 18 19 0 -1
BITMAP
000000
202000
202000
21fe00
202200
202200
7bff00
202200
202200
21fe00
202000
21fe00
282000
302000
23ff00
402000
002000
000000
000000
ENDCHAR
STARTCHAR 295c
ENCODING 10588
SWIDTH 954 0
DWIDTH 18 0
BBX 18 19 0 -1
BITMAP
000000
202000
202000
242100
222200
212400
78a800
202000
27ff00
209000
209000
209000
289000
311000
221100
441100
081f00
000000
000000
ENDCHAR
STARTCHAR 295d
ENCODING 10589
SWIDTH 954 0
DWIDTH 18 0
BBX 18 19 0 -1
BITMAP
000000
202000
205000
208800
210400
220200
7c0100
2bff00
200000
200000
200000
23fe00
2a0200
320200
220200
420200
03fe00
000000
000000
ENDCHAR
STARTCHAR 295e
ENCODING 10590
SWIDTH 954 0
DWIDTH 18 0
BBX 18 19 0 -1
BITMAP
000000
008000
008000
0ff800
008000
008000
008000
7fff00
100800
100800
100800
7c3e00
100800
100800
100800
100800
7e7f00
000000
000000
ENDCHAR
STARTCHAR 295f
ENCODING 10591
SWIDTH 954 0
DWIDTH 18 0
BBX 18 19 0 -1
BITMAP
000000
001800
1fe000
100000
1ffc00
100000
100000
2ff800
280800
480800
0ff800
008000
008000
1ffc00
008000
008000
7fff00
000000
000000
ENDCHAR
STARTCHAR 2960
ENCODING 10592
SWIDTH 954 0
DWIDTH 18 0
BBX 18 19 0 -1
BITMAP
000000
008000
7fff00
008000
008000
3ffc00
000000
1ff800
100800
100800
1ff800
000000
081000
081000
042000
024000
7fff00
000000
000000
ENDCHAR
STARTCHAR 2961
ENCODING 10593
SWIDTH 954 0
DWIDTH 18 0
BBX 18 19 0 -1
BITMAP
000000
080000
0fff00
100000
6ffc00
080400
0ffc00
080400
0ffc00
040000
07fc00
0c1000
122000
214000
408000
014000
3e3f00
000000
000000
ENDCHAR
STARTCHAR 2962
ENCODING 10594
SWIDTH 954 0
DWIDTH 18 0
BBX 18 19 0 -1
BITMAP
000000
008000
7fff00
014000
022000
0d1000
11f800
621400
0e2300
01c000
038000
0cfc00
730400
0d0800
00b000
00c000
3f0000
000000
000000
ENDCHAR
STARTCHAR 2963
ENCODING 10595
SWIDTH 954 0
DWIDTH 18 0
BBX 18 19 0 -1
BITMAP
000000
200600
203800
20d000
7c1000
241000
25ff00
241000
241000
241000
241000
24fe00
288200
108200
288200
448200
00fe00
000000
000000
ENDCHAR
STARTCHAR 2964
ENCODING 10596
SWIDTH 954 0
DWIDTH 18 0
BBX 18 19 0 -1
BITMAP
000000
201000
201000
21ff00
7c1000
241000
241000
24fe00
240000
240000
240000
24fe00
288200
108200
288200
448200
00fe00
000000
000000
ENDCHAR
STARTCHAR 2965
ENCODING 10597
SWIDTH 954 0
DWIDTH 18 0
BBX 18 19 0 -1
BITMAP
000000
23ff00
200000
200000
7dfe00
250200
250200
250200
25fe00
250200
250200
250200
29fe00
100000
280000
440000
03ff00
000000
000000
ENDCHAR
STARTCHAR 2966
ENCODING 10598
SWIDTH 954 0
DWIDTH 18 0
BBX 18 19 0 -1
BITMAP
000000
201000
201400
201200
21ff00
7c1000
249000
249000
24b100
24d200
279200
249400
289400
108800
291500
462300
044100
000000
000000
ENDCHAR
STARTCHAR 2967
ENCODING 10599
SWIDTH 954 0
DWIDTH 18 0
BBX 18 19 0 -1
BITMAP
000000
201000
201000
23ff00
202800
7c4400
248200
257d00
240000
27ff00
244000
24fe00
280200
100200
282200
441400
000800
000000
000000
ENDCHAR
STARTCHAR 2968
ENCODING 10600
SWIDTH 954 0
DWIDTH 18 0
BBX 18 19 0 -1
BITMAP
000000
201000
201000
209000
209000
7cfe00
251000
261000
241000
27ff00
241000
243800
285400
109200
291100
441000
001000
000000
000000
ENDCHAR
STARTCHAR 2969
ENCODING 10601
SWIDTH 954 0
DWIDTH 18 0
BBX 18 19 0 -1
BITMAP
000000
201000
209000
209000
20fe00
7c9000
251000
261000
27ff00
244800
244800
244800
284800
108800
290900
460900
040f00
000000
000000
ENDCHAR
STARTCHAR 296a
ENCODING 10602
SWIDTH 954 0
DWIDTH 18 0
BBX 18 19 0 -1
BITMAP
000000
204000
207c00
208400
210800
79ff00
290000
290000
293e00
292200
292200
293200
292e00
112000
292100
462100
043f00
000000
000000
ENDCHAR
STARTCHAR 296b
ENCODING 10603
SWIDTH 954 0
DWIDTH 18 0
BBX 18 19 0 -1
BITMAP
000000
202000
203f00
204200
20a400
7d1800
241000
243000
245000
259f00
242100
246200
289400
100800
281000
442000
01c000
000000
000000
ENDCHAR
STARTCHAR 296c
ENCODING 10604
SWIDTH 954 0
DWIDTH 18 0
BBX 18 19 0 -1
BITMAP
000000
201000
202800
204400
208200
7d0100
240000
24fe00
240000
240000
24fe00
248200
288200
108200
288200
448200
00fe00
000000
000000
ENDCHAR
STARTCHAR 296d
ENCODING 10605
SWIDTH 954 0
DWIDTH 18 0
BBX 18 19 0 -1
BITMAP
000000
200700
21f800
210000
210000
7d0000
25ff00
250000
250000
250000
25fe00
258200
298200
118200
2a8200
448200
08fe00
000000
000000
ENDCHAR
STARTCHAR 296e
ENCODING 10606
SWIDTH 954 0
DWIDTH 18 0
BBX 18 19 0 -1
BITMAP
000000
201000
201000
20ff00
208100
7d0200
244000
244000
27ff00
248400
248400
248800
289000
105000
282000
445000
038e00
000000
000000
ENDCHAR
STARTCHAR 296f
ENCODING 10607
SWIDTH 954 0
DWIDTH 18 0
BBX 18 19 0 -1
BITMAP
000000
202000
202000
21ff00
202000
7c4000
247e00
24c200
254200
267e00
244200
244200
287e00
104200
284200
444a00
004600
000000
000000
ENDCHAR
STARTCHAR 2970
ENCODING 10608
SWIDTH 954 0
DWIDTH 18 0
BBX 18 19 0 -1
BITMAP
000000
21ff00
210100
210100
210100
7dff00
250100
250100
257d00
254500
254500
254500
297d00
110100
290100
450500
010300
000000
000000
ENDCHAR
STARTCHAR 2971
ENCODING 10609
SWIDTH 954 0
DWIDTH 18 0
BBX 18 19 0 -1
BITMAP
000000
208000
208000
20ff00
208800
7d0800
260800
24ff00
248800
248800
248800
27ff00
280800
100800
280800
440800
000800
000000
000000
ENDCHAR
STARTCHAR 2972
ENCODING 10610
SWIDTH 954 0
DWIDTH 18 0
BBX 18 19 0 -1
BITMAP
000000
204000
204000
207f00
208100
7d8200
264400
242800
241000
242000
244000
24ff00
298100
128100
288100
448100
00ff00
000000
000000
ENDCHAR
STARTCHAR 2973
ENCODING 10611
SWIDTH 954 0
DWIDTH 18 0
BBX 18 19 0 -1
BITMAP
000000
47fc00
440400
440400
45f400
744400
544400
55f400
555400
555400
555400
555400
555400
257500
244500
544300
084100
000000
000000
ENDCHAR
STARTCHAR 2974
ENCODING 10612
SWIDTH 954 0
DWIDTH 18 0
BBX 18 19 0 -1
BITMAP
000000
201000
202000
204000
208000
7dff00
250100
250100
257d00
254500
254500
254500
294500
117d00
290100
450500
010300
000000
000000
ENDCHAR
STARTCHAR 2975
ENCODING 10613
SWIDTH 954 0
DWIDTH 18 0
BBX 18 19 0 -1
BITMAP
000000
201000
201000
202800
204400
7c8200
25ff00
241000
241000
241000
241000
24fe00
281000
101000
281000
441000
03ff00
000000
000000
ENDCHAR
STARTCHAR 2976
ENCODING 10614
SWIDTH 954 0
DWIDTH 18 0
BBX 18 19 0 -1
BITMAP
000000
7fc200
080200
1f9200
609200
111200
0a1200
041200
180200
620e00
020000
7fff00
042000
0f4000
00e000
071800
780600
000000
000000
ENDCHAR
STARTCHAR 2977
ENCODING 10615
SWIDTH 954 0
DWIDTH 18 0
BBX 18 19 0 -1
BITMAP
000000
010000
3ffc00
060400
381c00
081000
7f7f00
111100
67e700
020000
020000
7fff00
042000
0f4000
00e000
071800
780600
000000
000000
ENDCHAR
STARTCHAR 2978
ENCODING 10616
SWIDTH 954 0
DWIDTH 18 0
BBX 18 19 0 -1
BITMAP
000000
008000
008000
3fff00
400100
024200
124800
0a5000
066000
024000
024000
0e7000
324c00
044000
084100
104100
207f00
000000
000000
ENDCHAR
STARTCHAR 2979
ENCODING 10617
SWIDTH 954 0
DWIDTH 18 0
BBX 18 19 0 -1
BITMAP
000000
3ffe00
200200
200200
3ffe00
200000
27fc00
240400
240400
27fc00
204000
2ffe00
284200
284a00
484600
004000
004000
000000
000000
ENDCHAR
STARTCHAR 297a
ENCODING 10618
SWIDTH 954 0
DWIDTH 18 0
BBX 18 19 0 -1
BITMAP
000000
102000
102000
13ff00
102000
544000
548800
550800
549100
546200
544400
548800
551000
562800
7c4400
008200
030100
000000
000000
ENDCHAR
STARTCHAR 297b
ENCODING 10619
SWIDTH 954 0
DWIDTH 18 0
BBX 18 19 0 -1
BITMAP
000000
11ff00
100000
100000
10fe00
548200
548200
548200
54fe00
548200
548200
548200
54fe00
540000
7c0000
000000
03ff00
000000
000000
ENDCHAR
STARTCHAR 297c
ENCODING 10620
SWIDTH 954 0
DWIDTH 18 0
BBX 18 19 0 -1
BITMAP
000000
11ff00
100800
101000
102000
544400
548200
55ff00
541100
541000
541000
54fe00
541000
541000
7c1000
001000
03ff00
000000
000000
ENDCHAR
STARTCHAR 297d
ENCODING 10621
SWIDTH 954 0
DWIDTH 18 0
BBX 18 19 0 -1
BITMAP
000000
104000
107e00
104200
109400
550800
56ff00
548000
54be00
54a200
54a200
54aa00
54a600
54a000
7d2100
022100
043f00
000000
000000
ENDCHAR
STARTCHAR 297e
ENCODING 10622
SWIDTH 954 0
DWIDTH 18 0
BBX 18 19 0 -1
BITMAP
000000
104000
104000
107f00
108100
550100
547900
544900
544900
547900
544900
544900
547900
540100
7c0100
001200
000c00
000000
000000
ENDCHAR
STARTCHAR 2a21
ENCODING 10785
SWIDTH 954 0
DWIDTH 18 0
BBX 18 19 0 -1
BITMAP
000000
008000
408200
408200
7ffe00
000000
7f8200
101200
101200
1f1200
211200
511200
091200
060200
040200
080a00
700600
000000
000000
ENDCHAR
STARTCHAR 2a22
ENCODING 10786
SWIDTH 954 0
DWIDTH 18 0
BBX 18 19 0 -1
BITMAP
000000
008000
408200
408200
7ffe00
020000
03f000
042000
084000
3fff00
200000
27fc00
240400
242800
241000
440100
07ff00
000000
000000
ENDCHAR
STARTCHAR 2a23
ENCODING 10787
SWIDTH 954 0
DWIDTH 18 0
BBX 18 19 0 -1
BITMAP
000000
008000
408100
408100
7fff00
008000
008000
7fff00
008000
014000
022000
049000
088800
17f400
608300
008000
7fff00
000000
000000
ENDCHAR
STARTCHAR 2a24
ENCODING 10788
SWIDTH 954 0
DWIDTH 18 0
BBX 18 19 0 -1
BITMAP
000000
010000
410200
410200
7ffe00
040000
07f000
1a2000
214000
018000
066000
181800
6ff700
081000
081000
081000
0ff000
000000
000000
ENDCHAR
STARTCHAR 2a25
ENCODING 10789
SWIDTH 954 0
DWIDTH 18 0
BBX 18 19 0 -1
BITMAP
000000
010000
410200
410200
7ffe00
018000
024000
042000
081000
17e800
200400
400200
1ff900
100800
100800
100800
1ff800
000000
000000
ENDCHAR
STARTCHAR 2a26
ENCODING 10790
SWIDTH 954 0
DWIDTH 18 0
BBX 18 19 0 -1
BITMAP
000000
020000
040000
080000
1ffc00
100400
1ffc00
100000
1ffc00
100400
1ffc00
008000
008000
408200
408200
408200
7ffe00
000000
000000
ENDCHAR
STARTCHAR 2a27
ENCODING 10791
SWIDTH 954 0
DWIDTH 18 0
BBX 18 19 0 -1
BITMAP
000000
101000
101000
10ff00
110100
562200
542000
542000
57ff00
544200
544200
548400
546800
541800
7c2400
004200
018100
000000
000000
ENDCHAR
STARTCHAR 2a28
ENCODING 10792
SWIDTH 954 0
DWIDTH 18 0
BBX 18 19 0 -1
BITMAP
000000
102000
11ff00
102000
10fe00
542200
542200
55fe00
552000
552000
55ff00
542100
545500
548b00
7d0400
020200
040100
000000
000000
ENDCHAR
STARTCHAR 2a29
ENCODING 10793
SWIDTH 954 0
DWIDTH 18 0
BBX 18 19 0 -1
BITMAP
000000
101000
101000
10fd00
101200
541400
541800
57ff00
541000
542000
546000
54bf00
552000
562000
7c2100
002100
003f00
000000
000000
ENDCHAR
STARTCHAR 2a2a
ENCODING 10794
SWIDTH 954 0
DWIDTH 18 0
BBX 18 19 0 -1
BITMAP
000000
11ff00
101000
102000
104000
55ff00
552900
552900
552900
552900
552900
552900
552900
552900
7d2900
010500
010300
000000
000000
ENDCHAR
STARTCHAR 2a2b
ENCODING 10795
SWIDTH 954 0
DWIDTH 18 0
BBX 18 19 0 -1
BITMAP
000000
104000
107f00
108200
118400
564800
543000
543000
544800
548400
550200
57ff00
550200
550200
7d0200
010200
01fe00
000000
000000
ENDCHAR
STARTCHAR 2a2c
ENCODING 10796
SWIDTH 954 0
DWIDTH 18 0
BBX 18 19 0 -1
BITMAP
000000
102000
105000
108800
110400
560200
540100
55fe00
540000
540000
540000
55fe00
550200
550200
7d0200
010200
01fe00
000000
000000
ENDCHAR
STARTCHAR 2a2d
ENCODING 10797
SWIDTH 954 0
DWIDTH 18 0
BBX 18 19 0 -1
BITMAP
000000
010000
410200
410200
7ffe00
000000
1ff800
100800
1ff800
100800
1ff800
110800
109000
106000
132000
1c1000
700f00
000000
000000
ENDCHAR
STARTCHAR 2a2e
ENCODING 10798
SWIDTH 954 0
DWIDTH 18 0
BBX 18 19 0 -1
BITMAP
000000
010000
410200
410200
7ffe00
010000
020000
7ffe00
040000
0ff800
180800
2ff800
480800
0ff800
080800
080800
083800
000000
000000
ENDCHAR
STARTCHAR 2a2f
ENCODING 10799
SWIDTH 954 0
DWIDTH 18 0
BBX 18 19 0 -1
BITMAP
000000
101000
101400
101200
11ff00
551000
551000
551000
55d100
555200
555200
555400
554800
555900
7e5500
04a300
004100
000000
000000
ENDCHAR
STARTCHAR 2a30
ENCODING 10800
SWIDTH 954 0
DWIDTH 18 0
BBX 18 19 0 -1
BITMAP
000000
3ff000
006200
7cc400
092800
111000
210800
450400
1ff300
000000
1ff000
001000
3ff000
200000
200100
200100
3fff00
000000
000000
ENDCHAR
STARTCHAR 2a31
ENCODING 10801
SWIDTH 954 0
DWIDTH 18 0
BBX 18 19 0 -1
BITMAP
000000
084200
082400
081800
7f7e00
492400
492400
492400
492400
49ff00
492400
492400
4d2400
4b4400
088400
090400
0a0400
000000
000000
ENDCHAR
STARTCHAR 2a32
ENCODING 10802
SWIDTH 954 0
DWIDTH 18 0
BBX 18 19 0 -1
BITMAP
000000
100000
101000
102800
7e4400
528200
530100
520000
52fe00
520000
520000
52fe00
528200
568200
108200
108200
10fe00
000000
000000
ENDCHAR
STARTCHAR 2a33
ENCODING 10803
SWIDTH 954 0
DWIDTH 18 0
BBX 18 19 0 -1
BITMAP
000000
108800
089000
3ffc00
010000
022000
7fff00
089000
108800
2ffc00
488a00
088900
088800
088800
089800
008000
008000
000000
000000
ENDCHAR
STARTCHAR 2a34
ENCODING 10804
SWIDTH 954 0
DWIDTH 18 0
BBX 18 19 0 -1
BITMAP
000000
060000
787e00
400200
400200
7e7a00
400200
400200
7ffa00
010000
010000
7ffe00
410200
410200
410e00
010000
010000
000000
000000
ENDCHAR
STARTCHAR 2a35
ENCODING 10805
SWIDTH 954 0
DWIDTH 18 0
BBX 18 19 0 -1
BITMAP
000000
100000
100000
7f3f00
112100
122100
0c2100
0c2100
323f00
408000
008000
3ffe00
208200
208200
208a00
208600
008000
000000
000000
ENDCHAR
STARTCHAR 2a36
ENCODING 10806
SWIDTH 954 0
DWIDTH 18 0
BBX 18 19 0 -1
BITMAP
000000
004000
004000
3fff00
220800
211000
27fc00
211000
211000
211000
3fff00
211000
211000
221000
441000
081000
101000
000000
000000
ENDCHAR
STARTCHAR 2a37
ENCODING 10807
SWIDTH 954 0
DWIDTH 18 0
BBX 18 19 0 -1
BITMAP
000000
004000
004000
3fff00
204000
27fc00
204000
204000
3fff00
201000
201000
2ffe00
241000
221000
411000
005000
003000
000000
000000
ENDCHAR
STARTCHAR 2a38
ENCODING 10808
SWIDTH 954 0
DWIDTH 18 0
BBX 18 19 0 -1
BITMAP
000000
008000
008000
3fff00
200000
27fc00
208000
211000
220800
27fc00
208200
208000
27f800
208000
408000
008000
3ffe00
000000
000000
ENDCHAR
STARTCHAR 2a39
ENCODING 10809
SWIDTH 954 0
DWIDTH 18 0
BBX 18 19 0 -1
BITMAP
000000
004000
004000
3fff00
211000
211000
211000
211100
29d600
291800
291000
291000
291000
291100
49d100
0f1100
381f00
000000
000000
ENDCHAR
STARTCHAR 2a3a
ENCODING 10810
SWIDTH 954 0
DWIDTH 18 0
BBX 18 19 0 -1
BITMAP
000000
004000
004000
3fff00
212000
212000
292400
252800
233000
212000
233000
252800
292400
212000
422100
042100
083f00
000000
000000
ENDCHAR
STARTCHAR 2a3b
ENCODING 10811
SWIDTH 954 0
DWIDTH 18 0
BBX 18 19 0 -1
BITMAP
000000
004000
004000
3fff00
211000
221000
241000
2fff00
341000
243800
245400
249200
251100
241000
441000
041000
041000
000000
000000
ENDCHAR
STARTCHAR 2a3c
ENCODING 10812
SWIDTH 954 0
DWIDTH 18 0
BBX 18 19 0 -1
BITMAP
000000
018000
066000
181800
6ff600
000100
1ff800
100800
1ff800
042000
042000
7fff00
042000
082000
102000
202000
402000
000000
000000
ENDCHAR
STARTCHAR 2a3d
ENCODING 10813
SWIDTH 954 0
DWIDTH 18 0
BBX 18 19 0 -1
BITMAP
000000
108800
089000
1ffc00
010000
020000
7fff00
044000
082000
1ff000
201c00
4ff300
080000
0ff800
000800
000800
007800
000000
000000
ENDCHAR
STARTCHAR 2a3e
ENCODING 10814
SWIDTH 954 0
DWIDTH 18 0
BBX 18 19 0 -1
BITMAP
000000
080000
0ff000
081000
081000
0ff000
001000
7fff00
052000
09a000
32a200
04a400
09a800
729000
048800
088400
738200
000000
000000
ENDCHAR
STARTCHAR 2a3f
ENCODING 10815
SWIDTH 954 0
DWIDTH 18 0
BBX 18 19 0 -1
BITMAP
000000
0bff00
104800
204800
444800
084800
13ff00
324900
524900
124900
124900
128900
130f00
120100
120100
120100
13ff00
000000
000000
ENDCHAR
STARTCHAR 2a40
ENCODING 10816
SWIDTH 954 0
DWIDTH 18 0
BBX 18 19 0 -1
BITMAP
000000
008800
008400
7fff00
008000
089000
089000
089000
109000
629e00
018000
080000
288400
284200
482900
080800
0ff800
000000
000000
ENDCHAR
STARTCHAR 2a41
ENCODING 10817
SWIDTH 954 0
DWIDTH 18 0
BBX 18 19 0 -1
BITMAP
000000
091000
111000
211f00
61f100
2f1200
211000
210100
210100
21ff00
000000
080000
288400
284200
482900
080800
0ff800
000000
000000
ENDCHAR
STARTCHAR 2a42
ENCODING 10818
SWIDTH 954 0
DWIDTH 18 0
BBX 18 19 0 -1
BITMAP
000000
102000
102000
57ff00
540000
548400
550200
120900
110800
110800
109000
106000
106000
109000
110800
120400
1c0300
000000
000000
ENDCHAR
STARTCHAR 2a43
ENCODING 10819
SWIDTH 954 0
DWIDTH 18 0
BBX 18 19 0 -1
BITMAP
000000
120200
110400
508800
57fe00
548800
548800
508800
108800
17ff00
108800
108800
108800
110800
120800
140800
180800
000000
000000
ENDCHAR
STARTCHAR 2a44
ENCODING 10820
SWIDTH 954 0
DWIDTH 18 0
BBX 18 19 0 -1
BITMAP
000000
102000
102000
53ff00
542000
55fe00
542200
13fe00
122000
13ff00
102100
102100
102500
105300
108800
110400
160300
000000
000000
ENDCHAR
STARTCHAR 2a45
ENCODING 10821
SWIDTH 954 0
DWIDTH 18 0
BBX 18 19 0 -1
BITMAP
000000
102000
102000
51fd00
504200
542400
542800
57ff00
102000
104000
10c000
117e00
124000
144000
104100
104100
107f00
000000
000000
ENDCHAR
STARTCHAR 2a46
ENCODING 10822
SWIDTH 954 0
DWIDTH 18 0
BBX 18 19 0 -1
BITMAP
000000
13ff00
102800
502800
542800
542800
55ff00
512900
112900
112900
112900
112900
114900
118f00
110100
110100
11ff00
000000
000000
ENDCHAR
STARTCHAR 2a47
ENCODING 10823
SWIDTH 954 0
DWIDTH 18 0
BBX 18 19 0 -1
BITMAP
000000
11ff00
110000
510000
557f00
550800
550800
510800
113e00
110800
110800
110800
110800
11ff00
110000
110000
11ff00
000000
000000
ENDCHAR
STARTCHAR 2a48
ENCODING 10824
SWIDTH 954 0
DWIDTH 18 0
BBX 18 19 0 -1
BITMAP
000000
108000
108000
50fe00
548000
548100
548100
50ff00
100000
10fe00
108200
108200
10fe00
108200
108200
108200
10fe00
000000
000000
ENDCHAR
STARTCHAR 2a49
ENCODING 10825
SWIDTH 954 0
DWIDTH 18 0
BBX 18 19 0 -1
BITMAP
000000
11ff00
110100
510100
550100
557d00
554500
514500
114500
114500
114500
114500
117d00
110100
110100
110100
11ff00
000000
000000
ENDCHAR
STARTCHAR 2a4a
ENCODING 10826
SWIDTH 954 0
DWIDTH 18 0
BBX 18 19 0 -1
BITMAP
000000
105000
105000
525200
555400
54d800
545000
105000
105000
10d800
115400
125200
105000
109000
111100
121100
141f00
000000
000000
ENDCHAR
STARTCHAR 2a4b
ENCODING 10827
SWIDTH 954 0
DWIDTH 18 0
BBX 18 19 0 -1
BITMAP
000000
104000
107e00
508200
550400
568800
545000
502800
10c800
171f00
102100
10e100
111600
100800
101000
106000
178000
000000
000000
ENDCHAR
STARTCHAR 2a4c
ENCODING 10828
SWIDTH 954 0
DWIDTH 18 0
BBX 18 19 0 -1
BITMAP
000000
104000
104000
504000
54ff00
550100
560100
50f900
108900
108900
10f900
108900
108900
10f900
100100
100500
100200
000000
000000
ENDCHAR
STARTCHAR 2a4d
ENCODING 10829
SWIDTH 954 0
DWIDTH 18 0
BBX 18 19 0 -1
BITMAP
000000
104000
104000
504000
54ff00
550100
560100
509100
106500
126500
129500
130d00
120500
13fd00
100100
100500
100200
000000
000000
ENDCHAR
STARTCHAR 2a4e
ENCODING 10830
SWIDTH 954 0
DWIDTH 18 0
BBX 18 19 0 -1
BITMAP
000000
040800
080800
100800
37ff00
520800
110800
108800
100800
101800
000000
080000
288400
284200
482900
080800
0ff800
000000
000000
ENDCHAR
STARTCHAR 2a4f
ENCODING 10831
SWIDTH 954 0
DWIDTH 18 0
BBX 18 19 0 -1
BITMAP
000000
101000
101000
501000
55ff00
541000
541000
101000
10fc00
100000
100000
11fe00
110200
110200
110200
110200
11fe00
000000
000000
ENDCHAR
STARTCHAR 2a50
ENCODING 10832
SWIDTH 954 0
DWIDTH 18 0
BBX 18 19 0 -1
BITMAP
000000
104800
104800
508800
548800
55ff00
558800
528800
109c00
109c00
10aa00
10a900
10c800
108800
108800
108800
108800
000000
000000
ENDCHAR
STARTCHAR 2a51
ENCODING 10833
SWIDTH 954 0
DWIDTH 18 0
BBX 18 19 0 -1
BITMAP
000000
101000
102000
504000
548000
55ff00
550100
510100
117d00
114500
114500
114500
114500
117d00
110100
110500
110300
000000
000000
ENDCHAR
STARTCHAR 2a52
ENCODING 10834
SWIDTH 954 0
DWIDTH 18 0
BBX 18 19 0 -1
BITMAP
000000
102000
105000
108800
510400
560200
55fd00
542000
502000
102000
102000
11fc00
102000
102000
102000
102000
17ff00
000000
000000
ENDCHAR
STARTCHAR 2a53
ENCODING 10835
SWIDTH 954 0
DWIDTH 18 0
BBX 18 19 0 -1
BITMAP
000000
00f000
3f0000
200000
3ffe00
200200
3ffe00
208000
208000
20fe00
208000
208000
2ffc00
280400
480400
080400
0ffc00
000000
000000
ENDCHAR
STARTCHAR 2a54
ENCODING 10836
SWIDTH 954 0
DWIDTH 18 0
BBX 18 19 0 -1
BITMAP
000000
00f000
3f0000
200000
3ffe00
200200
200200
3ffe00
200000
2ffe00
280200
29f200
291200
291200
49f200
080a00
080600
000000
000000
ENDCHAR
STARTCHAR 2a55
ENCODING 10837
SWIDTH 954 0
DWIDTH 18 0
BBX 18 19 0 -1
BITMAP
000000
200000
207f00
7f2200
221400
140800
081400
142200
600900
0ff000
008000
3ffe00
008000
7fff00
008000
028000
018000
000000
000000
ENDCHAR
STARTCHAR 2a56
ENCODING 10838
SWIDTH 954 0
DWIDTH 18 0
BBX 18 19 0 -1
BITMAP
000000
202000
202000
23ff00
208800
7c8800
210400
220a00
250800
290800
311000
60a000
204000
20a000
211000
220800
6c0600
000000
000000
ENDCHAR
STARTCHAR 2a57
ENCODING 10839
SWIDTH 954 0
DWIDTH 18 0
BBX 18 19 0 -1
BITMAP
000000
11ff00
111000
111000
111000
7d1000
11ff00
110100
110100
150100
190100
31ff00
511000
111000
111000
511000
31ff00
000000
000000
ENDCHAR
STARTCHAR 2a58
ENCODING 10840
SWIDTH 954 0
DWIDTH 18 0
BBX 18 19 0 -1
BITMAP
000000
208000
208000
208000
23ff00
788000
208000
20bf00
290200
330400
250800
617f00
210800
210800
210800
212800
611800
000000
000000
ENDCHAR
STARTCHAR 2a59
ENCODING 10841
SWIDTH 954 0
DWIDTH 18 0
BBX 18 19 0 -1
BITMAP
000000
102000
102000
13ff00
102000
7c5000
108800
110400
16fb00
180000
13ff00
308000
51fc00
100400
100400
501400
300800
000000
000000
ENDCHAR
STARTCHAR 2a5a
ENCODING 10842
SWIDTH 954 0
DWIDTH 18 0
BBX 18 19 0 -1
BITMAP
000000
11ff00
102000
104000
108000
7d0800
110400
11fe00
142100
182000
102000
31ff00
502000
102000
102000
502000
33ff00
000000
000000
ENDCHAR
STARTCHAR 2a5b
ENCODING 10843
SWIDTH 954 0
DWIDTH 18 0
BBX 18 19 0 -1
BITMAP
000000
11fc00
110400
110400
11fc00
7d0400
110400
11fc00
152100
192200
112400
312800
511000
110800
112400
514200
338100
000000
000000
ENDCHAR
STARTCHAR 2a5c
ENCODING 10844
SWIDTH 954 0
DWIDTH 18 0
BBX 18 19 0 -1
BITMAP
000000
104000
11fe00
104200
104200
7c4200
108200
110a00
160600
180000
120800
3fff00
524900
124900
145100
555500
38e300
000000
000000
ENDCHAR
STARTCHAR 2a5d
ENCODING 10845
SWIDTH 954 0
DWIDTH 18 0
BBX 18 19 0 -1
BITMAP
000000
13ff00
120100
120100
120100
7efd00
120100
120100
16fd00
1a8500
128500
328500
528500
12fd00
120100
520500
320300
000000
000000
ENDCHAR
STARTCHAR 2a5e
ENCODING 10846
SWIDTH 954 0
DWIDTH 18 0
BBX 18 19 0 -1
BITMAP
000000
104000
104000
107c00
108800
7d5000
102000
145000
188800
130600
300000
51fc00
110400
110400
110400
510400
31fc00
000000
000000
ENDCHAR
STARTCHAR 2a5f
ENCODING 10847
SWIDTH 954 0
DWIDTH 18 0
BBX 18 19 0 -1
BITMAP
000000
104000
107e00
104400
108800
7d9000
106000
105000
149000
1b3f00
104100
31c100
502200
101400
101800
506000
378000
000000
000000
ENDCHAR
STARTCHAR 2a60
ENCODING 10848
SWIDTH 954 0
DWIDTH 18 0
BBX 18 19 0 -1
BITMAP
000000
104900
109200
112400
124800
7d2400
109200
104900
144000
187f00
108100
318200
524400
102800
103000
50c000
370000
000000
000000
ENDCHAR
STARTCHAR 2a61
ENCODING 10849
SWIDTH 954 0
DWIDTH 18 0
BBX 18 19 0 -1
BITMAP
000000
101c00
11e000
120400
121800
7e6000
129100
129200
169400
1a9800
129000
329000
528800
129400
14a400
58c200
308100
000000
000000
ENDCHAR
STARTCHAR 2a62
ENCODING 10850
SWIDTH 954 0
DWIDTH 18 0
BBX 18 19 0 -1
BITMAP
000000
101000
101000
11ff00
110100
7e0100
100c00
10f000
142000
182000
11fe00
302000
502000
102000
102100
502100
303f00
000000
000000
ENDCHAR
STARTCHAR 2a63
ENCODING 10851
SWIDTH 954 0
DWIDTH 18 0
BBX 18 19 0 -1
BITMAP
000000
102000
102000
102000
13ff00
7c4000
105000
109100
149200
199400
129800
349000
589000
108800
10a400
50c200
338100
000000
000000
ENDCHAR
STARTCHAR 2a64
ENCODING 10852
SWIDTH 954 0
DWIDTH 18 0
BBX 18 19 0 -1
BITMAP
000000
101000
101000
13ff00
101000
7c1000
11ff00
111100
151100
191500
111300
303800
505400
109200
111100
501000
301000
000000
000000
ENDCHAR
ENDFONT
